<svg id="Layer_1" data-name="Layer 1" xmlns="http://www.w3.org/2000/svg" viewBox="0 0 174.03 500.32"><defs><style>.cls-1{fill:#f2f2f2;}</style></defs><title>homeIcon</title><line class="cls-1" x1="87.09" x2="86.21" y2="418.79"/><polygon class="cls-1" points="87.09 0 90.83 139.61 86.2 418.79 82.77 139.59 87.09 0"/><path class="cls-1" d="M524.49,623.09c-36.35-1.26-63.65-17.69-78.14-51s-9.09-65.27,15.68-92.56c8.62-9.5,10.5-20.52,11.73-32.21.23-2.17-.76-5,.28-6.43,2.26-3.17,5.46-5.67,8.28-8.45,2.6,3,7.54,6.05,7.42,8.92-.73,18.06-3.47,35.16-16.77,49.77C437.32,530.27,455.74,591,506.82,605a69.08,69.08,0,0,0,76.69-30c16.3-25.84,14.28-60.6-6.43-82.69-13.4-14.29-17-31.09-18-49.39-.31-5.75,1.62-10.11,7.68-10.35,6.22-.24,8,4.56,8.55,9.92.58,6,.3,12.19,2.05,17.78,2,6.29,4.68,13,9,17.81,22.44,25.43,29.92,54.26,19.28,86.46s-34.15,51-67.25,57.7C533.88,623.17,529.12,622.85,524.49,623.09Z" transform="translate(-438.38 -125)"/><path class="cls-1" d="M520.44,620.58l-2.29-.11c-.77-.06-1.55-.15-2.32-.22-1.55-.17-3.12-.28-4.68-.48l-4.68-.72a23.71,23.71,0,0,1-2.33-.44l-2.33-.51-2.34-.5-2.3-.66-2.31-.66-1.16-.33-1.13-.41-4.52-1.66-4.39-2a73.38,73.38,0,0,1-16-10.62L464.21,598c-1.08-1.16-2.13-2.35-3.19-3.52a46.24,46.24,0,0,1-2.93-3.69l-1.4-1.87c-.46-.63-.85-1.31-1.27-2a87.88,87.88,0,0,1-9.68-20.26,91.46,91.46,0,0,1-4.54-21.57,79,79,0,0,1,1.19-21.8,84.85,84.85,0,0,1,7.14-21A101.43,101.43,0,0,1,459.82,486l3.1-3.76,1.6-1.94c.57-.67,1.12-1.36,1.62-2.08a41.91,41.91,0,0,0,5.08-9.18c2.57-6.51,3.56-13.34,4.18-20l.12-1.25,0-.32,0-.4c0-.26,0-.51,0-.75,0-1-.17-1.81-.24-2.58a5.12,5.12,0,0,1,0-1.75,1,1,0,0,1,.07-.16l.33-.47c.23-.31.46-.61.71-.91,2-2.42,4.5-4.54,6.89-7l-2.14-.08a43.92,43.92,0,0,0,3.56,3.31,20.75,20.75,0,0,1,3.08,3.1,2.91,2.91,0,0,1,.62,1.43c0,.68,0,1.53-.06,2.28,0,1.56-.14,3.11-.21,4.66a95.72,95.72,0,0,1-2.73,18.37,61.7,61.7,0,0,1-3,8.78c-.29.72-.6,1.43-1,2.12l-1,2.09c-.77,1.34-1.47,2.73-2.35,4a61.73,61.73,0,0,1-5.59,7.45l-3,3.64-2.76,3.82a68.14,68.14,0,0,0-3.59,71.05,69.09,69.09,0,0,0,25.42,26.33,72,72,0,0,0,35,10,68.85,68.85,0,0,0,35.05-9.29,70,70,0,0,0,14.36-11.29,73.94,73.94,0,0,0,6-6.94l2.6-3.77c.85-1.26,1.55-2.63,2.33-3.94a68.17,68.17,0,0,0,8.44-31,64.44,64.44,0,0,0-1.48-16.14,61.41,61.41,0,0,0-5.39-15.26,32,32,0,0,0-2-3.54,35.4,35.4,0,0,0-2.17-3.42L579,498.09,576.38,495c-.85-1-1.85-2.08-2.82-3.16s-1.85-2.24-2.78-3.36-1.72-2.35-2.53-3.56-1.59-2.45-2.27-3.74l-1.06-1.92-1-2c-.67-1.3-1.17-2.67-1.75-4a74.88,74.88,0,0,1-2.69-8.29,102.48,102.48,0,0,1-2.87-17c-.15-1.42-.24-2.84-.34-4.26-.05-.68-.1-1.51-.09-2.31a17.09,17.09,0,0,1,.18-2.48,11.74,11.74,0,0,1,1.92-5.15,9.37,9.37,0,0,1,4.77-3.54,13.51,13.51,0,0,1,5.37-.6,9.92,9.92,0,0,1,5.48,2.19,11.28,11.28,0,0,1,3.18,4.69,20.77,20.77,0,0,1,1.12,4.76c.36,3,.45,5.81.63,8.55a48.48,48.48,0,0,0,1,7.8c.14.61.3,1.19.49,1.8l.63,1.93q.65,1.91,1.38,3.77a46.58,46.58,0,0,0,3.44,7,30.84,30.84,0,0,0,2.16,3.1l2.63,3.17c.89,1.11,1.85,2.16,2.69,3.32l2.55,3.44A96.42,96.42,0,0,1,604.52,500l.93,1.93.81,2c.52,1.33,1.12,2.62,1.57,4l1.33,4.06c.45,1.35.72,2.75,1.09,4.12l.51,2.07c.14.7.25,1.4.38,2.1.23,1.4.52,2.79.69,4.19l.41,4.22a18.67,18.67,0,0,1,.12,2.11l0,2.11a92.46,92.46,0,0,1-2.14,21l-1.15,4.77c-.43,1.56-.93,3.08-1.38,4.61-.24.76-.43,1.53-.71,2.27l-.82,2.23-.81,2.22-.4,1.11-.47,1.09-1.88,4.36c-.69,1.43-1.43,2.84-2.15,4.28s-1.57,2.81-2.38,4.23l-1.25,2.12c-.45.69-.93,1.37-1.4,2.06a81.22,81.22,0,0,1-14.16,16.07A82.77,82.77,0,0,1,555,620.32L551,621.68l-4,1.12-2,.55-2,.44-3.91.85a40.44,40.44,0,0,1-7.85.67h-5.14l-1.66,0c1.11-.2,2-.36,3-.49s2-.24,3-.34c2-.2,4.13-.38,6.24-.72,1.06-.16,2.11-.4,3.11-.64l3.05-.68c2.06-.39,4.07-1,6.13-1.46,8.16-2.06,16.37-4.78,23.71-9A71.33,71.33,0,0,0,594,593.12a86.86,86.86,0,0,0,12.51-24.59,110.37,110.37,0,0,0,5.35-24.46A82.91,82.91,0,0,0,601.73,495c-1-1.82-2-3.67-3.19-5.38s-2.22-3.5-3.48-5.13-2.4-3.33-3.74-4.86l-3.75-4.5a41.22,41.22,0,0,1-5.66-10.4c-.74-1.88-1.44-3.9-2-5.79a33.1,33.1,0,0,1-1.07-5.82c-.22-2-.33-4.14-.47-6.3a65.13,65.13,0,0,0-.67-6.73,18.82,18.82,0,0,0-1-3.63,11.13,11.13,0,0,0-2.24-3.56,9,9,0,0,0-3.83-2.37,12.12,12.12,0,0,0-4.12-.43,11.8,11.8,0,0,0-4,.92,8.87,8.87,0,0,0-3.52,2.73,10.5,10.5,0,0,0-1.81,3.82,15.88,15.88,0,0,0-.46,3.8c0,.62,0,1.23,0,1.82l.12,1.65c.08,1.1.17,2.2.28,3.31s.21,2.21.36,3.31.26,2.21.44,3.31a75.91,75.91,0,0,0,8.14,25.64,62.41,62.41,0,0,0,7.79,11.13l2.24,2.51,2.1,2.42,1.05,1.21c.33.42.63.86.94,1.3l1.88,2.6a62.8,62.8,0,0,1,9.53,23.72l.31,1.58c.09.53.13,1.07.2,1.6l.36,3.2c.16,1.07.1,2.15.17,3.22s.1,2.15.08,3.22a70.19,70.19,0,0,1-1.4,12.78,67.12,67.12,0,0,1-9.64,23.56,71.1,71.1,0,0,1-35,27.76,67.62,67.62,0,0,1-43.91.85,62.28,62.28,0,0,1-20.64-11.5A78.71,78.71,0,0,1,466.88,574c-1.1-1.6-2-3.31-3.06-5-.49-.85-.92-1.74-1.39-2.61l-.7-1.32c-.22-.45-.42-.9-.63-1.36a70.07,70.07,0,0,1-4.3-11.39A61.67,61.67,0,0,1,454.66,540a55.3,55.3,0,0,1,.62-12.69,8.8,8.8,0,0,0,.11,2.81,46.53,46.53,0,0,1,3-18.46l.46-1.28c.17-.42.36-.84.54-1.26l1.14-2.56c.37-.87.87-1.68,1.31-2.53s.89-1.71,1.41-2.54l1.59-2.48.81-1.25.89-1.2,1.81-2.41c.63-.79,1.31-1.54,2-2.31l3.92-4.47,1.81-2.31c.6-.77,1.13-1.6,1.69-2.39a58.66,58.66,0,0,0,5.49-10.26,75.57,75.57,0,0,0,5.06-21.06c.16-1.77.33-3.55.43-5.35.06-.9.11-1.8.15-2.7l.06-1.36c0-.22,0-.48,0-.66a1.92,1.92,0,0,0-.07-.48,5.38,5.38,0,0,0-1.2-2,23.22,23.22,0,0,0-1.88-1.89c-1.34-1.24-2.79-2.42-4.11-3.89l1.21,0c-2.06,2-4.24,3.89-6.13,6-.47.51-.93,1-1.35,1.59-.22.27-.41.55-.61.83a1.84,1.84,0,0,0-.25.64,22.25,22.25,0,0,0,.2,4.07,9.28,9.28,0,0,1,0,1.21l-.1,1.09-.22,2.16c-.15,1.44-.33,2.88-.54,4.32a70.78,70.78,0,0,1-1.72,8.59,43,43,0,0,1-7.79,15.73l-5.29,6.52-2.38,3.34c-.79,1.11-1.59,2.2-2.26,3.37a91.87,91.87,0,0,0-9.72,19.91,78.9,78.9,0,0,0-4.12,21.19,83.41,83.41,0,0,0,1.7,21.54l.59,2.67.3,1.34c.11.44.25.88.38,1.32.52,1.75,1,3.52,1.57,5.27l1.91,5.2c.65,1.73,1.47,3.4,2.2,5.11a73.41,73.41,0,0,0,12.94,19.37,71.18,71.18,0,0,0,18.55,14.21c13.74,7.4,29.27,10,43.71,11.33" transform="translate(-438.38 -125)"/><path class="cls-1" d="M525.49,389.65c11.46,0,22.93.06,34.39,0,4.42,0,8.33,1.23,7.14,6.2-.54,2.25-4.6,5.15-7.1,5.19q-34,.6-68,0c-2.61,0-5.16-3.33-7.74-5.11,2.57-2.08,5-5.8,7.72-6C503.08,389.25,514.29,389.64,525.49,389.65Z" transform="translate(-438.38 -125)"/><path class="cls-1" d="M526.25,391.9c4.63-.34,9.6-1.89,14.19-1.46,5.62.52,11,2.58,16.71,2,1.44-.13,3-.31,4.14-.37a7.41,7.41,0,0,1,3.15.44,1.71,1.71,0,0,1,.81.68,2.57,2.57,0,0,1,.34,1.33,7,7,0,0,1,0,.87c0,.12,0,.18,0,.29s-.06.22-.12.34a6,6,0,0,1-1,1.49,10.41,10.41,0,0,1-3.15,2.39,6.24,6.24,0,0,1-.9.33l-.44.09-.54.06-2.17.23q-4.35.45-8.71.84c-11.61,1-23.25,1.67-34.88,1.56-5.12,0-10.31.16-15.51.38l-3.91.16-2,.08a6.73,6.73,0,0,1-1.47-.09,7.36,7.36,0,0,1-1.49-.43,16.5,16.5,0,0,1-4-2.55c-1.05-.85-2-1.65-2.81-2.19l-3.3-2.17,3.11-2.69c.88-.76,1.85-1.83,3-3a21.1,21.1,0,0,1,1.95-1.72,9.23,9.23,0,0,1,2.88-1.55,5.9,5.9,0,0,1,1-.22l.53-.06a3.13,3.13,0,0,1,.34,0h1.14c.76,0,1.52,0,2.27.07q2.27.11,4.51.38a50.76,50.76,0,0,0,14.64-.23,47,47,0,0,1,11,.18c-2.91,2.37-6.05,0-9-.65-3.44-.79-6.72,0-10,.53a41.06,41.06,0,0,1-9.13.18c-1.54-.09-3.08-.2-4.6-.24l-.57,0a4.49,4.49,0,0,0-.71,0,5.22,5.22,0,0,0-1,.16,5.32,5.32,0,0,0-.88.28,9.25,9.25,0,0,0-2.55,1.56c-1.91,1.65-3.2,3.38-4.52,4.57l-2.75,2.49,2.92,1.8c.87.54,1.85,1.34,2.93,2.18a16.25,16.25,0,0,0,4,2.46,7.45,7.45,0,0,0,1.45.38c.27,0,.55,0,.82.05l.52,0,2-.08,4-.14a156.4,156.4,0,0,1,16,.17c6,.43,11.22-.58,16.91-1.1,3-.27,5.79,1.13,8.8,1s6-2.11,9.1-1.9a.87.87,0,0,0-.5.48c1.87-1.85,4.63-2.2,7.55-2.09.73,0,1.47.08,2.2.15l1.1.11a4.92,4.92,0,0,0,.88.05,6.75,6.75,0,0,0,3.36-1.26,6.34,6.34,0,0,0,2.32-2.74,5.71,5.71,0,0,0,.15-.87,6.2,6.2,0,0,0,0-.9,2.89,2.89,0,0,0-.52-1.47,3.83,3.83,0,0,0-2.85-1.23,10.06,10.06,0,0,0-1.82,0c-.62,0-1.2.17-1.89.27-5.65.94-10.93-.27-16.45-1-5.71-.79-11.78,2.7-17.28,1.24" transform="translate(-438.38 -125)"/><path class="cls-1" d="M525.48,421c-11.19,0-22.4.34-33.56-.24-2.66-.14-5.16-3.35-7.73-5.14,2.58-2.08,5.13-5.91,7.76-6,22.65-.48,45.31-.24,68-.3,4.44,0,8.29,1.37,7.1,6.27-.54,2.24-4.58,5-7.14,5.14C548.43,421.29,536.95,421,525.48,421Z" transform="translate(-438.38 -125)"/><path class="cls-1" d="M524.72,418.71c-4.65.35-9.6,1.95-14.19,1.54-5.63-.5-10.91-2.59-16.56-2.29-.86,0-2.15.1-2.21.12a4.65,4.65,0,0,1-1.79-.73c-1.43-.85-2.91-2.13-4.76-3.23l.1,2.85a31.38,31.38,0,0,0,2.54-2.9,23.5,23.5,0,0,1,2.3-2.58,5.08,5.08,0,0,1,1.23-.84,2.52,2.52,0,0,1,.65-.19l.91-.1,3.64-.39q7.28-.76,14.58-1.31c9.73-.73,19.47-1.14,29.2-1.1,4,0,8.13-.14,12.23-.36l6.15-.35a26.5,26.5,0,0,1,3.37-.06,11.58,11.58,0,0,1,3.89.86,7.57,7.57,0,0,1,2.06,1.31,6.47,6.47,0,0,1,1.58,2.25,8,8,0,0,1,.37,4.74,6.17,6.17,0,0,1-.39,1.33,7.38,7.38,0,0,1-.63,1.15,9.72,9.72,0,0,1-1.4,1.68,13.71,13.71,0,0,1-3.14,2.27,12.46,12.46,0,0,1-1.82.79,8.84,8.84,0,0,1-2.19.48,8.05,8.05,0,0,1-.95,0h-.77l-1.54,0c-2.05-.07-4.1-.24-6.12-.49a49.27,49.27,0,0,0-14.62.22,46.73,46.73,0,0,1-11-.16c2.91-2.37,6.06,0,9,.64,3.44.79,6.72,0,10-.54a39.57,39.57,0,0,1,9.11-.14c1.53.1,3.07.23,4.58.3l1.13,0h.56c.19,0,.57,0,.84-.05a9.16,9.16,0,0,0,2.86-.86,13.28,13.28,0,0,0,4.62-3.63,7.81,7.81,0,0,0,1-1.52,5.52,5.52,0,0,0,.38-1,2.8,2.8,0,0,0,.1-.45l.06-.39a7.79,7.79,0,0,0-.18-3.47,6.13,6.13,0,0,0-2.22-3.19,8.15,8.15,0,0,0-3-1.35,13.83,13.83,0,0,0-2.83-.32c-.46,0-.9,0-1.35,0l-1.22.07a157.12,157.12,0,0,1-19.33.16c-6-.4-11.21.61-16.9,1.12-3,.27-5.79-1.14-8.8-1s-6,2.1-9.11,1.88a.87.87,0,0,0,.5-.48c-1.87,1.85-4.63,2.19-7.55,2.09-1.46-.06-3-.22-4.39-.37l-1.06-.11-.26,0h-.18a1.1,1.1,0,0,0-.37,0,3.62,3.62,0,0,0-1.49.65c-1.8,1.31-3.22,3.32-5.14,5.11l-.05-1.58c1.44.89,2.68,1.92,3.93,2.73s2.58,1.4,3.27,1.18l.44-.05.52,0,1-.06q1,0,2.06,0c1.36,0,2.71.16,4.05.33,2.69.33,5.37.85,8.12,1.23,5.7.79,11.75-2.78,17.28-1.33" transform="translate(-438.38 -125)"/><path class="cls-1" d="M525.52,381.51c-8.75,0-17.53.42-26.22-.26-2.59-.2-4.93-3.53-7.39-5.42,2.41-2,4.77-5.56,7.23-5.63q26.63-.73,53.29,0c2.43.06,4.78,3.57,7.16,5.49-2.34,1.95-4.56,5.38-7,5.57C543.6,381.93,534.54,381.51,525.52,381.51Z" transform="translate(-438.38 -125)"/><path class="cls-1" d="M524.9,379.25c-3.81.35-7.83,2-11.57,1.57-4.6-.5-8.85-2.6-13.39-2.4a4,4,0,0,0-.45,0,.25.25,0,0,1-.16,0,1.71,1.71,0,0,1-.59-.12,8.13,8.13,0,0,1-1.7-1c-1.23-.85-2.5-2-4.07-2.95l0,2.7c1.56-1.61,2.58-3.28,3.82-4.65a5.52,5.52,0,0,1,2-1.55,8.37,8.37,0,0,1,1.34-.23l1.47-.2c3.92-.52,7.84-1,11.77-1.35A214.13,214.13,0,0,1,537,368.13c4.07.06,8.18-.12,12.32-.31l3.1-.14h.28l.37,0a3.87,3.87,0,0,1,.7.11,6.73,6.73,0,0,1,1.22.41,10.78,10.78,0,0,1,1.83,1.08c2,1.5,3.4,3.08,4.67,4l2.86,2.1L561.53,378c-.72.65-1.53,1.57-2.47,2.53a14,14,0,0,1-3.8,3l-.74.3c-.28.09-.56.16-.85.23s-.65.09-.92.11h-.49c-.66,0-1.31,0-2-.05-1.3-.06-2.6-.19-3.88-.38a34.31,34.31,0,0,0-12,.23,31.36,31.36,0,0,1-8.93-.18c2.37-2.37,4.93,0,7.35.66,2.8.8,5.49,0,8.18-.53a27.84,27.84,0,0,1,7.48-.19c1.26.09,2.53.19,3.78.23h.48c.29,0,.58,0,.86-.09l.78-.2c.24-.08.46-.17.69-.27a8.77,8.77,0,0,0,2.06-1.34c1.77-1.57,2.93-3.2,4.1-4.32l2.45-2.35-2.49-1.74a25.52,25.52,0,0,1-2.18-1.8,30.47,30.47,0,0,0-2.66-2.19,9.48,9.48,0,0,0-1.82-1l-.56-.2-.63-.15a5.65,5.65,0,0,0-1.18-.07l-3.19.12a105,105,0,0,1-12.73-.24c-4.88-.45-9.17.56-13.81,1.08-2.48.27-4.73-1.12-7.19-1s-4.87,2.12-7.42,1.92a.79.79,0,0,0,.41-.48c-1.51,1.86-3.76,2.21-6.14,2.12-.59,0-1.2-.07-1.8-.14s-1.3-.16-1.55-.17a4.25,4.25,0,0,0-2.48,1.21c-1.28,1.15-2.39,2.61-3.83,4l0-1.49c1.21.82,2.28,1.73,3.35,2.5a7.07,7.07,0,0,0,3,1.48,1.91,1.91,0,0,0,.45,0l.17,0,.42,0c.56,0,1.11,0,1.66,0a30.67,30.67,0,0,1,3.27.37c2.17.36,4.34.88,6.59,1.26,4.65.79,9.56-2.81,14.1-1.36" transform="translate(-438.38 -125)"/><path class="cls-1" d="M545.35,361.56h-38c3.33-8.24,10.32-10.48,17.45-10.94C532.88,350.1,540.1,352.89,545.35,361.56Z" transform="translate(-438.38 -125)"/><path class="cls-1" d="M543,360.43c-1.85,0-2.95.89-5.47.61a37.8,37.8,0,0,1-4.91-1.09,12.5,12.5,0,0,0-4.2-.68c-3.08.39-6.32,1-9.85,1.68s-7.3,1.31-11.2,1.74l-1.56.17.51-1.73a16.65,16.65,0,0,1,2.51-5.19,14.47,14.47,0,0,1,4.39-4,33,33,0,0,1,12.08-4.19,18.22,18.22,0,0,1,6.6.23,12.64,12.64,0,0,1,5.88,3.09,28.28,28.28,0,0,0,2.91,2.52c.48.34,1,.7,1.51,1s1.1.71,1.75,1.1a8.08,8.08,0,0,1,2,2c.15.21.3.43.44.65l.15.25.2.36a6.09,6.09,0,0,1,.33.79,5.73,5.73,0,0,1,.21,2.79c-.52-.92-1-1.58-1.31-2.16a9.25,9.25,0,0,1-.45-.84c-.06-.13-.13-.29-.17-.4a2.61,2.61,0,0,1-.07-.3,20.81,20.81,0,0,0-.3-2.74c-.6-1.93-2.54-2.66-4.23-3.28a19.87,19.87,0,0,1-4.15-2.49,12.05,12.05,0,0,0-4.37-2.16,23,23,0,0,0-9.95.57,49.06,49.06,0,0,0-9.47,3.29,8.13,8.13,0,0,0-3.36,3.08,18.15,18.15,0,0,0-1.74,4,5,5,0,0,1-1.45,1.86l-.87.79,2,.87a4.65,4.65,0,0,0,2.11.55c1.49-.1,2.78-2.06,4.29-1.81-.09.06-.15.21-.17.47a2.6,2.6,0,0,1,3.18-1.93c1.37.17,3,.77,4.15.79a22.1,22.1,0,0,0,7.05-.93c2-.64,5.12.47,8.33,1a6,6,0,0,0,3.41-.41,6.18,6.18,0,0,1,3.69,0" transform="translate(-438.38 -125)"/><path class="cls-1" d="M549.48,510a43,43,0,0,0,0,12.36,85,85,0,0,0,3.08,12c2.49,7.91,5.35,15.68,8.06,23.6l1,3,.47,1.56a14.87,14.87,0,0,1,.41,1.79,4,4,0,0,1,0,.82,2.33,2.33,0,0,1-.06.45,3.09,3.09,0,0,1-.1.33,2,2,0,0,1-.13.29,2.57,2.57,0,0,1-.53.68,2.27,2.27,0,0,1-.27.2,2.68,2.68,0,0,1-.59.29,2.74,2.74,0,0,1-.9.13,3.14,3.14,0,0,1-1.35-.37,5.81,5.81,0,0,1-.57-.33,16.74,16.74,0,0,1-1.49-1.11c-.87-.71-1.65-1.41-2.44-2.1-1.57-1.39-3.1-2.75-4.65-4a33.22,33.22,0,0,0-4.63-3.33,7.3,7.3,0,0,0-1-.48,2.56,2.56,0,0,0-.38-.11h-.13s0,0,0,0l0-.22c.14-1.08-.31-1.53,0-1.14a1.13,1.13,0,0,0,.34.29,2.46,2.46,0,0,0,.62.38c.38.18.25.14.27.16s0,.07,0,.1a9.35,9.35,0,0,0,0,2.1c.07.87.2,1.81.36,2.77.32,1.92.77,3.89,1.2,6,.11.54.21,1.07.31,1.66a13.08,13.08,0,0,1,.21,2.15,5.46,5.46,0,0,1-.11,1.1l-.08.37a2.88,2.88,0,0,1-.11.32c-.05.13-.11.26-.17.39a5,5,0,0,1-.43.74,4.12,4.12,0,0,1-3.1,1.66H542l-.38,0a4.5,4.5,0,0,1-.74-.18,4.69,4.69,0,0,1-.9-.43,5.52,5.52,0,0,1-.51-.37,6,6,0,0,1-.89-.93,10.88,10.88,0,0,1-.73-1.08c-.18-.3-.34-.58-.48-.84-1-2.13-1.72-4-2.54-5.85a42.42,42.42,0,0,0-2.53-5.08,8.17,8.17,0,0,0-1.17-1.56l0,0h0l.11-.18.21-.37a3.64,3.64,0,0,0,.39-1c.05-.43-.11-.06.48.74a3.84,3.84,0,0,0,.53.64l0,0a2.55,2.55,0,0,0-.2.24,6.49,6.49,0,0,0-.53.88,23.68,23.68,0,0,0-1.08,2.49l-1,2.88a22.69,22.69,0,0,1-1.48,3.45,5.77,5.77,0,0,1-1.17,1.48l-.31.25-.16.12-.25.15a4.76,4.76,0,0,1-.56.26,3,3,0,0,1-.66.19,3.76,3.76,0,0,1-1.58,0,3.83,3.83,0,0,1-1.31-.57,4.9,4.9,0,0,1-.45-.36,2.83,2.83,0,0,1-.34-.34,6.27,6.27,0,0,1-.43-.59c-.1-.17-.16-.29-.24-.45a3.84,3.84,0,0,1-.18-.4,8.45,8.45,0,0,1-.38-1.22,26.22,26.22,0,0,1-.5-3.55c-.19-2.15-.29-4.21-.53-6.06-.06-.45-.13-.89-.21-1.25,0-.17-.08-.34-.12-.44s0-.08,0-.11v0l.07,0,.16-.07a4.32,4.32,0,0,0,.6-.35c.21-.17.32-.21.46-.32s.27-.27.33-.32a.74.74,0,0,0,.18-.24c0-.06,0-.05.05-.1a2,2,0,0,0,.39,1c.1.15.21.3.35.5l.21.26.2.24-.06,0a3.62,3.62,0,0,0-.28.33,17.35,17.35,0,0,0-1.38,2.25c-.45.85-.89,1.75-1.32,2.66-.85,1.83-1.67,3.72-2.5,5.63s-1.62,3.81-2.73,5.9c-.15.27-.31.54-.52.86a6.21,6.21,0,0,1-.4.54,3.62,3.62,0,0,1-1,.87l-.26.14a3.21,3.21,0,0,1-.46.17,2.57,2.57,0,0,1-.53.09,3,3,0,0,1-.71,0,2.87,2.87,0,0,1-1.26-.57,3.11,3.11,0,0,1-.63-.7,3.55,3.55,0,0,1-.27-.52c0-.12-.08-.24-.12-.35a4.3,4.3,0,0,1-.11-.51,7,7,0,0,1,0-1.22,33.1,33.1,0,0,1,.38-3.38c.64-4.17,1.42-8.22,1.69-12.15a21.76,21.76,0,0,0,0-2.81,7.51,7.51,0,0,0-.16-1.17,3.09,3.09,0,0,0-.12-.39l0-.08h0l.06,0a2.41,2.41,0,0,0,.23-.2,1,1,0,0,0,.15-.16.52.52,0,0,0,.08-.11l0,0,0-.1h0v0l0,.09a.64.64,0,0,0,0,.18,1.6,1.6,0,0,0,0,.32c0,.09.06.24,0,.2a2.26,2.26,0,0,0-.69.33,16.31,16.31,0,0,0-2.12,1.75l-2.24,2.15a16.45,16.45,0,0,1-2.78,2.24,4.66,4.66,0,0,1-1.23.51,2.82,2.82,0,0,1-2.24-.4,2.79,2.79,0,0,1-.81-.88,3.53,3.53,0,0,1-.31-.8,3.63,3.63,0,0,1-.12-.66,4.79,4.79,0,0,1,0-.56,16.14,16.14,0,0,1,.5-3.49c.48-2.1,1.1-4.1,1.46-6a7.86,7.86,0,0,0,.15-1.26c0-.06,0-.16,0-.19a.17.17,0,0,1,0,0h0l.12,0,.24-.08c.63-.21.55-.53.49-.13a1.39,1.39,0,0,0,0,.38,1.72,1.72,0,0,0,0,.25l0,.12s0,0,0,0l-.12,0a3.6,3.6,0,0,0-.47.25,11.2,11.2,0,0,0-1.09.82,50.56,50.56,0,0,0-4.3,4.24c-1.39,1.51-2.76,3.06-4.12,4.63s-2.7,3.15-4.12,4.72c-.36.39-.71.78-1.15,1.19a4.2,4.2,0,0,1-.42.35l-.2.12a1.39,1.39,0,0,1-.52.16,1.17,1.17,0,0,1-.88-.3,1.19,1.19,0,0,1-.36-.78,1.39,1.39,0,0,1,0-.37l0-.14a2.77,2.77,0,0,1,.29-.56l.25-.36c.64-.88,1.28-1.68,1.9-2.51,5-6.53,9.25-13.74,11.35-21.71a36.13,36.13,0,0,0,1.15-12.23A35.08,35.08,0,0,0,494.35,510a35.33,35.33,0,0,1,3.75,11.87,36.89,36.89,0,0,1-.67,12.52c-1.82,8.24-5.9,15.81-10.7,22.66-.59.86-1.22,1.72-1.77,2.54l-.18.29c-.05.08-.1.2-.07.13V560a.85.85,0,0,0,0-.27,1.08,1.08,0,0,0-.33-.69,1,1,0,0,0-.79-.28.92.92,0,0,0-.34.09l0,0,.17-.16c.31-.31.65-.71,1-1.09,1.31-1.57,2.59-3.21,3.89-4.84s2.62-3.25,4-4.85a53,53,0,0,1,4.39-4.68,14.16,14.16,0,0,1,1.36-1.1,6.68,6.68,0,0,1,.89-.52,3.06,3.06,0,0,1,1.53-.33,2.17,2.17,0,0,1,1.24.51,1.85,1.85,0,0,1,.42.47,2,2,0,0,1,.24.46,3.89,3.89,0,0,1,.26,1.32,10.62,10.62,0,0,1-.13,1.85c-.33,2.22-.88,4.22-1.24,6.19a13.17,13.17,0,0,0-.3,2.68,1.35,1.35,0,0,0,0,.22.24.24,0,0,0,0,.11s0,0,0-.07a.86.86,0,0,0-.28-.32,1,1,0,0,0-.75-.18s0,0,.18-.12a14,14,0,0,0,2-1.78l2.17-2.25a20,20,0,0,1,2.61-2.3,6.24,6.24,0,0,1,2.1-1,4.5,4.5,0,0,1,.81-.11,3.6,3.6,0,0,1,1,.12,3.47,3.47,0,0,1,1.65,1,5.38,5.38,0,0,1,1.24,2.3,11.59,11.59,0,0,1,.35,1.9,25.93,25.93,0,0,1,.11,3.42c-.13,4.37-.78,8.54-1.23,12.6-.11,1-.21,2-.21,2.83a1.72,1.72,0,0,0,0,.34.65.65,0,0,0,0-.13,1.09,1.09,0,0,0-.06-.17,1.8,1.8,0,0,0-.18-.35,2.24,2.24,0,0,0-.5-.56,2.4,2.4,0,0,0-1.09-.5,2.25,2.25,0,0,0-.61,0,2.58,2.58,0,0,0-.43.07,2.07,2.07,0,0,0-.37.14l-.18.09a1.75,1.75,0,0,0-.43.34l.05-.09c.07-.12.17-.29.26-.49.78-1.61,1.53-3.61,2.28-5.52s1.5-3.9,2.33-5.87c.41-1,.85-2,1.33-3a22.93,22.93,0,0,1,1.77-3.13,6.93,6.93,0,0,1,1.91-1.93,3.92,3.92,0,0,1,.52-.28,4,4,0,0,1,.7-.25,4.09,4.09,0,0,1,.91-.13,3.62,3.62,0,0,1,1,.13,4.28,4.28,0,0,1,.93.38,5.29,5.29,0,0,1,.66.48,5,5,0,0,1,.77.89,8.17,8.17,0,0,1,1,2.38c.17.65.29,1.23.39,1.81.39,2.26.56,4.35.82,6.34a20.53,20.53,0,0,0,.46,2.61,2.09,2.09,0,0,0,.09.27l0,0-.06-.1a1.36,1.36,0,0,0-.2-.27l-.2-.21a2.14,2.14,0,0,0-.3-.23,3,3,0,0,0-1-.42,3,3,0,0,0-1.2,0l-.48.13a2.25,2.25,0,0,0-.39.18l-.25.16-.16.13-.18.18s-.08.1-.08.09,0,0,0,0a20.26,20.26,0,0,0,.84-2.33l1-3a30.57,30.57,0,0,1,1.28-3.28,13.79,13.79,0,0,1,1-1.82,7.87,7.87,0,0,1,1.91-2.06,8.6,8.6,0,0,1,.82-.51,7.38,7.38,0,0,1,1-.4,5.62,5.62,0,0,1,2.33-.15,6.69,6.69,0,0,1,3.15,1.44,14.25,14.25,0,0,1,2.82,3.2,49,49,0,0,1,3.29,5.94c.93,1.91,1.81,3.9,2.64,5.49l.25.53c.07.14.15.28.1.24a3.29,3.29,0,0,0-.37-.35,2.63,2.63,0,0,0-.35-.25,3.27,3.27,0,0,0-.72-.35,3.43,3.43,0,0,0-.65-.16l-.33,0h-.44a3.56,3.56,0,0,0-.87.16,3.49,3.49,0,0,0-.73.3,3.6,3.6,0,0,0-1.16,1,3,3,0,0,0-.48.87l-.07.23a1.7,1.7,0,0,0,0,.18c-.05.34,0,.26,0,.32a5.14,5.14,0,0,0,0-1c0-.44-.09-.93-.15-1.43-.24-2-.55-4.12-.74-6.32-.09-1.11-.17-2.24-.16-3.44,0-.6,0-1.22.09-1.89a10.91,10.91,0,0,1,.42-2.19,6.09,6.09,0,0,1,1.71-2.83,7.15,7.15,0,0,1,.93-.66,5,5,0,0,1,1.06-.42,5.35,5.35,0,0,1,1.89-.14,7.59,7.59,0,0,1,2.48.73,13.62,13.62,0,0,1,1.73,1,38.54,38.54,0,0,1,5.16,4.36c1.54,1.5,3,3,4.43,4.52.71.74,1.43,1.48,2.12,2.15.34.33.7.65.94.84l.09.08a1.75,1.75,0,0,0-.62-.12,2,2,0,0,0-.71.11,2,2,0,0,0-.5.24l-.23.18a2,2,0,0,0-.48.6c-.06.12-.11.24-.11.25a1.6,1.6,0,0,0-.07.24,1.64,1.64,0,0,0,0,.26c0,.19,0,.09,0,0a10.67,10.67,0,0,0-.19-1.27l-.31-1.46-.72-3c-2-8-4.29-16.07-6.14-24.21a86.25,86.25,0,0,1-2.14-12.39A43.52,43.52,0,0,1,549.48,510Z" transform="translate(-438.38 -125)"/></svg>