<svg id="Layer_1" data-name="Layer 1" xmlns="http://www.w3.org/2000/svg" viewBox="0 0 489.96 613.91"><defs><style>.cls-1{fill:#f2f2f2;}</style></defs><title>videosIcon</title><path class="cls-1" d="M786.44,383.6l-30.83,16.69c-4.6,1-9.08,2.17-14,3.45-12.27,3.21-19.49,6.46-25,10.11s-9.24,7.65-14.54,11.89c-4.64,3.68-9.33,7.39-14.19,11.12q-54.51,29.46-108.08,58.84c-8.21.51-17.68-.38-23.45,2-7.79,3.19-6.46,9.72-11.85,14.51-7.12,6.31-16.11,11.1-25.78,14.91s-20,6.65-30.15,9.36-20,5.34-28.81,9S443,553.7,436.59,560.68c-15.61,16.9-30.92,31.74-51.79,45.12l-13.47,8.36,33.24,19-.27-10.76V512c1.8-7.07,3.46-14.13,5.08-20.89,5.67-24.21-3-46.35-5.08-67.85V407.49a53.34,53.34,0,0,1,2.15-10.15c2.34-7.26,8.69-18.69,8.35-26.53-.24-5.64-4.19-11.42-5.51-17a82.11,82.11,0,0,0,1.56-14.27c3.47-10.63,9.18-15.08,5.57-31-4-.38-6.25-2.41-9.28-3.58-.2-.93-.29-1.89-.44-2.83,3.42-4.87,6.25-10.25,10.26-14.89a76.53,76.53,0,0,0-6.11-7C422.08,268.6,425.6,249.42,414,236a43,43,0,0,0,1-11.82c-.59-10.63-6.54-18.93-10.74-28v-3.87c3.13-11.86,4.64-21.37,18.12-30.15-1.76-2-3.42-4-4.93-5.89,3.26-5.26,4-13.88,2.25-22.3l-56.07,32.12c8.73,2.86,19,3,26.48-1.87a7.3,7.3,0,0,0,.78.62c2.51,2.26,4.75,4.52,7,6.8,3.91,14.68,11.57,19.63,23.27,21.56a78.63,78.63,0,0,0,14,8.64C460,213.71,485.84,226,512.14,239.23c2.36,1.16,4.59,2.51,6.88,3.78,4.07,4.32,7.91,8.65,13.83,11.73a43.9,43.9,0,0,0,11.65,3.87c14.46,8.93,29.85,16.74,50.47,21.22l.74.41q4.66,4,9.43,7.85c-1.2,1-3.44,1.43-4.34,2.45,9.62,3.21,20.74,6.68,27.63,11.8.64.68-4,1.39-4.44,1.77,6.65,1.09,10.08,2.6,10.24,4.17s-3,3.23-9.32,4.84c5.16.07,12.33,2.28,17.74,2.67-3.38,3.72,5.07,8.71,16.92,13.48a317.23,317.23,0,0,0,37.05,11.94,212.38,212.38,0,0,0,24.66,16.27c16.65,9.28,25.46,12.92,40.46,12.77l24.16,13.08h13.18l.36.29c.55-.13,1.29-.18,1.89-.29l23.63,0-1.59-1c1.77.06,3.46.11,5.29.2-15.38-9-30.65-16-42-23.78-5.86-9.69-21.41-20-39.5-29.84L731.38,319C712,306.49,691,294.5,672.32,281.68c-5-3.38-9.47-7.4-14.55-11.18A57.61,57.61,0,0,0,640,261a42.15,42.15,0,0,0-5.55-1.11,658.54,658.54,0,0,0-61.76-32.69l-12.51-7.59c-.46-1.34-1-2.7-1.3-4-2.38-9.87-5.94-17-11.9-23.27s-14.38-11.65-26.64-18.2c-20.23-10.81-39.17-23.91-58.52-37.1s-39-26.37-59.64-36.58L338.73,69.08l4.9,64.92c1.24,16.42,4.19,32.49,10.14,48,4.3,11.27,7.81,21.61,11.47,32.14v92.93c-2.58,4.79-4,9.7-1.51,15-28.12,2.62-21.54,55-15.14,72.12,1.76.74,3.42-.09,5.27.54.83,18.43,6.74,58.3-2,70.74,5.38,6.21,8,13.7,13.33,19v23.22c-8.1,7.55-19.87,12.81-24.61,22.19,20.41,6.08,20.7,29,20.32,42.07-.15,5.89-2.24,15.12-2.88,24a6.68,6.68,0,0,1-3.57.89c-2.3,7.72-.64,14.9-.14,22.63a9.21,9.21,0,0,1-2.2-1.24c-1.38,5.78-1,10.94,1.35,15L381.89,683l15.28-24.78c2.45-4,3.09-8.85,1.58-14.53l5.93-3.48c13.48-1.47,26.2.71,38.57-6.05,6.47-3.55,12-9,17.22-14.56s10.3-11.4,16.08-15.91A61.15,61.15,0,0,0,490,589.72q30.17-18,60.28-36.19a149.21,149.21,0,0,0,36.82-16.1c10.81-6.4,20.87-13.5,32.74-20.89,5.88-3.65,13.52-7.64,20.13-12s12.17-9.09,13.78-13.92a1.09,1.09,0,0,0,.1-.39c57.79-35.68,114.91-71.39,171.66-106.63Zm-146.1-79,13.82,7.5-.93.66Zm44,27.38a1.11,1.11,0,0,0,.13-.11l.9.73Z" transform="translate(-338.73 -69.08)"/></svg>