<svg id="Layer_1" data-name="Layer 1" xmlns="http://www.w3.org/2000/svg" viewBox="0 0 641.67 720"><defs><style>.cls-1{fill:#f2f2f2;}</style></defs><title>audioIcon</title><path class="cls-1" d="M248.87,461.14v-3.92c1.46-.28,2.69-.59,4-.94,6.42-1.77,1.41-3.4-1.06-5.28-1.05-.82-2-1.63-2.93-2.44v-14c2.49-.6,6.18-1.15,6.62-1.84.59-.93-3.78-1.57-4.83-2.47-5.57-4.77,13.59-8.86,6.56-13.38-4.25-2.74-7.32-5.15-7.94-8-.21-1-.24-2-.41-3v-12.1c1.08-.77,2.08-1.55,3-2.29,3.4-2.65-1.82-5.08-3-7.43v-1.73a3.57,3.57,0,0,1,1.29-1.11c1.4-.8,5.21-2,5-2.91-.14-.62-2.52-1.25-3.31-1.86a2.6,2.6,0,0,0,.94-1.56c2.08-1.16,5.51-1.65,3.34-3.39-2.37,0-3.75-.26-5.57-.39a2.63,2.63,0,0,1-.26-.31c2.05-.53,3.75-1.12,6.15-1.63-1.08-.27-2.37-.52-3.66-.77,6.74-1.28,8.85-3.38,1.9-4.85.5-.42.76-.85.61-1.3-.35-1.16-3.92-2.07-6.44-3.06v-.42c1.88-1.3,2.78-2.34,10.87-3.3-1.06-.22-2.05-.43-3-.65,4.19-1.23,1.32-4.16-7.65-4.94.06,0,.06-.07.09-.11a15.56,15.56,0,0,1,1.41-1.1c6.44-1.32,6.74-2.43,4.22-3.66a2,2,0,0,0,.32-1.93,74.82,74.82,0,0,1-3.25-9.79,3.19,3.19,0,0,1,0-.91c1.17-.74,2.46-1.49,2.37-2.26-.06-.48-.65-.9-1.47-1.28.59-2,.41-4-3.92-5.9v-.1q.92-.79,1.76-1.58c1.05-.05,2.17,0,3.16-.06-1.26-1-3-2.12-2-3.22a26.79,26.79,0,0,1,2.9,0c-3.4-1-1-1.58,6.21-1.4-1.87-.29-3-1-4.77-1.34,8.2-.82,2.66-5-2.08-6.56,1.49-1.28,2.81-2.57,3.25-3.86.79-2.3,0-3.25-8.44-3.38v-3.07H241l.09-.06-1.43.06H225.43v.2l-3,0c.67,1.81,2.93,3.27,2.34,4.83-5.1,1.81-5.1,3.77-3.87,5.79,0,.61.09,1.25.09,2-.06,2.44.79,4.89.12,7.34-.32,1.29-2.9,2.79-.18,4a10.45,10.45,0,0,0,1.41.43,15.06,15.06,0,0,0,3,7.1v1.55c-.58.15-1.17.31-1.79.45-9.23,2.08-10.61,3.34-9.61,6.12,2.26,6.36-8.44,13.34,4.51,19.51,2.58,1.23,4.69,2.37,6.88,3.52v10.18c-1.55.53-2.37,1.06-.91,1.64-16.87.29-12.92,6-9.08,7.9,1.06.08,2.05,0,3.17.06.5,2,4,6.39-1.17,7.75,3.23.68,4.81,1.5,8,2.08v2.54c-4.86.83-11.92,1.4-14.77,2.43,12.25.67,12.42,3.18,12.19,4.61-.09.65-1.35,1.66-1.73,2.63a19.7,19.7,0,0,1-2.14.1c-1.38.85-.38,1.63-.09,2.48-.38,0-.79-.06-1.32-.14-1.61,1.23.85,2.21,7.85,2.57v.73c-3.34,1.3-8.35,2.27-8.64,3.72s4.43,3.16,5.54,4.72a7,7,0,0,0,3.1,2.07v7.43c-5.15,2.75-3.19,5.11-3.16,8,0,1.45-1.82,3.44,3,4.76l.2.05v21.63Zm0-144.13v-1.79l.85-.05Zm2.84-6.28h-.15l.21-.16Z" transform="translate(-210.66 -24)"/><path class="cls-1" d="M342.38,615.43V604.31a27.14,27.14,0,0,0,4-2.67c6.42-5,1.41-9.65-1.06-15-1.05-2.32-2-4.62-2.93-6.92V540c2.49-1.7,6.18-3.27,6.62-5.21.58-2.64-3.78-4.45-4.83-7-5.57-13.52,13.59-25.12,6.56-37.95-4.25-7.77-7.32-14.62-7.94-22.65-.21-2.79-.24-5.64-.41-8.47V424.38c1.08-2.2,2.08-4.39,3-6.49,3.4-7.53-1.82-14.4-3-21.09v-4.9a10.18,10.18,0,0,1,1.29-3.16c1.4-2.26,5.21-5.81,5-8.25-.14-1.75-2.52-3.55-3.31-5.28a13.92,13.92,0,0,0,.94-4.44c2.08-3.3,5.51-4.69,3.34-9.62a30.52,30.52,0,0,1-5.57-1.11c-.12-.29-.17-.59-.26-.88a73.49,73.49,0,0,1,6.15-4.63,39.44,39.44,0,0,0-3.66-2.18c6.74-3.62,8.85-9.58,1.9-13.76a7.22,7.22,0,0,0,.62-3.67c-.35-3.3-3.92-5.88-6.44-8.69V325c1.88-3.68,2.78-6.64,10.87-9.37-1.06-.63-2.05-1.23-3-1.83,4.19-3.5,1.32-11.79-7.65-14a1.4,1.4,0,0,0,.09-.32c.41-1.08.91-2.1,1.41-3.12,6.44-3.74,6.74-6.91,4.22-10.39a14.83,14.83,0,0,0,.32-5.49c-1.23-9-2.46-18.25-3.25-27.78a25.5,25.5,0,0,1,0-2.58c1.17-2.11,2.46-4.22,2.37-6.42a6.46,6.46,0,0,0-1.47-3.64c.59-5.74.41-11.47-3.92-16.73v-.28q.92-2.23,1.76-4.47c1.05-.15,2.17.06,3.16-.17-1.26-2.88-3-6-2-9.12.24-.37,2.46,0,2.9,0-3.4-3-1-4.5,6.21-4-1.87-.83-3-2.86-4.77-3.79,8.2-2.31,2.66-14.21-2.08-18.6A42.86,42.86,0,0,0,350.81,172c.79-6.53,0-9.23-8.44-9.58v-8.72h-7.91l.09-.18c-.47.08-1,.12-1.43.18H318.94v.57c-1,0-2-.07-3-.13.67,5.14,2.93,9.27,2.34,13.71-5.1,5.14-5.1,10.69-3.87,16.42,0,1.74.09,3.54.09,5.56-.06,6.92.79,13.88.12,20.82-.32,3.67-2.9,7.91-.18,11.45a7.46,7.46,0,0,0,1.41,1.21,96.25,96.25,0,0,0,3,20.14v4.39c-.58.43-1.17.88-1.78,1.28-9.23,5.89-10.61,9.46-9.61,17.37,2.26,18-8.44,37.85,4.51,55.32,2.58,3.5,4.69,6.72,6.88,10v28.88c-1.55,1.49-2.37,3-.91,4.66-16.87.81-12.92,17.11-9.08,22.42,1.06.23,2.05,0,3.17.17.5,5.73,4,18.12-1.17,22,3.23,1.93,4.81,4.26,8,5.91V423c-4.86,2.35-11.92,4-14.77,6.9,12.25,1.89,12.42,9,12.19,13.08-.09,1.83-1.35,4.7-1.73,7.46a7.14,7.14,0,0,1-2.14.28c-1.38,2.4-.38,4.63-.09,7a8,8,0,0,1-1.32-.38c-1.61,3.49.85,6.26,7.85,7.29v2.07c-3.34,3.69-8.35,6.45-8.64,10.55-.29,4.31,4.42,9,5.54,13.38a13.91,13.91,0,0,0,3.1,5.87v21.09c-5.15,7.79-3.19,14.49-3.16,22.81,0,4.12-1.82,9.76,3,13.49a1.2,1.2,0,0,0,.2.15v61.34Zm0-408.8v-5.07l.85-.15Zm2.84-17.8-.15,0c.06-.15.15-.3.21-.45Z" transform="translate(-210.66 -24)"/><path class="cls-1" d="M435.23,744V726.69a30.15,30.15,0,0,0,4-4.15c6.42-7.82,1.41-15-1.06-23.32-1.05-3.61-2-7.19-2.93-10.76V626.6c2.49-2.65,6.18-5.08,6.62-8.11.58-4.11-3.78-6.92-4.83-10.89-5.57-21,13.59-39.09,6.56-59.05-4.25-12.1-7.32-22.75-7.94-35.25-.21-4.34-.24-8.77-.41-13.19V446.69c1.08-3.42,2.08-6.83,3-10.1,3.4-11.71-1.82-22.42-3-32.81v-7.62a21.54,21.54,0,0,1,1.29-4.91c1.4-3.51,5.21-9,5-12.83-.14-2.73-2.52-5.52-3.31-8.22a32.34,32.34,0,0,0,.94-6.9c2.08-5.14,5.51-7.29,3.34-15-2.37-.18-3.75-1.17-5.57-1.73-.12-.45-.17-.91-.26-1.37,2.05-2.36,3.75-5,6.15-7.2a40.79,40.79,0,0,0-3.66-3.4c6.74-5.64,8.85-14.91,1.9-21.42a16.91,16.91,0,0,0,.62-5.72c-.35-5.14-3.92-9.15-6.44-13.52v-1.87c1.88-5.73,2.78-10.34,10.87-14.58-1.06-1-2.05-1.92-3-2.85,4.19-5.45,1.32-18.35-7.65-21.81a3.19,3.19,0,0,0,.09-.5c.41-1.68.91-3.26,1.41-4.86,6.44-5.82,6.74-10.75,4.22-16.17a35.63,35.63,0,0,0,.32-8.54c-1.23-14-2.46-28.4-3.25-43.23-.09-1.32,0-2.67,0-4,1.17-3.28,2.46-6.57,2.37-10a13.57,13.57,0,0,0-1.47-5.66c.59-8.93.41-17.86-3.92-26v-.43q.92-3.48,1.76-7c1.05-.23,2.17.1,3.16-.26-1.26-4.49-3-9.34-2-14.19.24-.58,2.46.08,2.9,0-3.4-4.62-1-7,6.21-6.17-1.87-1.29-3-4.44-4.77-5.9,8.2-3.6,2.66-22.11-2.08-28.94a96.25,96.25,0,0,0,3.25-17c.79-10.16,0-14.36-8.44-14.91V25.47h-7.91l.09-.28c-.47.13-1,.18-1.43.28H411.79v.89c-1-.06-2-.11-3-.2.67,8,2.93,14.43,2.34,21.34-5.1,8-5.1,16.63-3.87,25.55,0,2.71.09,5.51.09,8.66-.06,10.77.79,21.6.12,32.4-.32,5.71-2.9,12.31-.18,17.81a9.75,9.75,0,0,0,1.41,1.88,228.15,228.15,0,0,0,3,31.33V172c-.58.67-1.17,1.36-1.78,2-9.23,9.16-10.61,14.72-9.61,27,2.26,28.06-8.44,58.9,4.51,86.09,2.58,5.45,4.69,10.45,6.88,15.54v44.94c-1.55,2.32-2.37,4.69-.91,7.25C394,356.09,398,381.44,401.8,389.7c1.06.36,2.05,0,3.17.26.5,8.91,4,28.2-1.17,34.21,3.23,3,4.81,6.62,8,9.19v11.23c-4.86,3.65-11.92,6.2-14.77,10.73,12.25,2.94,12.42,14,12.19,20.35-.09,2.85-1.35,7.31-1.73,11.6a4.79,4.79,0,0,1-2.14.43c-1.38,3.73-.38,7.21-.09,10.94a6,6,0,0,1-1.32-.6c-1.61,5.44.85,9.74,7.85,11.35v3.23c-3.34,5.75-8.35,10-8.64,16.42-.29,6.7,4.42,13.95,5.54,20.83a27.11,27.11,0,0,0,3.1,9.14v32.81c-5.15,12.13-3.19,22.55-3.16,35.5,0,6.4-1.82,15.19,3,21a1.39,1.39,0,0,0,.2.23V744Zm0-636.17V99.93l.85-.24Zm2.84-27.7-.15.06c.06-.24.15-.47.21-.7Z" transform="translate(-210.66 -24)"/><path class="cls-1" d="M510.3,461.14v-3.92c1.46-.28,2.69-.59,4-.94,6.42-1.77,1.41-3.4-1.06-5.28-1.05-.82-2-1.63-2.93-2.44v-14c2.49-.6,6.18-1.15,6.62-1.84.59-.93-3.78-1.57-4.83-2.47-5.57-4.77,13.59-8.86,6.56-13.38-4.25-2.74-7.32-5.15-7.94-8-.21-1-.24-2-.41-3v-12.1c1.08-.77,2.08-1.55,3-2.29,3.4-2.65-1.82-5.08-3-7.43v-1.73a3.57,3.57,0,0,1,1.29-1.11c1.4-.8,5.21-2,5-2.91-.14-.62-2.52-1.25-3.31-1.86a2.6,2.6,0,0,0,.94-1.56c2.08-1.16,5.51-1.65,3.34-3.39-2.37,0-3.75-.26-5.57-.39a2.63,2.63,0,0,1-.26-.31c2.05-.53,3.75-1.12,6.15-1.63-1.08-.27-2.37-.52-3.66-.77,6.74-1.28,8.85-3.38,1.9-4.85.5-.42.76-.85.61-1.3-.35-1.16-3.92-2.07-6.44-3.06v-.42c1.88-1.3,2.78-2.34,10.87-3.3-1.06-.22-2.05-.43-3-.65,4.19-1.23,1.32-4.16-7.65-4.94.06,0,.06-.07.09-.11a15.56,15.56,0,0,1,1.41-1.1c6.44-1.32,6.74-2.43,4.22-3.66a2,2,0,0,0,.32-1.93,74.83,74.83,0,0,1-3.25-9.79,3.19,3.19,0,0,1,0-.91c1.17-.74,2.46-1.49,2.37-2.26-.06-.48-.65-.9-1.47-1.28.59-2,.41-4-3.92-5.9v-.1q.92-.79,1.76-1.58c1.05-.05,2.17,0,3.16-.06-1.26-1-3-2.12-2-3.22a26.79,26.79,0,0,1,2.9,0c-3.4-1-1-1.58,6.21-1.4-1.87-.29-3-1-4.77-1.34,8.2-.82,2.66-5-2.08-6.56,1.49-1.28,2.81-2.57,3.25-3.86.79-2.3,0-3.25-8.44-3.38v-3.07h-7.91l.09-.06-1.43.06H486.86v.2l-3,0c.67,1.81,2.93,3.27,2.34,4.83-5.1,1.81-5.1,3.77-3.87,5.79,0,.61.09,1.25.09,2-.06,2.44.79,4.89.12,7.34-.32,1.29-2.9,2.79-.18,4a10.45,10.45,0,0,0,1.41.43,15.06,15.06,0,0,0,3,7.1v1.55c-.59.15-1.17.31-1.79.45-9.23,2.08-10.61,3.34-9.61,6.12,2.26,6.36-8.44,13.34,4.51,19.51,2.58,1.23,4.69,2.37,6.89,3.52v10.18c-1.55.53-2.37,1.06-.91,1.64-16.87.29-12.92,6-9.08,7.9,1.06.08,2.05,0,3.17.06.5,2,4,6.39-1.17,7.75,3.23.68,4.81,1.5,8,2.08v2.54c-4.86.83-11.92,1.4-14.77,2.43,12.25.67,12.42,3.18,12.19,4.61-.09.65-1.35,1.66-1.73,2.63a19.7,19.7,0,0,1-2.14.1c-1.38.85-.38,1.63-.09,2.48-.38,0-.79-.06-1.32-.14-1.61,1.23.85,2.21,7.85,2.57v.73c-3.34,1.3-8.35,2.27-8.64,3.72s4.42,3.16,5.54,4.72a7,7,0,0,0,3.11,2.07v7.43c-5.15,2.75-3.19,5.11-3.16,8,0,1.45-1.82,3.44,3,4.76l.2.05v21.63Zm0-144.13v-1.79l.85-.05Zm2.84-6.28H513l.21-.16Z" transform="translate(-210.66 -24)"/><path class="cls-1" d="M593.28,615.43V604.28a27.13,27.13,0,0,0,4-2.67c6.42-5,1.41-9.67-1.06-15-1.05-2.32-2-4.63-2.93-6.93V539.83c2.49-1.7,6.18-3.27,6.62-5.22.59-2.64-3.78-4.46-4.83-7-5.57-13.55,13.59-25.17,6.56-38-4.25-7.79-7.32-14.65-7.94-22.7-.21-2.79-.24-5.65-.41-8.49V424c1.08-2.2,2.08-4.4,3-6.51,3.4-7.54-1.82-14.43-3-21.13v-4.91a10.21,10.21,0,0,1,1.29-3.16c1.4-2.26,5.21-5.82,5-8.26-.14-1.76-2.52-3.56-3.31-5.29a14,14,0,0,0,.94-4.45c2.08-3.31,5.51-4.7,3.34-9.64a30.47,30.47,0,0,1-5.57-1.12c-.12-.29-.17-.59-.26-.88a73.49,73.49,0,0,1,6.15-4.64,39.44,39.44,0,0,0-3.66-2.19c6.74-3.63,8.85-9.6,1.91-13.79a7.25,7.25,0,0,0,.61-3.68c-.35-3.31-3.92-5.89-6.44-8.71v-1.2c1.88-3.69,2.78-6.66,10.87-9.39-1.06-.63-2.05-1.24-3-1.83,4.19-3.51,1.32-11.81-7.65-14a1.41,1.41,0,0,0,.09-.32c.41-1.08.91-2.1,1.41-3.13,6.44-3.75,6.74-6.92,4.22-10.41a14.89,14.89,0,0,0,.32-5.5c-1.23-9-2.46-18.29-3.25-27.84a25.61,25.61,0,0,1,0-2.59c1.17-2.11,2.46-4.23,2.37-6.43a6.48,6.48,0,0,0-1.47-3.65c.59-5.75.41-11.5-3.92-16.76v-.28q.92-2.24,1.76-4.48c1.05-.15,2.17.06,3.16-.17-1.26-2.89-3-6-2-9.14.24-.37,2.46,0,2.9,0-3.4-3-1-4.5,6.21-4-1.87-.83-3-2.86-4.77-3.8,8.2-2.32,2.66-14.23-2.08-18.63a43,43,0,0,0,3.25-11c.79-6.54,0-9.25-8.44-9.6v-8.73h-7.91l.09-.18c-.47.08-1,.12-1.43.18H569.85v.58c-1,0-2-.07-3-.13.67,5.15,2.93,9.29,2.34,13.74-5.1,5.15-5.1,10.71-3.87,16.45,0,1.74.09,3.55.09,5.57-.06,6.94.79,13.91.12,20.86-.32,3.68-2.9,7.93-.18,11.47a7.46,7.46,0,0,0,1.41,1.21,96.63,96.63,0,0,0,3,20.18v4.4c-.59.43-1.17.88-1.78,1.28-9.23,5.9-10.61,9.48-9.61,17.41,2.26,18.07-8.44,37.93,4.51,55.44,2.58,3.51,4.69,6.73,6.89,10v28.94c-1.55,1.49-2.37,3-.91,4.67-16.87.82-12.92,17.14-9.08,22.46,1.06.23,2.05,0,3.16.17.5,5.74,4,18.16-1.17,22,3.22,1.93,4.81,4.27,8,5.92v7.23c-4.86,2.35-11.92,4-14.77,6.91,12.25,1.89,12.42,9,12.19,13.1-.09,1.83-1.35,4.71-1.73,7.47a7.13,7.13,0,0,1-2.14.28c-1.38,2.4-.38,4.64-.09,7a8,8,0,0,1-1.32-.38c-1.61,3.5.85,6.27,7.85,7.31v2.08c-3.34,3.7-8.35,6.46-8.64,10.57-.29,4.32,4.42,9,5.54,13.41a14,14,0,0,0,3.1,5.89v21.13c-5.15,7.81-3.19,14.52-3.16,22.86,0,4.12-1.82,9.78,3,13.51a1.2,1.2,0,0,0,.2.15v61.46Zm0-409.65V200.7l.85-.15Zm2.84-17.84-.15,0c.06-.15.15-.3.21-.45Z" transform="translate(-210.66 -24)"/><path class="cls-1" d="M677.44,744V726.66a30.17,30.17,0,0,0,4-4.16c6.42-7.83,1.41-15-1.06-23.36-1.05-3.62-2-7.2-2.93-10.78v-62c2.49-2.65,6.18-5.09,6.62-8.13.58-4.11-3.78-6.93-4.83-10.91-5.57-21.08,13.59-39.15,6.56-59.15-4.25-12.12-7.32-22.78-7.94-35.31-.21-4.34-.24-8.79-.41-13.21V446.19c1.08-3.43,2.08-6.84,3-10.12,3.4-11.73-1.82-22.45-3-32.87v-7.63a21.61,21.61,0,0,1,1.29-4.92c1.4-3.52,5.21-9.06,5-12.85-.14-2.73-2.52-5.53-3.31-8.23a32.45,32.45,0,0,0,.94-6.91c2.08-5.15,5.51-7.3,3.34-15-2.37-.18-3.75-1.17-5.57-1.74-.12-.45-.17-.91-.26-1.37,2.05-2.36,3.75-5,6.15-7.21a40.82,40.82,0,0,0-3.66-3.4c6.74-5.65,8.85-14.94,1.91-21.45a17,17,0,0,0,.61-5.73c-.35-5.15-3.92-9.17-6.44-13.54v-1.87c1.88-5.74,2.78-10.35,10.87-14.6-1.06-1-2.05-1.92-3-2.85,4.19-5.45,1.32-18.38-7.65-21.85a3.2,3.2,0,0,0,.09-.5c.41-1.69.91-3.27,1.41-4.87,6.44-5.83,6.74-10.77,4.22-16.2a35.75,35.75,0,0,0,.32-8.55c-1.23-14-2.46-28.44-3.25-43.3-.09-1.32,0-2.68,0-4,1.17-3.29,2.46-6.58,2.37-10a13.61,13.61,0,0,0-1.47-5.67c.59-8.94.41-17.89-3.92-26.07v-.43q.92-3.48,1.76-7c1.05-.23,2.17.1,3.16-.26-1.26-4.49-3-9.36-2-14.21.24-.58,2.46.08,2.9,0-3.4-4.63-1-7,6.21-6.18-1.87-1.29-3-4.45-4.77-5.91,8.2-3.61,2.66-22.14-2.08-29a96.55,96.55,0,0,0,3.25-17.05c.79-10.18,0-14.39-8.44-14.93V24.28h-7.91l.09-.28c-.47.13-1,.18-1.43.28H654v.89c-1-.06-2-.11-3-.2.67,8,2.93,14.46,2.34,21.37-5.1,8-5.1,16.66-3.87,25.59,0,2.71.09,5.52.09,8.67-.06,10.79.79,21.63.12,32.46-.32,5.72-2.9,12.33-.18,17.84A9.77,9.77,0,0,0,651,132.8a228.9,228.9,0,0,0,3,31.39V171c-.59.68-1.17,1.37-1.79,2-9.23,9.18-10.61,14.75-9.61,27.08,2.26,28.1-8.44,59,4.51,86.24,2.58,5.46,4.69,10.47,6.89,15.57v45c-1.55,2.32-2.37,4.7-.91,7.26-16.87,1.27-12.92,26.67-9.08,34.94,1.06.36,2.05,0,3.16.26.5,8.93,4,28.25-1.17,34.27,3.23,3,4.81,6.63,8,9.21V444.1c-4.86,3.66-11.92,6.21-14.77,10.75,12.25,2.95,12.42,14,12.19,20.38-.09,2.85-1.35,7.33-1.73,11.62a4.78,4.78,0,0,1-2.14.43c-1.38,3.74-.38,7.22-.09,11a6,6,0,0,1-1.32-.6c-1.61,5.44.85,9.76,7.85,11.36v3.23c-3.34,5.76-8.35,10.05-8.64,16.45-.29,6.71,4.42,14,5.54,20.86a27.19,27.19,0,0,0,3.11,9.16v32.87c-5.15,12.15-3.19,22.59-3.16,35.56,0,6.42-1.82,15.22,3,21a1.39,1.39,0,0,0,.2.23V744Zm0-637.23V98.87l.85-.24ZM680.28,79l-.15.06c.06-.24.15-.47.21-.7Z" transform="translate(-210.66 -24)"/><path class="cls-1" d="M758,615.43V604.28a27.13,27.13,0,0,0,4-2.67c6.42-5,1.41-9.67-1.06-15-1.05-2.32-2-4.63-2.93-6.93V539.83c2.49-1.7,6.18-3.27,6.62-5.22.59-2.64-3.78-4.46-4.83-7-5.57-13.55,13.59-25.17,6.56-38-4.25-7.79-7.32-14.65-7.94-22.7-.21-2.79-.24-5.65-.41-8.49V424c1.08-2.2,2.08-4.4,3-6.51,3.4-7.54-1.82-14.43-3-21.13v-4.91a10.21,10.21,0,0,1,1.29-3.16c1.4-2.26,5.21-5.82,5-8.26-.14-1.76-2.52-3.56-3.31-5.29a14,14,0,0,0,.94-4.45c2.08-3.31,5.51-4.7,3.34-9.64a30.47,30.47,0,0,1-5.57-1.12c-.12-.29-.17-.59-.26-.88a73.49,73.49,0,0,1,6.15-4.64,39.44,39.44,0,0,0-3.66-2.19c6.74-3.63,8.85-9.6,1.91-13.79a7.25,7.25,0,0,0,.61-3.68c-.35-3.31-3.92-5.89-6.44-8.71v-1.2c1.88-3.69,2.78-6.66,10.87-9.39-1.06-.63-2.05-1.24-3-1.83,4.19-3.51,1.32-11.81-7.65-14a1.41,1.41,0,0,0,.09-.32c.41-1.08.91-2.1,1.41-3.13,6.44-3.75,6.74-6.92,4.22-10.41a14.89,14.89,0,0,0,.32-5.5c-1.23-9-2.46-18.29-3.25-27.84a25.6,25.6,0,0,1,0-2.59c1.17-2.11,2.46-4.23,2.37-6.43a6.48,6.48,0,0,0-1.47-3.65c.59-5.75.41-11.5-3.92-16.76v-.28q.92-2.24,1.76-4.48c1.05-.15,2.17.06,3.16-.17-1.26-2.89-3-6-2-9.14.24-.37,2.46,0,2.9,0-3.4-3-1-4.5,6.21-4-1.87-.83-3-2.86-4.77-3.8,8.2-2.32,2.66-14.23-2.08-18.63a43,43,0,0,0,3.25-11c.79-6.54,0-9.25-8.44-9.6v-8.73H750l.09-.18c-.47.08-1,.12-1.43.18H734.52v.58c-1,0-2-.07-3-.13.67,5.15,2.93,9.29,2.34,13.74-5.1,5.15-5.1,10.71-3.87,16.45,0,1.74.09,3.55.09,5.57-.06,6.94.79,13.91.12,20.86-.32,3.68-2.9,7.93-.18,11.47a7.47,7.47,0,0,0,1.41,1.21,96.62,96.62,0,0,0,3,20.18v4.4c-.59.43-1.17.88-1.79,1.28-9.23,5.9-10.61,9.48-9.61,17.41,2.26,18.07-8.44,37.93,4.51,55.44,2.58,3.51,4.69,6.73,6.89,10v28.94c-1.55,1.49-2.37,3-.91,4.67-16.87.82-12.92,17.14-9.08,22.46,1.06.23,2.05,0,3.16.17.5,5.74,4,18.16-1.17,22,3.22,1.93,4.81,4.27,8,5.92v7.23c-4.86,2.35-11.92,4-14.77,6.91,12.25,1.89,12.42,9,12.19,13.1-.09,1.83-1.35,4.71-1.73,7.47a7.13,7.13,0,0,1-2.14.28c-1.38,2.4-.38,4.64-.09,7a8,8,0,0,1-1.32-.38c-1.61,3.5.85,6.27,7.85,7.31v2.08c-3.34,3.7-8.35,6.46-8.64,10.57-.29,4.32,4.42,9,5.54,13.41a14,14,0,0,0,3.1,5.89v21.13c-5.15,7.81-3.19,14.52-3.16,22.86,0,4.12-1.82,9.78,3,13.51a1.19,1.19,0,0,0,.2.15v61.46Zm0-409.65V200.7l.85-.15Zm2.84-17.84-.15,0c.06-.15.15-.3.21-.45Z" transform="translate(-210.66 -24)"/><path class="cls-1" d="M840.3,486.86V481.7a38.45,38.45,0,0,0,4-1.24c6.42-2.33,1.41-4.48-1.06-6.95-1.05-1.08-2-2.14-2.93-3.21V451.88c2.49-.79,6.18-1.51,6.62-2.42.58-1.22-3.78-2.06-4.83-3.24-5.57-6.27,13.59-11.65,6.56-17.6-4.25-3.6-7.32-6.78-7.94-10.5-.21-1.29-.24-2.61-.41-3.93V398.27c1.08-1,2.08-2,3-3,3.4-3.49-1.82-6.68-3-9.78v-2.27a4.1,4.1,0,0,1,1.29-1.46c1.4-1,5.21-2.69,5-3.82-.14-.81-2.52-1.65-3.31-2.45a3.76,3.76,0,0,0,.94-2.06c2.08-1.53,5.51-2.17,3.34-4.46-2.37-.05-3.75-.35-5.57-.52a3.39,3.39,0,0,1-.26-.41c2.05-.7,3.75-1.48,6.15-2.15-1.08-.35-2.37-.68-3.66-1,6.74-1.68,8.85-4.44,1.91-6.38a1.87,1.87,0,0,0,.61-1.7c-.35-1.53-3.92-2.73-6.44-4v-.56c1.88-1.71,2.78-3.08,10.87-4.34-1.06-.29-2.05-.57-3-.85,4.19-1.62,1.32-5.47-7.65-6.5.06-.05.06-.1.09-.15a17.08,17.08,0,0,1,1.41-1.45c6.44-1.74,6.74-3.2,4.22-4.82a3.35,3.35,0,0,0,.32-2.54,121.3,121.3,0,0,1-3.25-12.88,5.5,5.5,0,0,1,0-1.2c1.17-1,2.46-2,2.37-3-.06-.64-.64-1.18-1.47-1.69.59-2.66.41-5.32-3.92-7.76v-.13q.92-1,1.76-2.07c1.05-.07,2.17,0,3.16-.08-1.26-1.34-3-2.78-2-4.23a20.38,20.38,0,0,1,2.9,0c-3.4-1.38-1-2.08,6.21-1.84-1.87-.38-3-1.32-4.77-1.76,8.2-1.07,2.66-6.59-2.08-8.62a13.65,13.65,0,0,0,3.25-5.07c.79-3,0-4.28-8.44-4.44v-4h-7.91l.09-.08c-.47,0-1,.05-1.43.08H816.86V273l-3-.06c.67,2.38,2.93,4.3,2.34,6.36-5.1,2.38-5.1,5-3.87,7.61,0,.81.09,1.64.09,2.58-.06,3.21.79,6.44.12,9.65-.32,1.7-2.9,3.67-.18,5.31a8.7,8.7,0,0,0,1.41.56,23.44,23.44,0,0,0,3,9.34v2c-.59.2-1.17.41-1.79.59-9.23,2.73-10.61,4.39-9.61,8.05,2.26,8.36-8.44,17.55,4.51,25.65,2.58,1.62,4.69,3.11,6.89,4.63v13.39c-1.55.69-2.37,1.4-.91,2.16-16.87.38-12.92,7.93-9.08,10.39,1.06.11,2.05,0,3.16.08.5,2.66,4,8.4-1.17,10.19,3.22.9,4.81,2,8,2.74v3.35c-4.86,1.09-11.92,1.85-14.77,3.2,12.25.88,12.42,4.18,12.19,6.06-.09.85-1.35,2.18-1.73,3.46a15,15,0,0,1-2.14.13c-1.38,1.11-.38,2.15-.09,3.26-.38,0-.79-.08-1.32-.18-1.61,1.62.85,2.9,7.85,3.38v1c-3.34,1.71-8.35,3-8.64,4.89s4.42,4.16,5.54,6.21a7.27,7.27,0,0,0,3.11,2.72v9.78c-5.15,3.61-3.19,6.72-3.16,10.58,0,1.91-1.82,4.53,3,6.25l.2.07v28.44Zm0-189.55V295l.85-.07Zm2.84-8.25-.15,0,.21-.21Z" transform="translate(-210.66 -24)"/></svg>