<svg id="Layer_1" data-name="Layer 1" xmlns="http://www.w3.org/2000/svg" viewBox="0 0 579.08 988.28"><defs><style>.cls-1{fill:#f2f2f2;}.cls-2{fill:#d61d1d;}.cls-3{fill:#333;}</style></defs><title>logo</title><path class="cls-1" d="M680.79,719.85A314.77,314.77,0,0,1,677.62,762c-1,2.85-2,6.08-3.07,9.74q-.51,1.72-1,3.42c-.3,1.14-.7,2.25-1,3.37q-1,3.36-1.89,6.7l-.84,3.35c-.27,1.12-.63,2.21-.93,3.32q-.93,3.32-1.78,6.68c-2.35,8.93-4.91,18-8.34,27.51-.68,2.09-1.55,4.11-2.37,6.14l-2.48,6.08c-.42,1-.8,2-1.26,3l-1.39,3-2.78,5.93c-1.37,2.83-3,5.52-4.57,8.25l-2.35,4.09-1.18,2-1.27,2L634,874.51c-.82,1.34-1.75,2.61-2.66,3.89l-2.74,3.85-2.73,3.85c-.89,1.3-1.92,2.49-2.88,3.74l-5.83,7.42L611,904.4c-1,1.18-2,2.39-3.1,3.55l-3.26,3.41A275.37,275.37,0,0,1,577,937l-7.42,5.83c-1.21,1-2.54,1.86-3.81,2.78L562,948.38l-3.85,2.74c-1.29.89-2.64,1.71-4,2.57l-7.95,5.09c-3,1.25-6,2.35-8.95,3.57-1.51.59-3,1.3-4.56,1.92s-3.18,1.34-4.83,2.14c-2.24,1.09-4.25,2.18-6.15,3.29s-3.77,2-5.59,3.05l-5.51,3.13c-1.9,1-3.95,1.95-6.15,2.93l-4.4,1.9c-1.46.63-2.92,1.25-4.41,1.76q-4.45,1.59-8.86,3.09l-2.2.74-2.23.63-4.45,1.22-4.42,1.18-2.2.58-2.22.46c-5.93,1.19-11.77,2.46-17.67,3.13l-4.4.6c-1.47.18-2.91.44-4.39.52l-8.77.71c-1.46.11-2.91.25-4.36.34l-4.37.14-8.72.3c-2.91,0-5.82-.06-8.72-.06s-5.82.07-8.73-.14c-5.82-.3-11.68-.33-17.56-.86-2.94-.21-5.91-.33-8.88-.55s-5.95-.56-9-.8l-2.73-.21c-.91-.06-1.81-.14-2.7-.28l-5.34-.7c-3.54-.49-7.07-.84-10.5-1.57L332,989l-10.15-2.5a244.13,244.13,0,0,1-40.68-14.72c-2.39-1.13-4.74-2.37-7.13-3.57l-3.58-1.82-1.79-.91c-.59-.31-1.17-.66-1.76-1l-7-4c-1.17-.68-2.35-1.32-3.51-2l-3.41-2.17-6.86-4.4c-2.26-1.51-4.44-3.13-6.67-4.69l-3.32-2.36-1.66-1.18-1.6-1.26-6.41-5c-1.06-.85-2.16-1.65-3.18-2.55l-3.08-2.67L214,926.81l-5.91-5.61c-2-1.89-4-3.7-5.81-5.71a286.66,286.66,0,0,1-39.93-51.38L156.56,853l-5.12-11c-.78-1.6-1.41-3.26-2.1-4.88l-2.06-4.84c-.68-1.6-1.41-3.18-2.06-4.77l-1.87-4.8-1.9-4.74-1-2.35c-.3-.79-.57-1.59-.85-2.37l-3.41-9.4c-.61-1.54-1-3.14-1.54-4.7l-1.48-4.68-1.48-4.65c-.45-1.56-.84-3.13-1.26-4.69-.82-3.12-1.66-6.23-2.43-9.33l-1.88-9.37c-.26-1.53-.57-3-.79-4.58l-.59-4.61c-.38-3.08-.8-6.15-1.15-9.23-.22-4-.4-8-.48-12-.1-2.14.11-4.6.19-7.21l.36-8.17c.17-2.79.47-5.59.64-8.27s.28-5.24.39-7.53c.5-6.59,0-13.44.74-20,.48-2.85.84-5.68,1.35-8.44s1.06-5.45,1.54-8.1l1-4.26c.38-1.32.79-2.57,1.16-3.78.76-2.43,1.48-4.72,2.2-7.21s1.6-5.13,2.49-8.3,1.78-6.87,3.19-11.3c-.61-.66-.28-3.07-.41-4.58l1-3.19c.32-.65.61-1.32.95-2l1-2,2.09-4,2.09-3.91,1-1.89,1.12-1.78c.85-2.75,1.57-5.39,2.28-8,1.84-2.92,4.19-6.18,6.41-9.84l1.69-2.78.84-1.43.92-1.41c1.22-1.9,2.43-3.85,3.62-5.84,2.29-4,4.87-7.94,7.1-11.88s4.49-7.66,6.27-11.23c2.65-3.6,5.62-7.09,8.54-10.91l2.75-3.63q1.4-1.72,2.71-3.39c1.75-2.23,3.39-4.41,5-6.56l4.93-6.17,2.46-3.08,1.24-1.55L205.4,521l3.3-3.15a185.4,185.4,0,0,1,14.92-12c2.38-1.7,4.83-3.12,7.2-4.49q1.79-1,3.58-1.91l1.79-.87c.61-.26,1.24-.5,1.86-.74l5-4.79c1.46-.79,3.06-1.86,4.91-2.92s3.84-2.26,5.92-3.56c4.1-2.69,8.77-5.35,13.2-8.16,1.12-.69,2.19-1.44,3.3-2.07l3.25-1.93c2.12-1.28,4.12-2.54,5.93-3.75s3.5-2.23,4.9-3.23a28.5,28.5,0,0,0,3.37-2.65l1.13-.48c3.77-1.65,7.44-2.81,11.13-4.1q2.62-.6,5.11-1.25c1.66-.42,3.33-.74,4.94-1.15,3.24-.77,6.34-1.65,9.4-2.55s6.14-1.64,9.18-2.58c1.53-.45,3-1,4.59-1.42s3.11-.89,4.69-1.36l4.88-1,2.47-.54c.83-.17,1.68-.29,2.52-.44,3.39-.58,6.85-1.21,10.44-1.9a278.84,278.84,0,0,1,104.32,2.38c3.12.72,6.35,1.4,9.51,2.24,3.79,1.28,7.57,2.57,11.4,3.81s7.59,2.82,11.52,4.12l1.81.6,1.73.65,3.31,1.19c2.15.75,4.18,1.43,6.14,2.06,1.27.48,2.5,1.05,3.73,1.63l3.69,1.7c2.45,1.15,4.94,2.2,7.36,3.4l7.19,3.65,3.59,1.79c1.18.62,2.33,1.29,3.5,1.93l7,3.8,1.73.93,1.68,1,3.35,2,6.68,3.86q3.23,2,6.43,4l.85.61,3.37,2.58c1.1.88,2.17,1.82,3.25,2.72l6.49,5.47c.22.62-.64.41-.17,1.2,8.55,6.72,17.85,14.15,25.62,23.06.91,1.07-.72.43-.63.74q1.6,1.37,3,2.63a28.39,28.39,0,0,1,2.42,2.41,33.33,33.33,0,0,1,3.18,4c1.43,2.2,1.42,3.41-.14,3.43,2.6,1.85,7.52,7.67,10.19,10.07,1.65,4.23,9.27,15.11,16.92,27.18s14.81,25.62,18.92,32.88a378.85,378.85,0,0,1,12.14,39.36l1.85,8.34c.57,2.57,1.17,4.91,1.52,7.09.81,4.35,1.54,7.89,2.24,10.7,1.16,5.66,2.25,8.43,3.74,8.93.82,5.46,1.05,11,1.52,16.48.27,2.75.27,5.51.35,8.27l.21,8.28h2.64v.7a7,7,0,0,1,.46-.7h4.73l-.06-2.24a5.61,5.61,0,0,1,1,.49l-.29-7.37c-.13-2.4-.14-4.75-.42-7-.47-4.6-.85-9-1.36-13.37l-1.85-12.78c-.72-4.21-1.53-8.39-2.23-12.67-.18-2.53-.66-5-1.05-7.56s-.87-5.09-1.34-7.66-1.2-5.11-1.83-7.69-1.31-5.18-2.05-7.77l-2.54-7.74c-.88-2.58-1.7-5.21-2.78-7.76-2.09-5.11-4.05-10.34-6.57-15.38l-2.14-4.71c-.73-1.59-1.43-3.22-2.29-4.81L655.59,583c-1.62-3-3.37-5.9-5.05-8.85-.86-1.47-1.68-3-2.58-4.4l-2.77-4.29-2.77-4.29c-.92-1.43-1.83-2.87-2.85-4.24l-5.95-8.31c-1-1.41-2.06-2.72-3.1-4.06l-3.17-4-3.16-4-3.34-3.87c-2.25-2.56-4.41-5.2-6.72-7.7l-7-7.44c-.62-.65-1.22-1.33-1.87-2l-2-1.94-4-4c-1.36-1.33-2.69-2.72-4.1-4l-4.3-3.86c-2.88-2.56-5.72-5.15-8.74-7.37s-5.88-4.48-8.8-6.36c-1.49-.93-2.79-1.61-4.14-2.37a270,270,0,0,0-69.91-35.78l-8.12-2.75-4.06-1.37c-1.37-.41-2.75-.79-4.12-1.18l-4.65-1.94a154.79,154.79,0,0,0-29.82-9.5c-2.52-.62-5.14-1-7.88-1.41s-5.59-.82-8.61-1.22-6.23-.52-9.65-.79l-5.3-.37c-1.83-.09-3.72-.08-5.67-.12A328.1,328.1,0,0,0,357,432.29a287,287,0,0,0-54.1,13.22,259.78,259.78,0,0,0-50,23.73A232.27,232.27,0,0,0,211.06,502l-3.66,3.59c-1.18,1.22-2.3,2.46-3.44,3.67-2.26,2.44-4.52,4.81-6.68,7.21-4.16,5-8.43,9.68-12.23,14.84a286.8,286.8,0,0,0-55.74,97.2,77.62,77.62,0,0,0-5.56,17.33c-3.16.76-8.55,16.94-11.22,36l-1,7.21c-.28,2.43-.39,4.88-.58,7.3l-.46,7.21c-.09,1.18-.08,2.36-.09,3.53v10c0,1.05,0,2.08,0,3.08l.18,2.92c.24,3.78.49,7.07.71,9.68.38.89.68-.14,1.07.61,0,1.41.19,2.91.32,4.51l.44,5,.49,5.46c.16,1.88.51,3.81.76,5.79l.85,6,.43,3.09c.14,1,.38,2.06.56,3.1.81,4.14,1.54,8.36,2.39,12.49,3.44,16.55,8.48,31.71,10.15,39.2,3.68,6.76,7.49,15.06,11.25,20.43,1,2.13,1.9,4.29,2.93,6.4l3.21,6.27c1.09,2.08,2.1,4.2,3.25,6.25L153,863.6c.8,2.18,1.44,4.27,2.12,6.29l2.17,6c.75,2,1.56,4.09,2.53,6.3s2.27,4.44,3.75,6.94a16.82,16.82,0,0,1,3.25,2.24c1.19,1,2.48,2.26,3.95,3.61s3,2.92,4.53,4.58l2.38,2.59,1.21,1.35,1.29,1.33c1.72,1.79,3.46,3.65,5.17,5.52l2.56,2.82c.85.93,1.76,1.81,2.62,2.7l5,5.19,2.31,2.43,2.25,2.16,4.34,4.25c1.59,1.56,3.26,3.32,5.16,5l5.82,5.29c1,.89,2,1.83,3,2.69l3.16,2.56c.43.62.65,1.09.41,1.23,1.78,1.55,3.57,3,5.36,4.48s3.7,2.7,5.55,4l5.65,3.9c.94.67,1.92,1.27,2.91,1.88l3,1.86a8.78,8.78,0,0,1-1.51-.45c2.82,2,5.55,3.77,8.11,5.37s5.11,2.76,7.37,3.81a42.9,42.9,0,0,0,6,2.38,15.3,15.3,0,0,0,4.46.63l7.21,3.69c3.12,1.82,6.1,3.44,9,5.1,1.44.82,2.86,1.65,4.29,2.44l4.37,2.2c2.94,1.44,5.92,3,9.17,4.33s6.75,2.61,10.58,3.93c2,.74,4.09,1.23,6.17,1.81s4.2,1.1,6.33,1.63l3.2.78,3.26.62,6.54,1.2c4.35.89,8.8,1.31,13.17,1.92,2.2.26,4.37.64,6.55.84l6.51.64c2.5.26,4.79.49,6.92.68l6,.22,5.26.12c1.67,0,3.26.08,4.83,0l10.29.26,2.57.06c.86,0,1.71,0,2.57,0l5.14-.13,5.14-.13c.86,0,1.72,0,2.57-.08l2.57-.19,10.26-.78c1.71-.09,3.41-.38,5.11-.57l5.11-.65,5.11-.65c1.7-.25,3.38-.59,5.07-.88,3.38-.62,6.76-1.18,10.13-1.84l10-2.31c3.78-.56,7.39-1.55,11-2.39L486.3,995c1.77-.45,3.5-1,5.24-1.56l5.18-1.63,2.58-.83,1.29-.42,1.26-.48,10.1-3.89a295.05,295.05,0,0,0,40.42-20.81c3.39-2.19,7.15-4.49,11-7s7.65-5.31,11.4-8.12,7.3-5.81,10.59-8.71,6.14-5.89,8.62-8.56c.15-.16.24-.26.38-.42A289.22,289.22,0,0,0,664,836.18,286.16,286.16,0,0,0,688.6,719.85ZM611,535.26c2.09,2.43,4.22,4.84,6.29,7.3l6,7.58.14.63-6-7.89C615.28,540.3,613.11,537.8,611,535.26Zm37.36,56s0-.09,0-.15l.72,1.56Z" transform="translate(-110.45 -18.67)"/><polygon class="cls-2" points="291.11 2.33 303.49 268.66 291.11 801.3 278.74 268.66 291.11 2.33"/><path class="cls-3" d="M401.82,30.31c.78,20.82,1.62,42.08,2.61,63.39s2.1,42.72,2.83,63.61c.89,25.59,1.3,50.58,1.85,75.39.28,12.42.6,24.81,1,37.32l.36,9.41.2,4.72c.05,1.58.19,3.15.1,4.76q-.23,9.61-.36,19.36c-2.11,170.3-4,341.07-7.27,511.73h-3.23q-1.66-60.88-3.06-121.73c-1.68-73.55-4.13-148.39-6.27-223.1q-1.61-56-2.86-111.79-.59-27.83-1-55.48l-.19-13.8-.08-6.89.4-6.95,1.7-27.68c1.6-24.87,2.76-45.55,3.8-66.44l3.3-67.58c.7-13.67,1.81-31.78,2.92-49.89l3-50c-.73,14.49-1.34,28.27-2.16,41.75s-1.84,26.68-2.86,40c-1.17,15.39-2.24,30.85-3.07,46.26s-1.44,30.73-2,45.94c-1,27.51-2.47,55.44-4.07,83.29l-.6,10.43c-.08.87,0,1.73,0,2.59l0,2.58.06,5.15.25,20.48c.18,13.57.39,27,.7,40,2.72,112.56,7.36,232.35,9.17,348.57.63,40.33,2,76.93,3.36,114.25h2.44l.43-39.27c.36-27.61,2.43-52.53,3-79.83.52-26.47-.89-54.51,0-82.88a26.33,26.33,0,0,0,.39,4.63c-3-34.32,1.05-100.89,2.12-145.3,1.19-49.34,2-102,2.18-150.22.05-12.85.24-25.47.53-38,.08-1.57,0-3.11-.09-4.65l-.2-4.62-.38-9.21-.66-18.34c-.81-24.4-1.34-48.77-2.06-73.87-.38-13-1-26.07-1.66-39.08l-1.91-38.87c-1.19-25.8-1.95-51.47-2.88-77.2" transform="translate(-110.45 -18.67)"/><path class="cls-1" d="M334.85,367l-.11.11a3.12,3.12,0,0,0,.84.35C335.27,367.2,335.14,367.2,334.85,367Zm60.68,54.26c.08.21-.07.35-.23.49a1.41,1.41,0,0,1,.22.69,5.87,5.87,0,0,1-1-3A5,5,0,0,0,395.53,421.23Zm-62-55.08c-.06,0-.19,0-.39-.14,0,0-.08-.08-.13-.13S333.38,366.05,333.57,366.15Zm64.05,61.49c-.28.08-.5-1-.79-1.7a29.72,29.72,0,0,1-1.22-3A17.85,17.85,0,0,1,397.62,427.64Zm-66.45-62.77a5.58,5.58,0,0,1,.67.51,6.31,6.31,0,0,1-.85-.47C330.89,364.79,331.08,364.87,331.17,364.87Zm29.44,22.88-.43-.36C360.28,387.31,360.89,387.53,360.6,387.74ZM398.48,432c0,.24,0,.38-.06.45,0-.1,0-.21-.06-.2C398.29,432,398.45,432.1,398.48,432Zm-48-51.49c-.13.11-.34-.1-.53-.26C350.06,380,350.31,380.41,350.49,380.51Zm-11.65-8.72c.2,0,.56.44.83.62C339.46,372.37,339.1,372,338.83,371.78Zm-11-8c-.13-.08-.33-.33-.61-.57C327.16,363.1,327.89,363.78,327.79,363.76Zm5.39,5c0,.07-.11,0-.16,0s.13.17.06.2c-.28-.26-.11-.29-.47-.58A1.48,1.48,0,0,1,333.18,368.74Zm10.05,10c0-.16-.37-.29-.6-.58C342.72,378.07,343.42,378.67,343.23,378.78Zm11.39,12.62-.65-.66C353.88,390.62,354.91,391.15,354.63,391.4Zm1.25,1.77c-.34-.21-1.31-1-1.24-1.39C355.18,392.46,355.79,392.64,355.88,393.17Zm-4.77-2.61a9.69,9.69,0,0,1-1-1.22C350.79,389.82,351.75,390,351.11,390.56Zm-18.2-20.25a1.71,1.71,0,0,1-.55-.5A2.37,2.37,0,0,1,332.91,370.31Zm.67.78c.12,0,.21.3.44.48s-.52-.55-.27-.13c-.29-.23-.27-.21-.46-.19-.25-.56-.73-.64-.89-1.21.41.48.64.76,1,1.11-.17-.29-.14-.27.18.09C333.61,371.2,333.65,371.17,333.58,371.09Zm.69.75c.11,0,.47.45.5.55C334.56,372.28,334.38,372,334.27,371.84Zm12.28,13.44c.06,0,0,.08,0,.12s.33.4.45.6c-.24.11-.5-.51-.73-.59C346.15,385.15,346.49,385.27,346.55,385.28ZM331.24,368.7c.07,0,.31.33.46.46A1.36,1.36,0,0,1,331.24,368.7Zm28.7,31.54c-.35-.45-.72-.53-1.08-1C359.16,399.12,360.09,399.8,359.94,400.24Zm-32.6-35.9c0,.05-.08,0-.24-.16C327.11,364.13,327.17,364.15,327.33,364.34Zm4.53,5.05c.26.23.12.25.33.46-.08,0-.31-.33-.46-.46C331.78,369.41,331.83,369.43,331.86,369.39Zm3.64,4.23c0,.16-.24-.19-.34-.19s.28.34.31.35a7.82,7.82,0,0,0,.46.72c.31.3.23.38,0,0-.18-.13-.11-.13-.34-.32,0,0,.05.11.09.17-.88-.87-1.37-1.57-2.27-2.58a13.92,13.92,0,0,1,1.72,1.56c-.28-.47-.77-.85-1.08-1.28.06,0,0-.14,0-.18A11.32,11.32,0,0,1,335.5,373.62Zm20.08,22.44c1.06.69.38.7,0,0Zm-9-10c.06.09,0,.15-.09.22-.24-.34-.43-.31-.67-.65C346,385.75,346.28,386,346.53,386.08Zm-18.26-20.45s.59.6.47.58C328.51,365.89,328.42,365.86,328.27,365.63Zm.59.72c.06,0,.31.34.44.48-.06,0-.21-.09-.43-.36C328.9,366.45,328.93,366.44,328.86,366.35Zm68.37,69.73c-.12,0,.32.22.17.22-.71-.23-.68-.41-1.38-.86A9.3,9.3,0,0,1,397.23,436.09Zm-66.17-66.82c-.16-.08-.47-.55-.64-.67A2,2,0,0,1,331.06,369.27Zm-4.95-5.94c.94,1.15,1.74,2.17,2.62,3.15-.12,0-.41-.41-.55-.5-1-1.34-1.61-1.8-2.66-3.24C325.6,362.75,326.09,363.44,326.11,363.33Zm3.34,4.14a1.73,1.73,0,0,1,.52.79,6.79,6.79,0,0,1-.53-.65S329.53,367.57,329.45,367.46Zm27.14,31.76c-.3,0-.58-.6-.87-.84C355.89,398.29,356.48,399,356.59,399.23Zm4,5c-.85-.4-1.51-2.17-2-2-.35-.27.26-.08.08-.34-.26-.06-.26,0-.5-.42.22,0,.43.14.64.15.19.43.4,1.25,1.1,1.39C359.64,403.18,360.39,403.74,360.56,404.18Zm-34.06-40.06c-.24-.29-.24-.29-.46-.59C326.12,363.58,326.54,364.05,326.49,364.12Zm30.66,37c.36.31.71,1,.91,1.05C357.85,402.47,356.92,401.34,357.15,401.15Zm-17.76-20.81c.08.32-.94-1.14,0,0Zm2.8,4c-.2.14-.45-.11-.7-.48C341.72,383.75,341.84,384.14,342.19,384.36ZM327.75,366c-.33-.23.27.46.37.67-.22-.23-.14,0,.12.27,0,0-.14-.09,0,0-.14-.1-.19-.38-.48-.7.22.17-.13-.33-.29-.5.15,0-.18-.35-.27-.52A7.86,7.86,0,0,1,327.75,366Zm1.08,1.42a2.4,2.4,0,0,0,.51.67c-.06.13-.4-.43-.62-.69,0,0,0,0,.07.06Zm5.28,7.3a.63.63,0,0,1-.48-.44C333.73,374.26,333.95,374.6,334.1,374.73Zm-6.36-8.2a3.8,3.8,0,0,1,.49.69A3.45,3.45,0,0,1,327.75,366.53Zm8,11.16c0,.21-.58-.59-.79-.92S335.54,377.55,335.72,377.7Zm2.42,3.35a6.7,6.7,0,0,1-1.18-1.58A13.58,13.58,0,0,1,338.14,381Zm-10.52-14.39a10.11,10.11,0,0,1-.83-1.14A4.47,4.47,0,0,1,327.63,366.65ZM348,395.55c.21,0,.42.5.63.69C348.43,396.26,348.23,395.74,348,395.55Zm-20.6-28.82a9.4,9.4,0,0,1,.59.85A4.4,4.4,0,0,1,327.42,366.72Zm60.33,42.12a8.65,8.65,0,0,0,1,3.19c-.16.22-.24.05-.34-.06,0,1.13,1.28,1.64,1.86,2.08.21,1,.85,2.09,1.63,2.18a13.67,13.67,0,0,1,1.81,3.25c.49,1.13,1,2.29,1.6,3.55a3.35,3.35,0,0,0,.18,1.12c.11.27.23.44.36.43.11.19-.11.25,0,.43.58,1,.69,2,1.24,2.16a7.87,7.87,0,0,0,.47,1.1c-.18,0-.34-.68-.54-.64.2,1.34,1.11,3.27,1.32,4.3a18.21,18.21,0,0,0,.05,1.9,7.15,7.15,0,0,1,.59,1.63s-.14-.32-.21-.45c0,.05-.1,0-.19-.08,0,0,.07.34.14.38-.19-.2-.22.29-.66-.13.12.28-.1.12.31.6-.17-.1-.05.06.12.27-.28-.11-1.1-.9-1.39-.85.3.29,1.17.94,1.22,1.14-.37-.31-.26-.3-.6-.58-.14,0,.24.25.14.25-.31-.18-.59-.27-1-.49,0,.07.38.28.24.29s-.38-.26-.43-.23a15.93,15.93,0,0,0-2.12-1.66c-.82-.55-1.73-1-2.5-1.49a.45.45,0,0,1,0,.56c.19.2.23,0,.32-.06a36.31,36.31,0,0,0,5,3.45c-.33-.07,0,.16.15.24-.75-.23-1.24-.55-2.13-.9a12.42,12.42,0,0,1,1.52.85c-.84-.31-1.53-.71-2.45-1.11,0,.08.42.2.26.26s-.64-.31-.77-.28a15.13,15.13,0,0,0,4.15,1.65c-.18,0-1.23-.22-1.24-.08a3.48,3.48,0,0,1-1.15-.31c-2.72-.67-4.91-1.39-7.05-2.07s-4.18-1.37-6.32-2.24a3.41,3.41,0,0,1-2.78-1.43,62,62,0,0,1-9.25-6.84,45.94,45.94,0,0,1-7.38-8.84c-2.17-3.25-4.3-6.57-6.74-9.6l-7.31-9.13c.29.07.58.47.86.85-.76-1.67-2.57-3.22-3.57-5,.33,0,.68.72,1,1.08-.08-.85-.94-1.47-1.53-2.27-1.6-2.12-2.76-4.2-4.51-6.11,0-.3.08-.27-.12-.67-.09-.1-.17.29,0,.47-.33-.2-.71-.91-1.05-1.31.35.12.33.46.73.58-1.16-1.78-2.15-2.78-3.39-4.61-.09-.12-.23-.27-.19-.34l.28.37c1.88,2.43,3.16,4.19,5.07,6.47-.07-.33-.43-.65-.48-.83s.22.16.31.09-.18-.28-.24-.41c.13-.18.33.24.48.3.2-.24-.15-.3-.17-.62a16.17,16.17,0,0,1,2.1,2.5.83.83,0,0,1-.63-.68c-.31-.07,0,.34-.33.45,0-.06-.1-.4-.23-.29.14.27,0,.67.51,1.32-.14,0-.19,0-.2.19.79,1,1.56,1.57,2.37,2.62,1,.07,1.54,1.69,1.9,2.3a1.19,1.19,0,0,1,.58.22l5.61,6.46c-.28-1-1.62-2-2.31-3.07.16-.11.32.38.48.31.06-.4-.38-.54.07-.72.24.34,1,1.52,1.58,1.18.28.26-.21.1-.13.39s.25,0,.37.29c.15-.26,0-.43.31,0,.12-.08.05-.18.13-.26-.23-.53-.62-.57-1-1.2-.31.2.34.46.23.68a13,13,0,0,1-1.88-1.93c.16-.08.32.34.49,0-.17-.64-.94-1.15-.85-1.64.25-.06.52.41.91.67a3.55,3.55,0,0,0-1.35-1.67c-.26.12.1.31.19.47-.14.23-.28-.08-.42.15-.35-.45-.5-.51-.37-.93s.08.26.3.1c.12-.38-.22-.46-.38-.8a26.87,26.87,0,0,1,5.05,5.45c-.3,0-.9-1-1-.58-.37.08.05-.34-.18-.47-.15.17,0,.34-.44,0,.61,1.07,1.75,2,2.57,3.34-.45.13-1.17-1.47-1.79-1.49-.19.3.4.65.6,1a.37.37,0,0,1-.43-.36c-.1.11-.28.21-.2.33-.32,0-.45-.47-.86-.59-.3.18.39,1.2.54.78.56,1.52,2.74,1.78,3.28,3.28-.22.08-.41-.42-.61-.57a6.11,6.11,0,0,0,1.2,1.56c.13-.19-.14-.5.23-.48.13-.16-.25-.33-.16-.49.24-.06.45.46.68.64-.54-.31-.56.39-.82.55l-.36-.43c.74,1.32,2,2.15,2.87,3.16-.12-.91-1.45-1.16-1.07-1.94.75,1,1.19,1.38,1.93,2.53-.17.15-.28-.28-.42-.36a8,8,0,0,0,2.42,3.08c-.08-.9-1.51-1.14-1.23-1.92a1.85,1.85,0,0,0,1.22,1c-.08-.08-.32-.87-.72-.73-.64-1.5-1.93-2.46-2.87-3.68l-.6-.71c.21-.11.37.37.55.5,1.36,1.34,3.15,3.51,4.66,5.18-1.3-2.44-2.94-4-4.43-6.45.74.63,1.39,1.47,2.16,2.18-1.57-2.35-4.8-5.34-6.46-7.44,2.07,1.26,3.48,3.5,5.26,4.85-.07.07-.13,0-.2-.07a17.86,17.86,0,0,0,3.47,3.62c-.09-.51-1-.93-1.13-1.76-.22,0-.42-.37-.67-.13-.06-.13.12-.07.22-.22l-.68-.76c-.36.37.43.32.29.63-.87-.58-1-1.3-1.74-1.93.31-.26.16.18.45.2-.5-1.07-.95-1.12-1.75-2.06.41,0,.68.79,1.24.34a10.21,10.21,0,0,0-1.71-1.83c-.17.2.33.41,0,.61a6.35,6.35,0,0,1-.88-1.09c.29-.23.23.39.58.34a14.2,14.2,0,0,0-1.83-2.36c.28-.4,1.11.55,1.6.9.1-.34-.77-1.2-1.09-1.14-1.55-2.42-4.08-4.49-6.27-6.72-.2.14-.19.3,0,.49-.44,0-.25-.59-.3-.88a36.73,36.73,0,0,1-2.62-2.76c.6.29,1.1,1,1.77,1.64.22-.19-.29-.47.12-.63-.62-.92-2.12-1.84-2.64-3a7.89,7.89,0,0,0,1.14,1,21.3,21.3,0,0,0-1.5-2.17c.42.26.22-.11,0-.38.31-.12.8.78,1.15.83.1-.3,0-.63-.45-1a10.28,10.28,0,0,0,1.34.51c.06-.23-.13-.49-.42-.76.23,0,.54.46.81.64.1-.12-.07-.26-.25-.41.3,0,.69.6,1,.49.12-.31-.58-.71-.42-1a1.45,1.45,0,0,1,.73.45,2.22,2.22,0,0,0-1-1.11c.05-.15-.38-.36-.52-.53-1.2-1.12,1.75,1.36,1.82,1.46s.15-.06.24,0l1.35,1.14c0,.24,0,.26-.26.26.39.78,2.23,2,2.56,2.43.32-.74-1.48-1.08-1.31-1.84l-.64-.54a6.61,6.61,0,0,1,2.65,2.47c-.19,0-.39-.12-.58-.08-.09.3.24,0,.34.19,2.52,2.87,5.9,5,8.85,7.7-1.22-2.34-3.85-3-5.13-5.24,1.89,1.14,3.11,3.13,4.82,3.72a81,81,0,0,0-7-6.42l-.43-.36c-.2-.09-.4-.44-.09-.18l.43.36c1.79,1.21,3.92,3.3,5.88,4.37.15-.27-.5-.52-.52-.79.27,0,.57.43.85.59a21.77,21.77,0,0,0-4.38-4.15c3.06,2.07,6,3.66,8.43,6.56.12,1,1.78,1.78,2.75,2.77.43.44.57,1,1,1.33s1.29.43,1.71,1.18c-.34.09-1-.64-1.49-.88.84,1.61,2.36,1.78,3.52,2.66-.43.22,0,.31-.09.48a19.14,19.14,0,0,0,3.32,2.07c.22-1-1.22-.93-1.23-1.65-.24.1-.48.23-.7-.09.13-.09.26.07.38.14.37-.24-.24-.32-.13-.52,2.37.46,3.7,2.07,5.92,3.3.09-.46-.47-.59-.75-1.09.36-.13.62.64,1,.17-.13.45.43.39.61.83.17.12.38-.09.59-.32.79.73,1.88,1.66,2.8,2.68a8.47,8.47,0,0,1,1.94,3.07c-.17.23-.24,0-.38.11-.19.58.66.21.51.67C387.93,409.14,387.85,408.93,387.75,408.84Zm-45-22.78c-.06.08-.19.14-.13.26.15-.07.32.19.46-.06-.3-.45-.48-.74-.82-.63A.85.85,0,0,0,342.71,386.06ZM363.25,409c.21.26.41.62.68.5C363.7,409.26,363.53,408.73,363.25,409Zm-1.92-5.27c.19.19.36.54.58.35A.46.46,0,0,0,361.33,403.69Zm4.1-11.44a3.31,3.31,0,0,0-1.28-1,11.93,11.93,0,0,0,3.2,2.45,10.79,10.79,0,0,1-1.86-1.81C365.33,392,365.45,392.14,365.43,392.25Zm9.52,8.86c-.07.29.53.47.73.72C376,401.56,375.31,400.82,375,401.11Zm-.45,1c-.47-.45-1-.72-1.31-1.05C373.07,401.49,373.95,402.27,374.5,402.08Zm-18.44-12.34c-.25.15.15.33,0,.49-.25-.3-.48-.25-.72-.34.08,1,1.1,1.08,1.5,2.17a.59.59,0,0,0-.77-.28c.2.63,1.06.94,1.13,1.49l-1-1c-.27-.09-.14.36-.37.24s-.69-.64-1-.93c.16-.14.31-.06.3-.3-.69-.34-.68-.83-1.12-1.12-.3.24-.63-.17-.92,0,.24.52.71.77,1,1.12-.22.24-.47-.35-.69-.23a24.22,24.22,0,0,0,5.49,4.76c-.45-.87-1.17-1.23-1.5-1.91.56.24,1.1,1.44,1.7,1.32-.5-.69-1.14-1-1.38-1.76.3.4.67.45.79.79.21-.28-.21-.56-.47-.84.41-.16-.13-.34,0-.51.38-.05.39.36.79.65.31-.45,1.12.76,1.66.72,0-.24-.82-.74-.81-1.15.87.68,1.74,1.4,2.62,1.33-.08-.26-.53-.51-.28-.77.57.11,1.14,1,1.71.93-2.66-2.44-5-5.16-7.33-7a10.66,10.66,0,0,0-1.48-.89c-.21.4.27,1.21.69,1.28l-.29.29c.36.29.92.34.63.81.79.18,1.19,1.06,1.5,1.52C357,390.43,356.47,390,356.06,389.74ZM375,410.43c-.51.77.91.69.93,1.3.48-.19.19-.81.11-1.15A1,1,0,0,1,375,410.43Zm3.48,3.35c.7.29.75,1.69,1.73,1.43C379.76,414.44,379.43,413.8,378.48,413.78ZM355,390.24l-.46-.45C354.22,390,354.83,390.44,355,390.24Zm3.65,4.09c.12.21.21.39.46.33C359,394.49,358.92,394.16,358.67,394.33Zm5.2,5.3s.56.45.54.12C364.26,399.91,363.8,399.13,363.87,399.63Zm8.91,8.42c-.39.29,0,1.08.44.61C373.39,408.25,373,408.35,372.78,408.06Zm-2.43-2c.14-.15.23.56.57.23C370.78,406.09,370.31,405.57,370.35,406Zm-16.42-16.14c.17.1.36.55.51.28l-.4-.39Zm23.73,23.8c.2.3.23.55.65.66C378.81,413.89,377.94,413.55,377.66,413.67Zm-14.27-14.09c.16.09.3.49.47.19l-.33-.33Zm8.3,9.29c-.08.16.24.27.08.44-.59-.32-.74-.77-1.32-.66.43.68,1.2.91,1.44,1.32.38-.27-.06-.44.18-.7.28.06.39,0,.48.31.38-.45-.48-.73-.28-1.16C372.07,408.62,371.91,408.56,371.69,408.87Zm5.2,5.3a3.79,3.79,0,0,0,1,1.22C378,414.71,377.8,413.72,376.89,414.16Zm-11.32-11.66c-.2.15.34.26,0,.42a4.72,4.72,0,0,0-1.44-1.18c.49.59,1.79,2.44,2.35,2.12-.08,0-.78-.66-.63-.95.44,0,.71.73,1.27.83C366.79,403.32,366.19,402.45,365.58,402.51Zm5.87,5.95c.37-.18-.17-.61-.31-.48C371.07,408.32,371.51,408.19,371.45,408.45Zm3.3,3.53c.3-.25,0-.4-.05-.6C374.25,411.65,374.58,411.8,374.75,412Zm3.49,3.73c0,.43.54.44.56.75-.39.07-.24,1,.23.94-.17-.15-.33-.3-.15-.5.6-.08,1.18,1.17,1.64,1.13C379.8,417.3,379.37,415.44,378.23,415.71Zm-14.74-15.32c.38.33.25.61.72.59C364,400.83,363.48,400.11,363.49,400.39Zm4.7,5.41c-.15-.48-.64-.49-.76-.94C367.16,405.16,368,405.76,368.19,405.8Zm5.43,6.12c.2.19.25.8.67.51C374.2,412.22,374,411.64,373.62,411.92Zm.65.67a.32.32,0,0,0,.48.31C374.79,412.68,374.52,412.34,374.27,412.58ZM394.41,433a7.31,7.31,0,0,0,.8.64C395.45,433.33,394.75,432.53,394.41,433Zm-42.32-43.14c0,.32.47.35.71.74C352.89,390.23,352.38,389.82,352.09,389.86Zm13,14.43c-.34-.29,0,.11-.23.22-.11-.09-.2-.28-.33-.2.24.33-.28,0-.32.44-.06-.27-.48-.07-.31-.34s.26.12.41,0c-.38-.37-.42-.79-.89-.82.08.45-.16.42-.51.37.38.14.93,1.19,1.28,1,.34.36.18.27-.09.22l.49.56c.41-.29-.26-.18,0-.36.41-.06.33.51.34.71.71.29,1,1.09,1.74,1.8.3-.71.34.09.74-.2-.37-.31-.65-.85-1.22-1,.16.28.68.54.6.84-.54-.21-.71-1.05-1.24-1.38.25-.14.42.43.69.1-.07-.17-.49-.06-.31-.34.38.06.65.67.42,0,.6.58.87,1.35,1.63,1.26-.32-.41-.31-.49-.73-.45,0-.13.12-.63-.16-.5,0,.09,0,.29-.1.22.17-.37-.55-.22-.22-.56.27-.11.07.47.41.11a26.89,26.89,0,0,0-1.76-2.17c-.47.18-.75-.18-.92-.66C364.12,403.52,365,403.62,365.09,404.29Zm-1.38-1.77c-.05.21.44.75.65.53-.1-.14.16-.08.09-.21C364.24,402.89,364.08,402.19,363.71,402.52Zm5,5.5a6.5,6.5,0,0,0,2.72,2.54C370.66,409.68,369.75,408.06,368.71,408Zm27.39,26.45c.08.13.38.28.64.55.07-.05-.07-.15.09-.09C396.44,434.75,396.35,434.35,396.1,434.47Zm-24.48-23.72c0,1.13,1.82,2.16,2.43,3.08C374.24,412.55,372.39,411.63,371.62,410.75Zm4.15,4.65.59.59C376.72,415.7,376,415.14,375.77,415.4Zm-18.15-18.47c.34.11.29.5.64.41C358,397.22,357.84,396.63,357.62,396.92Zm18.65,20.59c.17.06.28.49.49.3,0-.23-.58-.29,0-.75-.23-.29-.71-.54-.7-.88C375.66,416.7,376.94,417,376.27,417.51Zm-7.49-8.39c-.32.21-.27.38-.3.56.37.15.72.06.86.59.18-.14.12-.26.28-.41A3,3,0,0,1,368.78,409.12Zm2.81,3.22c-.27.29-.31.55-.13.78.23-.32.39-.25.6-.46C371.91,412.49,371.77,412.33,371.59,412.35Zm3.85,5.06c.28.26.26.56.64.8.18-.15.12-.27.29-.42-.19-.12-.39-.1-.56-.36a.93.93,0,0,1,.43-.29C375.91,416.65,375.78,417.36,375.44,417.41Zm-12.56-13.82c.26-.17.06.22.25.28.21-.17.3-.34.11-.5C363.14,403.64,362.77,403.23,362.88,403.59Zm-.05-.21c.32-.13-.19-.59-.3-.48S362.67,403.22,362.83,403.38Zm-10.61-7.67c.4.52.61.23,1,.94.21-.34-.54-.74-.73-1.11C352.43,395.67,352.33,395.59,352.23,395.71ZM394,435.12a8.47,8.47,0,0,0,1.28.56C394.81,435.52,394.43,435.14,394,435.12Zm-3.16-1.45c.21.53,1.07.78,1.89,1.14A7.7,7.7,0,0,0,390.82,433.67ZM357,402.6c.16.21.12.42.28.63.12-.15.22,0,.33-.06C357.36,402.87,357.35,402.65,357,402.6Zm-1.39-1.5c.3.19.21.39.49.29C355.95,401.29,355.8,400.79,355.62,401.1Zm-6.9-5.58c.26.24.89,1.4,1.5,1.52C349.72,396.48,349.22,395.53,348.72,395.51Zm2.13,2.59c.2.16.38.66.58.6C351.42,398.56,351.06,397.84,350.85,398.11Zm-2.13-2.86-.4-.52C348.07,395,348.5,395.42,348.72,395.25Zm1.82,3a2,2,0,0,0,1,1.12A4.46,4.46,0,0,0,350.54,398.27Zm-15.47-30.87c.48.24,1.34.87,1.19,1.17a6.91,6.91,0,0,1,1.59.65c-.21.19-.59.26-.77.63.46,0,1.1.84,1.22.75.05.23-.47.06-.56.29s.38.36.42.5-.24-.14-.3-.09a57.06,57.06,0,0,0,5.24,4.49c-.7-.83-2.08-1.82-3-2.69.35.15.15-.11.06-.19.57.18,1.68,1.47,2.81,2.05-1-1-1.71-1.42-2.84-2.55,1.23.81,2.38,1.82,3.73,2.72.12-.38-.68-.92-1.21-1.42,0-.18.29.12.44.21.16-.2-.52-.56-.75-.82a42.42,42.42,0,0,1,8.42,7.22c-.71-.41-1.49-1.11-2.21-1.6,0,.44,1.31,1,1.17,1.45,0-.23-.28-.15-.32-.34s-.21.11-.36,0c-.05.13.35.31.1.42,0-.16-.48-.27-.29-.5-.25-.13-.15,0-.26.12-.58-.58-1.92-1.48-2.54-2.19-.13.37,1.07,1,1.17,1.46.12.09.25.25.33.2.15.2-.23.1-.3.16s.23.24.31.35-.86-.8-1.14-.83c-.14.24.61.55.61.7-.18.12-.54-.13-.51-.28a1.53,1.53,0,0,0-.64-.15c-.2-.44-.74-.23-.76-.68-.17.11-.49-.39-.65-.27,0,.08.23.29.51.54-.25.06-.47-.39-.63-.42,0,.08.11.19,0,.25-.27-.17-.22-.23-.52-.4q.12-.15.33.07c0-.3-.45-.28-.63-.42a3.27,3.27,0,0,0,.9,1.07,6.33,6.33,0,0,1-1.48-1.15c0,.15.24.34.28.5a9.1,9.1,0,0,1-1.18-1c.14.26.51.57.51.8-.06,0-.15-.08-.24-.15-.09.11.14.29.32.47s-.42-.35-.57-.48c.3.39.17.27.13.52,0,.07.5.53,0,0-.17.11-.26.23.06.46-.33-.08-.78-.65-1.16-.94a3.11,3.11,0,0,0,.44.61.91.91,0,0,1-.44-.22c.3.65.82.81,1.33,1.56-.2.1-.52-.44-.78-.66.29.47-.17,0-.44-.22,0,.29.65.78.93,1.17a4.51,4.51,0,0,1-1-.62c0,.08,0,.17.11.29-.42-.15-.3-.43-.75-.83l.07.32c-.27,0-.73-.81-.51-.8l-.5-.55c.31.44.07.41-.25.11a6,6,0,0,0,1.14,1.36c-.12.07,0,.21-.14.26.31-.13.33.39.63.55-.15,0-.4-.06-.45-.34,0,.08,0,.16-.08.08.46.7,1.52,1.84,2,2.36,0-.07,0-.23-.08-.18.08-.27.24.27.22.44,1.72,2,3.35,3.57,5,5.64a10,10,0,0,1-1.61-1.41c-.15,0-.28.08-.43,0a.79.79,0,0,0-.25-.4c-.1.08,0,.19-.14.27-.11-.55-.91-.48-1.23-1.27-.2.22.34.29.1.43-1.75-2.12-2.83-3.16-4.41-5.3.15,0,.39.44.57.61a22.24,22.24,0,0,0-1.4-1.88c.28,0,.39.56.65.53-.45-.7-.77-1-1.2-1.69-.12-.33.36.47.43.36-.41-.87-1.73-2-2.2-2.91,1.08,1.26,1.63,1.76,2.89,3.15.06-.21-.15-.52-.36-.81.09-.05.24.12.33.06a23.58,23.58,0,0,0-2-2.56c.1-.1.3.16.47.32.1,0,0-.16-.12-.27.42.14.79.92,1.17,1.06a17.74,17.74,0,0,0-2-2.34c-.32-.19-.21.22-.57-.22,0,0,.09.15.16.24A2.52,2.52,0,0,1,336,374c.16,0-.49-.59-.81-1,.34.25.18.07-.13-.26-.08-.17.42.38.56.49.05-.21-.35-.62-.71-1,.26.11-.15-.27-.23-.42s0,.14.14.26a33.48,33.48,0,0,1-3.09-3.21c.55.58,1.31,1.23,2.07,2.13.48.16,1,.79,1.53,1.23,0-.31-.67-.7-.77-1.07a2.57,2.57,0,0,1-.81-.77c.47.15,1.13,1.2,2,1.84-.22-.53-1.37-1.37-1.59-1.82.26.1.37.36.75.69-.07-.25-.31-.33-.54-.64.16,0,.28.11.45.34a7.15,7.15,0,0,0-1.52-1.76c.06-.14.48.44.61.44-.18-.27,0-.05.21.05.13,0-.4-.38-.24-.41-.55-.43-1.12-.91-1.15-1.22a14.81,14.81,0,0,0,1.65,1.5c-.05-.17-.24-.25-.13-.39.1.15.59.63.47.32.16.29.72.52.88.83.07-.06.14-.12.09-.22a5.78,5.78,0,0,1-1.36-1c.06,0,.31.25.44.34s0-.23.29.11c.09,0-.05-.13-.16-.23s.29.23.35.3.54.18.81.25.2.26.47.44-.23-.46-.19-.59c-.35-.21-.56-.18-.91-.41-.11-.12,0-.05.08-.07-.44-.28-1.07-.95-1.51-1-.05.11,1.1.9,1.19,1.17-.93-.8-1.23-.92-1.28-.7-.12,0-.55-.61-.58-.34-.49-.41-.83-.6-1.29-.95.15.24.4.33.6.58-.16,0-.65-.6-.63-.29-.25-.28-.38-.34-.75-.7,0,.06.25.26.13.27-.43-.38-.61-.62-1-1a7.6,7.6,0,0,0,.94,1c-.05,0-.13,0-.24-.16a15.91,15.91,0,0,1,1.23,1.27c-.17.08-.64-.66-.7-.48l-.78-.92a.35.35,0,0,1,.17.09c-.31-.46-.53-.48-1-1,0,.06,0,.19,0,.25a5.4,5.4,0,0,1,.75.83,1.13,1.13,0,0,1-.53-.39s.21.24.22.3c-.17-.1-1.25-1.58-1.48-1.41a9.89,9.89,0,0,0-.91-.93,10.07,10.07,0,0,0,1.12,1.24c0,.11-.54-.43-.24,0,0,.06-.28-.32-.23-.16a6.08,6.08,0,0,0-.44-.48c0,.15.05.24-.16.16.06.14.16.16.29.37-.14-.07-.67-.85-.61-.57-.34-.5-.85-1-1.29-1.59.19.1.59.72.67.64a2.7,2.7,0,0,0,.62.69,4.63,4.63,0,0,0-.32-.47c.14.08.64.76.72.72a11.4,11.4,0,0,0-.89-1.07s.23.2.4.39a3.48,3.48,0,0,0-.42-.5s0-.07.14,0c-.05-.1-.51-.48-.41-.5.55.56,1.44,1.44,1.88,1.93,0-.16-.56-.67-.86-1,.07-.08.59.54.89.82.05-.11-.33-.35-.55-.64a5.54,5.54,0,0,1,.56.5c.05-.09.19,0,.44.22-.09-.22-.59-.57-.77-.8.25.2.57.48.91.8-.21-.26-.15-.2,0-.14,0,0-.16-.17-.26-.27s.67.38.44.35a1.81,1.81,0,0,1,.58.47c.13.08,0-.17.24.15,0-.08-.3-.35-.5-.55.36.21-.12-.19-.51-.54,0-.1.25.18.33.2a3.68,3.68,0,0,0-.73-.84c.21.06.61.5.78.54,0,0-.06-.07,0-.09s-.53-.43-.45-.47c.29.29.95.72,1.38,1.11,0-.17.43.33.75.44-1.3-1.23-2.16-1.48-3.42-2.63a.67.67,0,0,1,.22,0c.33.24.72.56,1.09.88-.06-.12-.41-.36-.08-.18a1.71,1.71,0,0,0-.32-.34c.52.21,1.22.95,1.79,1.23.3.35.59.44.85.72-.51-.34-.92-.61-1.23-.87.19.31.79.68,1.15,1.09.15.06.09,0,.09-.09a6,6,0,0,0-.54-.38c.4.14,1.09.76,1.53,1,.06-.08-.06-.19.19-.06,0-.09-.42-.32-.58-.47a2.07,2.07,0,0,1,.74.44.44.44,0,0,0,.35,0,9.87,9.87,0,0,0,1.17.8C334.09,366.87,335.15,367.66,335.07,367.41Zm1.61,6.75-.32-.34c0,.07-.14,0-.19.05C336.42,374.18,336.55,374.16,336.69,374.15ZM329.53,364s-.14-.09-.18-.09c.31.25.32.18.3.1l-.22-.17C329.37,363.86,329.49,364,329.53,364Zm.18.21c.24.16.25.22.43.36,0,0,.22.14.21.05C330,364.5,329.92,364.22,329.71,364.22Zm7.49,6.17c.31.29.67.36.57.09C337.46,370.24,337.41,370.47,337.2,370.39Zm-.5-.16c.27.3.52.19.28,0C336.87,370.18,336.72,370.1,336.7,370.23Zm4.33,4.86c.32.27.59.36.51.67a21.51,21.51,0,0,0-1.93-1.62c.17.3.51.36.72.72-.11-.1-.23-.22-.28-.12.38.1.35.56.14.26.2.29.39.24.54.64a1.38,1.38,0,0,1-.44-.34c-.19.07.27.31.13.4-.11-.16-.45-.37-.27-.12.24,0,.7.74.95.76,0-.09-.25-.25-.2-.33.65.54,1,1.17,1.56,1.33-.22-.2-.41-.38-.4-.52.57.42.71.74,1.15,1.08.21-.08-.27-.32-.11-.41s.39.44.67.38c0-.26-.78-.48-.68-.77a5.47,5.47,0,0,1,1,.87c0-.58-1.44-1.21-1.75-1.8a.26.26,0,0,1,.29,0c.26.19.6.64.78.54-1.65-1.8-3.82-3.16-5.76-5.14-.12,0-.28-.06-.35.08.51.45,1,1.09,1.46,1.17-.08.06,0,.15.11.28a17,17,0,0,1,1.77,1.51c.26.22.68.37.73.58C341.18,375,341.14,375.12,341,375.09Zm-5.31-4.94a1.52,1.52,0,0,0,.41.25c-.11-.11.05,0,.08-.08C336,370.19,335.79,370,335.72,370.15ZM330.56,366c.17.13.51.52.52.4C330.84,366.24,330.71,366,330.56,366Zm3.52,3.7a2.06,2.06,0,0,0,.7.61C334.64,370.13,334.22,369.64,334.08,369.68Zm6,7.68c.18.14.42.53.55.5C340.39,377.62,340.27,377.36,340,377.36Zm.24,1.19c.17.14.41.55.54.51C340.7,378.88,340.44,378.52,340.29,378.55Zm2.92,5.85c-.05.47.73.76.74,1.09C344,385.1,343.38,384.65,343.21,384.4ZM342,383.29l-.77-.94C341.13,382.66,341.85,383.29,342,383.29Zm-13-19s-.13-.13-.11-.15a1.51,1.51,0,0,0-.39-.26,1.9,1.9,0,0,0-.24-.28c.2.11.64.54.94.77-.06,0-.14-.07-.23,0s-.13-.15-.27-.26C328.78,364.07,328.83,364.2,329,364.28Zm12.19,16c.08,0,.42.53.68.76,0-.07-.75-.22-1.09-.62a.57.57,0,0,1,.47.19c.07-.1-.26-.32-.23-.43S341.27,380.59,341.17,380.28Zm-7.44-6.75c-.13-.14-.4-.11-.08.21.11.26-.36-.38-.26-.4-.16.13-.61-.71-.85-.86a5.49,5.49,0,0,0,1,1.23c.1.14-.05.14.09.31s.06,0,0,0c.26.5-.21-.22-.26-.27a7.84,7.84,0,0,0-1-1c.17.28.26.52.48.83a39,39,0,0,1-3-4c0-.06-.23-.17-.12,0-.35-.41-.92-1.39-1.23-1.79-.14.05.35.58.47.71a6.85,6.85,0,0,0,1.44,2c.06.26.45,1,.74,1.09-.09.18.55.85.59,1.12-.11,0-.3-.3-.48-.57s.25.37.27.26c-.26-.41-.72-1.08-1.08-1.54.19.4-.33-.32-.52-.53a6.54,6.54,0,0,0-1.08-1.67c-.13,0,.17.32.06.33a8.6,8.6,0,0,1-.89-1.21c-.07-.19.06,0,.12,0-.31-.51-.69-1.09-1-1.54.43.63,1.06,1.55,1.46,2.08a6.63,6.63,0,0,1-.43-.75c.1,0,.24.13.46.46a6.51,6.51,0,0,0-.45-.73,14.53,14.53,0,0,1,1,1.23,7.79,7.79,0,0,0-.59-.85c0,.06.36.29.55.5-.1.08.3.38.3.49,0-.13-.1-.15-.26-.39l.07-.07c.19.28.33.41.4.39a8.21,8.21,0,0,0,1,1.26c.09.17,0,.21.2.46-.18-.14-.29-.45-.53-.65a4.31,4.31,0,0,0,.38.66c-.06,0-.15-.25-.27-.26a6.6,6.6,0,0,0,.59.85c-.2-.15.13.32-.15,0,.06.39.45.45.74,1,0-.14-.53-.75-.21-.57-.3-.35-.33-.45-.67-.9.37.27.86,1.1,1.65,2-.2-.49-.89-1-1-1.48.86,1,1,1.08,2,2.36,0-.21-.31-.37-.41-.64C333.19,372.77,333.51,373.28,333.74,373.53Zm-2.11-2a3.44,3.44,0,0,0,.82,1.15c0-.06,0-.11,0-.13C332.08,372.19,331.85,371.66,331.63,371.57Zm-1.47-1.68c.18.19.71,1,.7.75C330.59,370.49,330.35,369.91,330.16,369.89Zm.29.1a2.43,2.43,0,0,0-.69-.75C330,369.67,330.32,370,330.45,370Zm3.36,3.2c.15.37,1.4,1.74.15.37.09.42-.22-.33-.47-.58-.09,0,.28.32.09.3-.48-.73-.91-.78-1.27-1.49.22.11.36.52.55.63-.54-.9-1-1.3-1.56-2.24-.48-.67.65.71,1,1.12,0-.16-.37-.54-.52-.79a4.33,4.33,0,0,1,.76.82,4.52,4.52,0,0,0-.4-.64,29.12,29.12,0,0,1,2.14,2.32.45.45,0,0,0-.12,0c.31.37,1,1.07,1.29,1.46.1.13.13.12.18.08l.27.52c-.16.06-.49-.51-.69-.62.08.31.52.54.35.69a3.81,3.81,0,0,0-.6-.59C335.16,375,334.29,373.41,333.81,373.2Zm-2.87-3.55a1.78,1.78,0,0,0,.16.5,3,3,0,0,1-.66-.79C330.55,369.3,330.84,369.71,330.94,369.64Zm-4.12-4.41s.06.07.05.08.1.13.12.14c.15.24-.08,0-.05.05C326.71,365.18,326.91,365.37,326.82,365.23Zm12,16.94c.07-.09-.16-.28-.14-.38.15.06.19.22.28.38-.07.07-.15,0-.23,0S338.79,382.09,338.85,382.18Zm.15.11c.34.09.46.61.81.9,0,.17-.29-.39-.22.09l-.22-.3a.19.19,0,0,0,.18,0l-.11-.15c-.1-.09,0,.08-.12.12C339.09,382.55,339.36,382.59,339,382.29ZM332.73,374c.05,0,.21.62.38.67,0,.26-.51-.6-.54-.77,0,0,.12.12.19.2S332.76,374,332.73,374Zm-.68-6.36c.35.17.37.44.73.72-.11,0-.41-.34-.49-.3s-.2-.28-.43-.49c0,0,.14.1.22.17S332.1,367.7,332,367.64Zm21.5,24.69c-.23.13.06.3-.17.43l.57.61a.72.72,0,0,1-.74-.18c-.12.1-.05.21-.18.31-.31-.33-.41-.15-.62-.56.24-.2.49.29.74.19a2.84,2.84,0,0,1-.59-1.38.54.54,0,0,1-.62-.3c.15-.21.32-.08.47-.33A15.54,15.54,0,0,1,353.54,392.33Zm-24.89-25.39c.11.15,0-.06,0-.12.41.47.86,1.1,1.45,1.83-.09,0,0,.17.07.32a6.37,6.37,0,0,1-.88-1.09,1.19,1.19,0,0,1,.44.48c0-.24-.53-.64-.71-1,0,.11-.29-.32-.37-.29a24.92,24.92,0,0,0-1.5-2c.22.19,0-.13-.24-.42A10.32,10.32,0,0,1,328.66,366.94Z" transform="translate(-110.45 -18.67)"/><path class="cls-1" d="M330.39,499.2l.11.11a3.12,3.12,0,0,0,.33-.84C330.61,498.77,330.61,498.9,330.39,499.2Zm53.13-61.67c.21-.08.35.06.49.22a1.41,1.41,0,0,1,.69-.24,5.87,5.87,0,0,1-3,1.09A5,5,0,0,0,383.53,437.53Zm-53.93,63c0,.06,0,.19-.13.39,0,0-.08.08-.13.14S329.5,500.68,329.6,500.5Zm60.3-65.17c.09.28-1,.52-1.68.82a29.73,29.73,0,0,1-2.94,1.28A17.85,17.85,0,0,1,389.9,435.33Zm-61.54,67.59a5.58,5.58,0,0,1,.5-.68,6.31,6.31,0,0,1-.45.86C328.29,503.2,328.35,503,328.35,502.92Zm22.33-29.85-.35.44C350.26,473.4,350.47,472.78,350.69,473.07Zm43.55-38.68c.24,0,.38,0,.45.06-.1,0-.21,0-.2.07C394.27,434.57,394.34,434.41,394.24,434.38Zm-50.6,48.93c.12.13-.1.34-.25.54C343.16,483.75,343.54,483.49,343.63,483.31Zm-8.51,11.81c0-.2.43-.57.61-.84C335.71,494.49,335.3,494.86,335.13,495.13Zm-7.82,11.19c-.08.13-.32.33-.56.62C326.66,507,327.32,506.21,327.31,506.31Zm4.88-5.48c.07,0,0,.11,0,.16s.17-.13.19-.07c-.25.29-.29.12-.57.48A1.48,1.48,0,0,1,332.19,500.83ZM342,490.6c-.16,0-.28.37-.57.61C341.35,491.12,341.92,490.42,342,490.6ZM354.45,479l-.65.66C353.68,479.74,354.19,478.7,354.45,479Zm1.74-1.28c-.2.34-1,1.32-1.37,1.26C355.5,478.4,355.67,477.79,356.19,477.69Zm-2.52,4.82a9.69,9.69,0,0,1-1.2,1C352.94,482.84,353.11,481.87,353.68,482.51Zm-19.91,18.57a1.71,1.71,0,0,1-.49.56A2.37,2.37,0,0,1,333.76,501.07Zm.76-.68c0-.12.3-.21.47-.45s-.54.53-.12.27c-.23.3-.2.27-.19.47-.55.26-.63.74-1.19.91.47-.42.75-.65,1.09-1-.28.18-.26.14.08-.18C334.64,500.36,334.61,500.32,334.53,500.39Zm.74-.7c0-.11.44-.47.54-.51C335.7,499.39,335.39,499.57,335.27,499.69Zm13.21-12.53c0-.06.08,0,.12,0s.4-.34.59-.46c.11.23-.51.51-.57.74C348.35,487.57,348.47,487.23,348.48,487.16Zm-16.29,15.62c0-.07.33-.32.45-.46A1.36,1.36,0,0,1,332.19,502.78Zm31-29.27c-.45.36-.52.73-1,1.1C362.09,474.3,362.75,473.36,363.19,473.5ZM327.9,506.76c.05,0,0,.08-.16.24C327.69,507,327.71,506.92,327.9,506.76Zm5-4.62c.23-.26.25-.12.45-.33,0,.08-.33.32-.46.46C332.88,502.22,332.9,502.17,332.87,502.14Zm4.16-3.72c.16,0-.18.25-.18.34s.34-.29.34-.31a7.83,7.83,0,0,0,.71-.48c.3-.31.37-.24,0,0-.12.19-.13.11-.31.34,0,0,.11-.05.17-.09-.86.9-1.55,1.4-2.54,2.32a13.92,13.92,0,0,1,1.53-1.75c-.47.29-.84.79-1.26,1.1,0-.06-.14,0-.18,0A11.32,11.32,0,0,1,337,498.42Zm22.07-20.49c.67-1.08.7-.39,0,0Zm-9.81,9.23c.09-.07.15,0,.22.08-.33.24-.3.44-.63.68C349,487.68,349.19,487.42,349.28,487.17ZM329.17,505.8c0-.05.58-.6.57-.48C329.42,505.56,329.4,505.64,329.17,505.8Zm.71-.61c0-.06.33-.31.47-.45,0,.06-.08.21-.35.44C330,505.16,330,505.13,329.88,505.2Zm68.47-69.64c0,.12.21-.32.21-.18-.22.71-.4.69-.83,1.4A9.3,9.3,0,0,1,398.35,435.56Zm-65.59,67.39c-.08.16-.55.48-.66.65A2,2,0,0,1,332.75,502.94ZM326.91,508c1.13-1,2.14-1.78,3.1-2.68,0,.12-.4.42-.49.56-1.32,1-1.77,1.64-3.19,2.72C326.34,508.53,327,508,326.91,508Zm4.07-3.41a1.73,1.73,0,0,1,.79-.53,6.78,6.78,0,0,1-.64.54S331.09,504.5,331,504.59Zm31.26-27.72c0,.3-.59.59-.82.88C361.31,477.59,362,477,362.24,476.87Zm4.88-4.06c-.38.86-2.14,1.55-1.93,2-.26.35-.09-.26-.35-.08-.06.26,0,.26-.41.51,0-.22.13-.43.13-.65.42-.2,1.24-.43,1.37-1.13C366.14,473.75,366.68,473,367.12,472.81ZM327.69,507.6c-.28.24-.29.24-.58.47C327.16,508,327.62,507.56,327.69,507.6Zm36.46-31.33c.3-.37,1-.73,1-.93C365.46,475.55,364.35,476.5,364.16,476.27Zm-20.48,18.14c.32-.09-1.12,1,0,0Zm4-2.87c.14.2-.1.45-.47.71C347,492,347.43,491.89,347.64,491.54Zm-18.08,14.77c-.22.33.45-.28.67-.39-.23.23,0,.14.27-.12,0,0-.09.14,0,0-.1.14-.37.2-.69.49.17-.22-.33.14-.49.3,0-.15-.35.19-.51.28A7.86,7.86,0,0,1,329.56,506.31Zm1.4-1.1a2.4,2.4,0,0,0,.66-.52c.13.06-.42.4-.68.63,0,0,0,0,.06-.07Zm7.21-5.41a.63.63,0,0,1-.43.49C337.69,500.18,338,500,338.16,499.8Zm-8.08,6.51a3.8,3.8,0,0,1,.68-.5A3.45,3.45,0,0,1,330.08,506.31Zm11-8.18c.21,0-.58.59-.9.8S341,498.31,341.1,498.13Zm3.31-2.48a6.7,6.7,0,0,1-1.56,1.2A13.58,13.58,0,0,1,344.4,495.65Zm-14.2,10.78a10.11,10.11,0,0,1-1.12.85A4.47,4.47,0,0,1,330.21,506.43Zm28.51-20.92c0-.21.49-.43.67-.64C359.43,485.08,358.9,485.29,358.72,485.5Zm-28.44,21.13a9.39,9.39,0,0,1,.84-.6A4.4,4.4,0,0,1,330.28,506.63Zm41-61.09a8.65,8.65,0,0,0,3.17-1.05c.22.15.06.24-.05.34,1.13,0,1.62-1.31,2-1.9,1-.23,2.08-.89,2.15-1.67a13.67,13.67,0,0,1,3.22-1.87c1.12-.51,2.28-1,3.52-1.66a3.35,3.35,0,0,0,1.12-.2c.27-.11.43-.24.42-.37.19-.12.25.1.43,0,1-.59,2-.73,2.14-1.28a7.87,7.87,0,0,0,1.09-.49c0,.18-.68.35-.63.55,1.34-.23,3.25-1.17,4.27-1.4a18.21,18.21,0,0,0,1.9-.09,7.15,7.15,0,0,1,1.62-.62s-.32.15-.44.22c.05,0,0,.1-.07.19,0,0,.34-.07.38-.15-.19.19.3.22-.12.67.28-.12.12.09.6-.33-.09.17.06,0,.27-.12-.11.28-.88,1.11-.82,1.41.29-.3.91-1.19,1.12-1.24-.3.37-.29.26-.56.62,0,.14.24-.25.25-.15-.18.31-.26.59-.47,1,.07,0,.28-.39.29-.24s-.26.38-.22.44a15.92,15.92,0,0,0-1.62,2.15c-.54.83-1,1.75-1.44,2.52a.45.45,0,0,1,.56,0c.2-.2,0-.23-.06-.32a36.31,36.31,0,0,0,3.36-5c-.07.33.16-.05.24-.15-.21.75-.53,1.25-.86,2.15a12.42,12.42,0,0,1,.82-1.54c-.3.85-.68,1.54-1.06,2.47.08,0,.19-.43.26-.27s-.3.65-.27.78a15.13,15.13,0,0,0,1.58-4.18c0,.18-.2,1.24-.06,1.24a3.48,3.48,0,0,1-.29,1.15c-.62,2.73-1.3,4.93-1.94,7.09s-1.29,4.2-2.12,6.36a3.41,3.41,0,0,1-1.38,2.8,62,62,0,0,1-6.67,9.38,45.93,45.93,0,0,1-8.7,7.54c-3.21,2.23-6.49,4.42-9.47,6.91l-9,7.48c.07-.29.46-.58.83-.87-1.65.79-3.17,2.62-4.89,3.66,0-.33.71-.69,1.07-1-.85.09-1.45,1-2.24,1.57-2.09,1.64-4.15,2.84-6,4.62-.3,0-.27-.08-.66.13-.1.1.29.16.47-.06-.19.33-.89.72-1.29,1.08.11-.35.46-.34.57-.74-1.76,1.19-2.74,2.2-4.54,3.48-.12.09-.26.24-.33.19l.37-.29c2.39-1.92,4.14-3.24,6.38-5.19-.33.07-.64.44-.82.49s.16-.22.08-.31-.28.19-.41.25c-.18-.13.24-.33.3-.49-.24-.2-.29.16-.61.18a16.17,16.17,0,0,1,2.46-2.14.83.83,0,0,1-.67.65c-.06.31.34,0,.46.32-.06,0-.4.11-.29.24.27-.15.67,0,1.31-.53,0,.14,0,.19.2.19,1-.81,1.54-1.59,2.57-2.42.05-1,1.66-1.57,2.27-1.94a1.19,1.19,0,0,1,.21-.58l6.36-5.72c-1,.3-2,1.66-3,2.37-.11-.16.37-.32.3-.49-.41-.05-.54.39-.73-.06.33-.25,1.5-1,1.15-1.6.26-.28.1.21.39.13s0-.25.28-.37c-.26-.14-.43,0-.05-.31-.09-.12-.18-.05-.26-.13-.52.24-.56.63-1.18,1.06.2.31.46-.35.68-.25a13,13,0,0,1-1.9,1.91c-.08-.16.34-.33,0-.49-.64.18-1.14,1-1.62.88-.07-.25.4-.53.65-.92a3.55,3.55,0,0,0-1.64,1.38c.13.26.31-.1.46-.2.23.13-.08.28.16.41-.45.36-.5.51-.93.39s.26-.08.09-.3c-.38-.11-.46.23-.79.39a26.87,26.87,0,0,1,5.36-5.15c0,.3-1,.92-.56,1,.09.37-.34,0-.47.19.17.14.34,0,0,.44,1.06-.63,2-1.78,3.29-2.63.14.44-1.45,1.19-1.46,1.82.3.18.64-.42,1-.62a.37.37,0,0,1-.35.44c.11.09.21.27.33.19,0,.32-.46.45-.57.87.19.3,1.2-.41.77-.55,1.51-.59,1.73-2.77,3.22-3.34.08.22-.41.41-.56.62a6.11,6.11,0,0,0,1.54-1.22c-.19-.13-.49.15-.49-.22-.16-.13-.32.25-.49.17-.06-.24.46-.46.62-.69-.3.55.4.55.56.81l-.42.37c1.31-.76,2.12-2,3.11-2.93-.91.13-1.13,1.47-1.92,1.1,1-.77,1.36-1.21,2.49-2,.16.17-.27.28-.36.43a8,8,0,0,0,3-2.48c-.89.1-1.11,1.53-1.9,1.26a1.85,1.85,0,0,0,1-1.24c-.08.08-.87.34-.71.73-1.49.67-2.42,2-3.63,2.94l-.7.62c-.11-.2.36-.37.49-.56,1.31-1.39,3.45-3.21,5.1-4.75-2.42,1.34-3.92,3-6.36,4.55.62-.75,1.45-1.42,2.14-2.2-2.32,1.61-5.25,4.9-7.32,6.6,1.22-2.1,3.44-3.54,4.75-5.35.07.07,0,.13-.06.2a17.86,17.86,0,0,0,3.55-3.54c-.51.1-.91,1-1.74,1.16,0,.22-.36.43-.11.67-.13.06-.07-.12-.22-.22l-.75.7c.38.36.31-.43.62-.3-.57.88-1.28,1-1.9,1.77-.26-.3.18-.16.2-.46-1.06.52-1.1,1-2,1.79,0-.41.78-.7.32-1.25a10.21,10.21,0,0,0-1.8,1.74c.2.17.4-.34.6-.06a6.35,6.35,0,0,1-1.07.9c-.23-.28.38-.24.33-.58a14.2,14.2,0,0,0-2.33,1.87c-.4-.27.53-1.12.87-1.62-.35-.09-1.19.79-1.12,1.11-2.39,1.59-4.41,4.16-6.61,6.39.14.2.31.19.49,0,0,.44-.59.26-.88.31a36.73,36.73,0,0,1-2.71,2.67,11.45,11.45,0,0,1,1.61-1.8c-.19-.21-.46.3-.64-.1-.91.64-1.8,2.15-2.95,2.7a7.89,7.89,0,0,0,.94-1.16,21.3,21.3,0,0,0-2.14,1.54c.25-.43-.11-.21-.38,0-.13-.31.76-.81.81-1.16-.3-.09-.63.06-1,.47a10.28,10.28,0,0,0,.48-1.35c-.23-.06-.48.14-.75.44,0-.23.45-.55.63-.82-.12-.1-.26.07-.4.25,0-.3.59-.7.47-1-.31-.11-.7.59-1,.44a1.45,1.45,0,0,1,.44-.74,2.22,2.22,0,0,0-1.1,1c-.15-.05-.35.39-.52.53-1.09,1.22,1.33-1.77,1.43-1.85s-.06-.15,0-.24l1.12-1.37c.24,0,.26,0,.26.26.77-.41,1.94-2.26,2.38-2.61-.74-.31-1,1.5-1.81,1.34l-.53.65a6.61,6.61,0,0,1,2.42-2.7c0,.19-.11.4-.07.58.3.09,0-.23.18-.34,2.82-2.57,4.92-6,7.54-9-2.32,1.26-3,3.9-5.14,5.23,1.1-1.91,3.07-3.17,3.63-4.89a81,81,0,0,0-6.29,7.09l-.35.44c-.09.2-.43.41-.17.09l.35-.44c1.18-1.81,3.22-4,4.27-6-.27-.14-.51.51-.78.54,0-.27.42-.58.58-.86a21.77,21.77,0,0,0-4.07,4.46c2-3.1,3.55-6,6.4-8.55,1-.14,1.74-1.82,2.72-2.8.43-.44,1-.59,1.31-1.05s.4-1.3,1.15-1.73c.1.34-.62,1.06-.85,1.5,1.59-.87,1.74-2.39,2.59-3.57.23.43.31,0,.49.09a19.13,19.13,0,0,0,2-3.36c-1-.2-.91,1.23-1.63,1.26.1.24.23.48-.08.7-.1-.13.07-.26.14-.39-.25-.37-.32.25-.52.14.41-2.37,2-3.73,3.19-6-.46-.08-.59.48-1.07.77-.14-.36.63-.63.16-1,.45.13.38-.43.82-.62.12-.17-.1-.38-.33-.59.72-.8,1.63-1.91,2.63-2.85a8.47,8.47,0,0,1,3-2c.24.16,0,.24.12.38.58.18.2-.66.66-.52C371.58,445.35,371.37,445.44,371.28,445.54Zm-22,45.45c.08.06.15.19.26.13-.07-.15.18-.33-.07-.45-.44.31-.73.5-.61.83A.85.85,0,0,0,349.33,491Zm22.52-21c.26-.22.62-.42.49-.69C372.14,469.57,371.61,469.76,371.85,470Zm-5.24,2c.18-.19.54-.37.34-.58A.46.46,0,0,0,366.61,472Zm-11.51-3.89a3.31,3.31,0,0,0-.93,1.29,11.92,11.92,0,0,0,2.4-3.24,10.79,10.79,0,0,1-1.78,1.89C354.9,468.26,355,468.14,355.1,468.16Zm8.69-9.69c.29.06.46-.54.7-.74C364.22,457.44,363.5,458.12,363.79,458.48Zm1,.44c-.44.48-.7,1.06-1,1.33C364.21,460.34,365,459.46,364.76,458.91Zm-12,18.66c.16.25.33-.15.49,0-.29.26-.24.48-.33.72,1-.1,1.06-1.12,2.14-1.54a.59.59,0,0,0-.26.78c.62-.21.92-1.08,1.47-1.16l-1,1c-.09.28.37.13.24.37s-.62.7-.91,1.06c-.14-.16-.07-.31-.3-.3-.33.7-.81.7-1.1,1.14.25.29-.16.63,0,.92.51-.25.76-.73,1.1-1,.25.21-.34.47-.22.69a24.22,24.22,0,0,0,4.66-5.58c-.86.47-1.21,1.2-1.88,1.54.23-.57,1.42-1.13,1.29-1.72-.68.52-1,1.15-1.74,1.42.4-.31.44-.68.77-.8-.28-.21-.56.22-.83.48-.17-.41-.34.13-.51,0-.06-.38.35-.39.64-.81-.45-.3.74-1.14.69-1.67-.24,0-.72.84-1.14.83.66-.88,1.37-1.77,1.28-2.64-.26.09-.5.54-.76.29.1-.57,1-1.16.9-1.72-2.39,2.7-5.07,5.07-6.84,7.46a10.66,10.66,0,0,0-.86,1.5c.4.2,1.2-.29,1.26-.71l.29.29c.28-.37.33-.92.8-.64.17-.79,1-1.21,1.49-1.53C353.43,476.59,353,477.16,352.76,477.58Zm20.34-19.32c.78.49.67-.93,1.28-1-.2-.48-.81-.18-1.15-.09A1,1,0,0,1,373.11,458.26Zm3.28-3.54c.28-.71,1.67-.78,1.4-1.75C377,453.42,376.39,453.76,376.39,454.72Zm-23.1,23.89-.45.47C353.07,479.41,353.48,478.79,353.29,478.61Zm4-3.73c.21-.12.39-.21.32-.47C357.46,474.54,357.13,474.63,357.31,474.88Zm5.2-5.3s.44-.56.11-.55C362.78,469.19,362,469.66,362.51,469.59Zm8.26-9.07c.3.39,1.08,0,.6-.45C371,459.91,371.06,460.29,370.77,460.52Zm-2,2.46c-.15-.14.56-.24.22-.57C368.84,462.56,368.33,463,368.78,463ZM352.94,479.7c.1-.17.54-.37.27-.52l-.38.4Zm23.36-24.16c.3-.21.55-.24.65-.66C376.49,454.38,376.17,455.26,376.3,455.54Zm-13.83,14.53c.09-.16.49-.31.18-.47l-.32.34Zm9.13-8.47c.16.08.26-.24.44-.09-.31.6-.76.75-.64,1.33.67-.44.88-1.22,1.29-1.46-.28-.37-.44.06-.7-.17.06-.28,0-.39.3-.48-.46-.37-.72.49-1.15.3C371.35,461.22,371.29,461.38,371.6,461.6Zm5.2-5.3a3.79,3.79,0,0,0,1.2-1C377.33,455.19,376.35,455.4,376.8,456.3Zm-11.45,11.53c.15.2.25-.34.42,0a4.72,4.72,0,0,0-1.16,1.46c.58-.5,2.41-1.84,2.07-2.39,0,.08-.64.79-.93.64,0-.44.72-.72.81-1.29C366.14,466.59,365.28,467.21,365.36,467.82Zm5.84-6c-.19-.37-.61.19-.48.31C371.06,462.22,370.93,461.79,371.19,461.84Zm3.47-3.36c-.25-.29-.4,0-.6.07C374.34,459,374.48,458.66,374.66,458.48Zm3.67-3.55c.43,0,.43-.55.74-.57.08.39,1,.22.94-.25-.15.18-.3.34-.5.16-.09-.6,1.15-1.2,1.1-1.66C379.89,453.33,378,453.8,378.33,454.93Zm-15,15c.33-.38.6-.26.58-.74C363.71,469.42,363,470,363.28,469.95Zm5.32-4.8c-.48.16-.47.64-.93.78C368,466.19,368.57,465.37,368.6,465.15Zm6-5.54c.19-.2.79-.26.5-.68C374.9,459,374.33,459.25,374.61,459.61Zm.65-.66a.32.32,0,0,0,.3-.49C375.36,458.43,375,458.7,375.27,459Zm20-20.52a7.31,7.31,0,0,0,.63-.81C395.62,437.39,394.83,438.11,395.31,438.43ZM353,481.54c.32-.05.35-.48.72-.72C353.31,480.73,352.91,481.25,353,481.54Zm14.19-13.26c-.29.34.11,0,.23.22-.09.11-.27.21-.19.33.33-.25,0,.28.45.31-.27.06-.06.48-.34.32s.11-.27,0-.41c-.36.38-.79.44-.8.9.44-.09.43.15.37.5.13-.39,1.17-.95.93-1.3.35-.34.27-.18.22.09l.55-.5c-.3-.41-.17.26-.36,0-.07-.41.5-.34.7-.35.28-.72,1.07-1,1.77-1.78-.72-.29.08-.35-.22-.73-.31.37-.84.67-1,1.24.28-.16.53-.69.83-.62-.2.54-1,.73-1.36,1.27-.15-.25.42-.43.09-.69-.17.07-.05.49-.34.32.06-.38.65-.67,0-.42.57-.61,1.33-.89,1.23-1.66-.4.33-.48.31-.44.74-.13,0-.63-.11-.49.17.09-.05.29,0,.23.09-.37-.16-.21.55-.56.23-.12-.27.47-.08.11-.42a26.9,26.9,0,0,0-2.14,1.8c.19.46-.17.75-.64.93C366.4,469.26,366.48,468.35,367.14,468.28Zm-1.74,1.41c.21,0,.74-.46.52-.66-.14.1-.08-.16-.21-.08C365.77,469.16,365.06,469.32,365.4,469.69Zm5.4-5.1a6.5,6.5,0,0,0,2.48-2.77C372.43,462.61,370.83,463.55,370.8,464.59Zm25.95-27.87c.13-.08.28-.38.53-.65-.05-.06-.15.07-.09-.09C397,436.38,396.63,436.47,396.75,436.72Zm-23.26,24.91c1.13,0,2.12-1.86,3-2.49C375.24,459,374.35,460.85,373.49,461.62Zm4.57-4.23.58-.6C378.34,456.44,377.8,457.18,378.06,457.39Zm-18.14,18.49c.1-.35.49-.3.4-.65C360.2,475.45,359.62,475.67,359.92,475.88Zm20.24-19c.06-.17.48-.29.29-.49-.23,0-.28.59-.75.05-.29.23-.53.72-.86.71C379.36,457.48,379.59,456.19,380.16,456.86Zm-8.25,7.64c.21.32.38.26.56.29.14-.38,0-.72.57-.87-.15-.18-.27-.12-.41-.28A3,3,0,0,1,371.91,464.5Zm3.17-2.87c.29.26.55.3.78.12-.32-.22-.26-.39-.47-.6C375.22,461.3,375.06,461.45,375.08,461.63Zm5-3.95c.25-.29.56-.27.79-.65-.16-.18-.27-.12-.42-.29-.12.19-.1.39-.35.56a.93.93,0,0,1-.3-.42C379.31,457.23,380,457.35,380.08,457.69Zm-13.59,12.81c-.18-.26.21-.07.27-.25-.17-.21-.34-.29-.5-.1C366.53,470.24,366.13,470.61,366.49,470.49Zm-.21.06c-.14-.32-.59.2-.48.31S366.12,470.72,366.28,470.55ZM358.8,481.3c.52-.41.22-.61.92-1-.34-.21-.73.55-1.1.75C358.76,481.09,358.68,481.19,358.8,481.3Zm38.64-42.47a8.47,8.47,0,0,0,.54-1.29C397.83,438,397.45,438.38,397.44,438.83ZM396,442c.52-.22.76-1.08,1.1-1.91A7.7,7.7,0,0,0,396,442Zm-30.44,34.38c.21-.16.42-.13.63-.29-.16-.12,0-.22-.07-.33C365.87,476,365.65,476,365.61,476.39Zm-1.48,1.41c.19-.31.38-.21.29-.5C364.31,477.47,363.82,477.63,364.13,477.81Zm-5.46,7c.23-.26,1.38-.91,1.49-1.53C359.62,483.79,358.67,484.3,358.67,484.81Zm2.55-2.18c.16-.2.65-.39.59-.59C361.67,482.05,361,482.43,361.23,482.63Zm-2.82,2.18-.51.41C358.16,485.46,358.59,485,358.41,484.81Zm3-1.88a2,2,0,0,0,1.1-1A4.46,4.46,0,0,0,361.4,482.93Zm-30.58,16c.23-.48.85-1.36,1.15-1.22a6.91,6.91,0,0,1,.62-1.6c.2.2.27.59.64.76,0-.46.81-1.12.73-1.24.23-.06.07.47.3.55s.36-.38.49-.42-.13.24-.09.31a57.05,57.05,0,0,0,4.39-5.32c-.82.71-1.78,2.11-2.64,3,.15-.35-.11-.15-.19-.06.17-.57,1.44-1.71,2-2.85-1,1-1.39,1.73-2.49,2.89.79-1.24,1.77-2.41,2.65-3.77-.38-.12-.91.69-1.39,1.23-.18,0,.12-.29.21-.45-.2-.16-.55.53-.81.77a42.42,42.42,0,0,1,7.07-8.55c-.4.72-1.08,1.51-1.56,2.24.44,0,1-1.32,1.43-1.2-.23.05-.15.28-.34.32s.12.2,0,.36c.13,0,.31-.36.42-.11-.16,0-.26.49-.49.3-.13.25,0,.15.13.26-.56.59-1.45,1.95-2.15,2.58.37.12.95-1.09,1.43-1.19.09-.12.25-.25.19-.33.2-.16.1.23.17.29s.23-.23.34-.31-.78.87-.81,1.16c.25.14.54-.62.69-.62.12.18-.12.55-.27.51a1.53,1.53,0,0,0-.14.64c-.44.21-.21.74-.67.78.11.17-.38.5-.26.66.08,0,.28-.24.53-.52.07.25-.38.47-.41.64.08,0,.18-.12.25,0-.16.28-.22.22-.39.53q-.15-.11.06-.33c-.3.05-.27.46-.41.64a3.27,3.27,0,0,0,1.05-.92,6.33,6.33,0,0,1-1.12,1.5c.15,0,.34-.24.5-.29a9.1,9.1,0,0,1-1,1.2c.25-.14.56-.52.79-.53,0,.06-.08.16-.15.24.11.09.29-.15.46-.33s-.34.42-.47.58c.38-.31.27-.18.52-.14.07,0,.52-.51,0,0,.11.17.24.26.46-.07-.07.33-.63.79-.92,1.18a3.11,3.11,0,0,0,.6-.45.91.91,0,0,1-.21.44c.65-.32.8-.84,1.53-1.36.1.19-.43.53-.65.8.46-.3,0,.17-.21.44.29,0,.77-.66,1.15-1a4.51,4.51,0,0,1-.6,1c.08,0,.17,0,.28-.11-.14.42-.42.31-.81.76l.32-.07c0,.28-.8.75-.8.52l-.54.51c.44-.31.41-.08.12.25a6,6,0,0,0,1.34-1.16c.07.12.21,0,.27.13-.13-.3.39-.34.54-.64,0,.15-.06.4-.33.45.08,0,.16,0,.08.08.69-.48,1.81-1.55,2.33-2-.07,0-.23,0-.18.08-.27-.08.27-.24.43-.23,2-1.76,3.51-3.42,5.55-5.09a10,10,0,0,1-1.39,1.63c0,.15.09.28,0,.43a.79.79,0,0,0-.4.26c.08.09.19,0,.27.13-.55.12-.46.92-1.24,1.25.22.19.28-.35.43-.1-2.09,1.79-3.11,2.89-5.22,4.51,0-.15.43-.39.6-.58a22.25,22.25,0,0,0-1.86,1.43c0-.28.55-.4.52-.66-.69.47-1,.78-1.66,1.23-.33.13.47-.37.35-.44-.86.42-1.93,1.76-2.87,2.25,1.24-1.11,1.73-1.66,3.1-2.94-.21-.06-.51.16-.81.38-.05-.09.11-.24.06-.33a23.58,23.58,0,0,0-2.53,2.07c-.1-.1.15-.3.31-.48,0-.1-.16,0-.27.12.13-.43.91-.81,1-1.19a17.74,17.74,0,0,0-2.31,2c-.19.32.22.21-.21.57,0,0,.15-.09.23-.16a2.52,2.52,0,0,1-.25.41c0-.16-.58.5-1,.83.25-.34.06-.18-.26.13-.17.09.38-.42.48-.57-.21,0-.61.36-1,.72.11-.26-.27.16-.42.24s.14,0,.25-.14a33.48,33.48,0,0,1-3.15,3.15c.57-.56,1.2-1.33,2.09-2.11a7.38,7.38,0,0,1,1.2-1.55c-.31,0-.69.68-1.05.79a2.57,2.57,0,0,1-.76.82c.14-.48,1.18-1.15,1.81-2-.53.23-1.34,1.39-1.79,1.63.09-.26.36-.38.68-.76-.24.08-.32.32-.63.55,0-.16.11-.28.33-.46a7.15,7.15,0,0,0-1.73,1.55c-.14-.05.43-.49.43-.62-.27.19-.05,0,.05-.21-.05-.13-.37.41-.41.25-.42.56-.89,1.14-1.2,1.17a14.81,14.81,0,0,0,1.47-1.68c-.17.06-.25.24-.39.14.15-.1.62-.6.31-.47.29-.16.51-.73.81-.9-.06-.07-.12-.14-.22-.08a5.78,5.78,0,0,1-1,1.38c0-.06.24-.31.34-.45s-.23,0,.1-.29c0-.09-.13.05-.23.17s.22-.3.3-.36.18-.54.24-.81.25-.21.43-.48-.45.24-.59.2c-.2.35-.16.56-.39.91-.12.11-.05,0-.08-.07-.28.44-.93,1.09-1,1.53.11,0,.88-1.12,1.15-1.21-.79.95-.9,1.25-.67,1.29,0,.12-.6.57-.33.59-.4.49-.58.84-.93,1.3.24-.16.33-.4.57-.61,0,.16-.58.66-.28.63-.27.26-.33.39-.68.76.06,0,.26-.25.27-.13-.37.43-.61.62-1,1a7.6,7.6,0,0,0,1-1c0,.05,0,.13-.15.24a15.9,15.9,0,0,1,1.25-1.25c.08.17-.65.65-.47.71l-.91.8a.35.35,0,0,1,.09-.17c-.45.32-.47.54-.93,1,.06,0,.19-.05.25,0a5.4,5.4,0,0,1,.81-.77,1.13,1.13,0,0,1-.38.54s.23-.21.3-.23c-.1.17-1.56,1.28-1.38,1.51a9.89,9.89,0,0,0-.91.93,10.07,10.07,0,0,0,1.22-1.14c.11,0-.43.55,0,.24.06,0-.32.28-.16.24a6.08,6.08,0,0,0-.48.44c.15,0,.23-.06.16.16.14-.06.16-.16.36-.3-.06.14-.83.68-.56.62-.49.34-1,.87-1.57,1.32.09-.19.7-.6.63-.69a2.7,2.7,0,0,0,.68-.64,4.63,4.63,0,0,0-.47.33c.07-.14.75-.66.71-.73a11.4,11.4,0,0,0-1.06.91s.2-.24.38-.41a3.48,3.48,0,0,0-.5.42s-.07,0,0-.14c-.1.06-.47.51-.5.42.55-.56,1.42-1.47,1.89-1.91-.16,0-.66.57-1,.88-.08-.06.53-.6.8-.9-.11,0-.34.33-.63.56a5.54,5.54,0,0,1,.49-.56c-.09-.05,0-.19.21-.44-.22.1-.56.6-.79.79.19-.25.47-.57.79-.92-.25.22-.19.16-.14,0,0,0-.17.16-.26.26s.37-.68.34-.45a1.81,1.81,0,0,1,.46-.59c.08-.13-.17,0,.15-.24-.08,0-.34.3-.54.51.21-.37-.19.13-.53.52-.1,0,.17-.25.19-.33a3.68,3.68,0,0,0-.83.75c.06-.22.49-.62.52-.79,0,0-.07.06-.09,0s-.42.54-.46.46c.28-.3.7-1,1.09-1.4-.17,0,.32-.44.42-.75-1.21,1.32-1.44,2.18-2.57,3.46a.67.67,0,0,1,0-.22c.23-.34.55-.73.86-1.11-.12.06-.35.42-.18.08a1.71,1.71,0,0,0-.33.33c.2-.52.93-1.24,1.2-1.81.34-.3.43-.6.71-.87-.33.51-.6.93-.85,1.25.31-.19.66-.8,1.07-1.17.06-.15,0-.09-.09-.09a6,6,0,0,0-.37.55c.13-.4.74-1.11.94-1.55-.08-.06-.19.06-.06-.19-.09,0-.31.42-.46.59a2.07,2.07,0,0,1,.43-.75.44.44,0,0,0,0-.35,9.87,9.87,0,0,0,.78-1.19C330.3,500,331.08,498.89,330.82,499Zm6.71-1.73-.33.32c.07,0,0,.14.06.19C337.57,497.49,337.54,497.37,337.53,497.23Zm-10,7.34s-.08.15-.08.18c.25-.32.18-.33.09-.3l-.17.23C327.38,504.73,327.47,504.61,327.52,504.57Zm.21-.18c.16-.24.22-.26.35-.44,0,0,.13-.23,0-.21C328,504.05,327.73,504.18,327.73,504.39Zm6-7.61c.28-.32.35-.67.08-.57C333.61,496.52,333.84,496.57,333.77,496.78Zm-.15.51c.3-.27.18-.52,0-.28C333.56,497.12,333.48,497.26,333.62,497.29Zm4.78-4.42c.27-.33.35-.6.66-.52a21.51,21.51,0,0,0-1.58,2c.29-.18.35-.51.71-.73-.09.11-.22.24-.11.28.1-.38.56-.36.26-.14.29-.21.23-.39.63-.55a1.38,1.38,0,0,1-.34.45c.07.19.31-.28.39-.13-.16.11-.36.46-.12.28,0-.24.72-.71.74-1-.09,0-.25.26-.33.2.53-.66,1.15-1,1.3-1.59-.19.22-.38.42-.51.41.41-.58.72-.73,1.06-1.17-.09-.21-.31.28-.41.12s.43-.4.37-.68c-.26,0-.47.79-.75.69a5.47,5.47,0,0,1,.86-1c-.58,0-1.18,1.46-1.77,1.78a.26.26,0,0,1,0-.29c.19-.27.63-.61.53-.79-1.77,1.69-3.09,3.88-5,5.85,0,.12-.05.29.09.35.44-.52,1.07-1,1.15-1.48.06.08.15,0,.28-.12a17,17,0,0,1,1.48-1.8c.21-.27.36-.69.57-.74C338.28,492.72,338.42,492.76,338.39,492.87Zm-4.84,5.4a1.52,1.52,0,0,0,.25-.41c-.11.11,0,0-.08-.08C333.59,498,333.43,498.2,333.55,498.27Zm-4.07,5.24c.12-.17.51-.52.39-.53C329.74,503.22,329.49,503.35,329.48,503.51Zm3.63-3.59a2.06,2.06,0,0,0,.6-.71C333.55,499.35,333.07,499.78,333.11,499.92Zm7.56-6.1c.13-.18.53-.43.49-.56C340.94,493.46,340.67,493.59,340.68,493.81Zm1.19-.26c.14-.18.54-.42.5-.55C342.18,493.13,341.83,493.39,341.87,493.55Zm5.8-3c.47,0,.74-.74,1.08-.76C348.34,489.73,347.91,490.34,347.66,490.52Zm-1.09,1.27-.92.79C346,492.63,346.58,491.9,346.58,491.8Zm-18.77,13.32s-.13.13-.15.12a1.51,1.51,0,0,0-.26.4,1.9,1.9,0,0,0-.28.25c.11-.2.52-.65.75-1,0,.05-.07.14,0,.23s-.14.13-.25.27C327.6,505.32,327.73,505.27,327.81,505.11Zm15.77-12.48c0-.08.53-.43.75-.69-.07,0-.2.75-.6,1.1a.57.57,0,0,1,.18-.47c-.1-.07-.31.26-.42.23S343.89,492.53,343.58,492.63ZM337,500.19c-.14.13-.11.4.21.08.25-.11-.37.36-.39.27.14.16-.69.62-.84.87a5.49,5.49,0,0,0,1.22-1c.14-.11.14.05.3-.09s0-.06,0,0c.49-.26-.21.21-.27.26a7.84,7.84,0,0,0-.94,1c.28-.18.51-.27.82-.49a39,39,0,0,1-3.92,3c-.06,0-.16.24,0,.12-.41.36-1.37.94-1.76,1.26.05.14.58-.37.7-.48a6.85,6.85,0,0,0,1.94-1.47c.26-.07,1-.46,1.08-.76.18.09.84-.57,1.11-.61,0,.11-.3.31-.56.49s.37-.26.26-.27c-.4.27-1.07.73-1.52,1.11.4-.19-.31.34-.52.53a6.54,6.54,0,0,0-1.65,1.11c0,.13.32-.18.33-.07a8.61,8.61,0,0,1-1.19.91c-.19.07,0-.06,0-.12-.51.32-1.07.71-1.52,1,.62-.44,1.53-1.09,2.05-1.5a6.63,6.63,0,0,1-.75.44c0-.1.12-.24.45-.47a6.51,6.51,0,0,0-.72.47,14.53,14.53,0,0,1,1.21-1,7.79,7.79,0,0,0-.84.6c.06,0,.28-.37.49-.56.08.1.38-.31.48-.31-.13,0-.15.1-.39.27l-.07-.07c.28-.2.41-.33.38-.41a8.21,8.21,0,0,0,1.24-1c.17-.09.21,0,.45-.2-.14.19-.44.3-.64.54a4.32,4.32,0,0,0,.65-.4c0,.05-.25.16-.25.27a6.6,6.6,0,0,0,.84-.61c-.15.2.32-.14,0,.15.39-.07.44-.45.95-.76-.14,0-.74.54-.57.22-.35.31-.45.34-.89.69.26-.37,1.08-.88,2-1.69-.49.21-1,.91-1.46,1,1-.88,1.06-1,2.32-2-.21,0-.37.31-.63.42C336.22,500.75,336.72,500.42,337,500.19ZM335,502.34a3.43,3.43,0,0,0,1.13-.84c-.06,0-.11,0-.13,0C335.66,501.87,335.13,502.11,335,502.34Zm-1.65,1.5c.19-.18,1-.73.73-.71C334,503.39,333.41,503.64,333.4,503.84Zm.09-.3a2.43,2.43,0,0,0-.74.71C333.18,503.95,333.52,503.67,333.49,503.54Zm3.14-3.42c.37-.16,1.71-1.43.37-.16.42-.1-.32.23-.57.48,0,.09.31-.29.3-.1-.72.5-.76.92-1.46,1.3.11-.22.51-.37.62-.56-.89.56-1.28,1-2.21,1.6-.66.49.7-.66,1.1-1-.16,0-.54.38-.78.53a4.33,4.33,0,0,1,.8-.77,4.52,4.52,0,0,0-.64.42,29.12,29.12,0,0,1,2.28-2.19.45.45,0,0,0,0,.12c.36-.32,1.05-1,1.44-1.32.12-.1.11-.13.08-.18l.51-.28c.06.16-.5.5-.61.7.31-.08.53-.53.69-.37a3.81,3.81,0,0,0-.58.61C338.43,498.74,336.83,499.63,336.63,500.12Zm-3.5,2.94a1.78,1.78,0,0,0,.49-.17,3,3,0,0,1-.78.67C332.8,503.45,333.2,503.16,333.13,503.06Zm-4.33,4.2s.07-.06.07-.06.13-.1.14-.12c.24-.16,0,.08.05.05C328.74,507.37,328.93,507.17,328.8,507.26Zm16.72-12.33c-.09-.06-.28.17-.38.15.06-.16.22-.2.37-.29.07.07,0,.15,0,.23S345.44,495,345.52,494.92Zm.11-.16c.08-.34.6-.48.88-.83.17,0-.39.3.09.22l-.3.23a.19.19,0,0,0-.05-.18l-.15.11c-.09.1.08,0,.12.12C345.89,494.67,345.92,494.4,345.63,494.77Zm-8.17,6.42c0-.05.62-.22.66-.39.26,0-.59.52-.76.56s.12-.12.2-.19S337.5,501.15,337.46,501.19Zm-6.34.8c.16-.35.43-.37.7-.74,0,.11-.33.41-.29.5s-.28.2-.48.44c0,0,.1-.14.17-.23S331.17,501.94,331.11,502ZM355.41,480c.13.23.3-.06.43.17l.6-.58a.72.72,0,0,1-.17.75c.1.11.21,0,.31.17-.33.32-.14.42-.55.63-.2-.23.28-.5.17-.74a2.84,2.84,0,0,1-1.36.61.54.54,0,0,1-.29.62c-.22-.15-.08-.32-.34-.47A15.55,15.55,0,0,1,355.41,480Zm-24.93,25.35c.15-.12-.06,0-.12,0,.46-.42,1.08-.88,1.8-1.49,0,.09.17,0,.32-.08a6.37,6.37,0,0,1-1.07.9,1.19,1.19,0,0,1,.47-.45c-.24,0-.63.54-1,.73.11,0-.32.29-.28.38a24.93,24.93,0,0,0-2,1.54c.18-.23-.13,0-.41.24A10.32,10.32,0,0,1,330.47,505.39Z" transform="translate(-110.45 -18.67)"/><path class="cls-2" d="M401.43,928.1c-49.56-1.72-86.78-24.12-106.54-69.54-19.84-45.6-12.39-89,21.38-126.21,11.75-12.95,14.32-28,16-43.92.31-3-1-6.77.38-8.77,3.08-4.33,7.45-7.73,11.29-11.52,3.55,4.06,10.28,8.25,10.12,12.16-1,24.62-4.73,47.95-22.87,67.86-48.61,53.37-23.5,136.15,46.15,155.29a94.2,94.2,0,0,0,104.57-40.9c22.23-35.23,19.47-82.64-8.77-112.75-18.27-19.49-23.15-42.4-24.5-67.34-.42-7.84,2.2-13.79,10.47-14.11,8.48-.33,10.95,6.22,11.66,13.52.79,8.12.41,16.62,2.8,24.25,2.68,8.58,6.38,17.68,12.21,24.29,30.6,34.67,40.8,74,26.29,117.89S465.5,917.83,420.37,927C414.23,928.21,407.75,927.76,401.43,928.1Z" transform="translate(-110.45 -18.67)"/><path class="cls-3" d="M395.91,924.67l-3.13-.14c-1-.08-2.11-.21-3.17-.31-2.11-.23-4.25-.38-6.38-.66l-6.38-1c-.53-.09-1.07-.15-1.6-.26l-1.58-.35-3.17-.69-3.19-.69-3.13-.9-3.14-.9-1.58-.45-1.54-.56-6.16-2.26-6-2.71A100.06,100.06,0,0,1,324,898.33l-4.75-4.46c-1.47-1.59-2.91-3.2-4.35-4.8l-1.07-1.2c-.35-.41-.66-.85-1-1.27L310.89,884,309,881.48c-.63-.85-1.16-1.78-1.73-2.66A119.83,119.83,0,0,1,294,851.19a124.71,124.71,0,0,1-6.19-29.41,107.75,107.75,0,0,1,1.63-29.72,115.72,115.72,0,0,1,9.74-28.64,138.32,138.32,0,0,1,14-22.27l4.22-5.12,2.19-2.65L320.8,732l1.07-1.45A57.14,57.14,0,0,0,328.8,718c3.51-8.87,4.86-18.19,5.7-27.25l.16-1.7,0-.43,0-.54c0-.35,0-.7,0-1-.05-1.32-.23-2.47-.33-3.52a7,7,0,0,1,0-2.38,1.34,1.34,0,0,1,.09-.22l.45-.64c.31-.42.63-.84,1-1.25,2.68-3.29,6.14-6.19,9.4-9.51l-2.92-.11a59.89,59.89,0,0,0,4.86,4.52,28.29,28.29,0,0,1,4.2,4.23,4,4,0,0,1,.84,2,1.48,1.48,0,0,1,0,.33v.4l0,.8,0,1.59c-.05,2.12-.19,4.24-.29,6.36-.27,4.23-.66,8.44-1.25,12.63a112,112,0,0,1-2.47,12.42,84.13,84.13,0,0,1-4.08,12l-.61,1.46-.69,1.43c-.47.95-.91,1.91-1.39,2.85-1.05,1.83-2,3.72-3.2,5.47A84.19,84.19,0,0,1,330.63,748l-4.1,5-3.77,5.21a94.65,94.65,0,0,0-11.39,22.91,92.87,92.87,0,0,0,6.5,74A94.21,94.21,0,0,0,352.54,891a98.11,98.11,0,0,0,47.79,13.69A93.88,93.88,0,0,0,448.12,892a95.49,95.49,0,0,0,19.58-15.4l2.16-2.26c.36-.38.73-.75,1.07-1.13l1-1.21c1.3-1.62,2.65-3.21,3.91-4.86l3.54-5.14c.62-.84,1.11-1.76,1.66-2.64l.81-1.34.75-1.37a92.94,92.94,0,0,0,11.51-42.24,89.17,89.17,0,0,0-9.38-42.82,77.81,77.81,0,0,0-5.63-9.49c-1-1.53-2.16-3-3.26-4.45s-2.32-2.86-3.58-4.19l-3.88-4.28-1-1.11-.93-1.16-1.87-2.32c-1.18-1.59-2.35-3.21-3.45-4.86s-2.17-3.34-3.09-5.1L456.57,732l-1.3-2.68c-.91-1.77-1.6-3.64-2.39-5.46a102,102,0,0,1-3.67-11.3,139.7,139.7,0,0,1-3.91-23.19c-.2-1.94-.32-3.88-.46-5.82-.07-.92-.13-2.06-.12-3.15a23.38,23.38,0,0,1,.25-3.38,16,16,0,0,1,2.61-7,12.65,12.65,0,0,1,2.9-3,16,16,0,0,1,1.76-1.09,15.31,15.31,0,0,1,1.85-.77,16.35,16.35,0,0,1,3.67-.78,18.61,18.61,0,0,1,3.65,0,13.53,13.53,0,0,1,7.48,3,15.36,15.36,0,0,1,4.34,6.39,28.28,28.28,0,0,1,1.53,6.49c.49,4.11.61,7.92.86,11.67a66.16,66.16,0,0,0,1.34,10.63c.19.84.42,1.62.66,2.45l.85,2.63q.88,2.61,1.88,5.14a63.53,63.53,0,0,0,4.69,9.59,42.07,42.07,0,0,0,2.94,4.23l3.59,4.32,1.86,2.24c.63.74,1.24,1.49,1.81,2.29l3.47,4.69a131.46,131.46,0,0,1,11.85,20.07l1.27,2.62,1.1,2.7,1.1,2.7c.36.9.76,1.79,1,2.72l1.81,5.54c.33.91.55,1.86.78,2.8l.71,2.82.7,2.82c.2.95.34,1.91.51,2.86.31,1.91.71,3.8.93,5.72l.56,5.76c0,.48.1,1,.13,1.44l0,1.44.07,2.88a126.06,126.06,0,0,1-2.92,28.66l-1.57,6.5c-.58,2.13-1.26,4.21-1.88,6.29-.33,1-.59,2.09-1,3.1l-1.11,3-1.1,3-.55,1.52-.64,1.48L508,864.57c-.94,1.95-2,3.87-2.93,5.83s-2.14,3.84-3.25,5.77l-1.71,2.9c-.61.94-1.27,1.87-1.91,2.81a110.74,110.74,0,0,1-19.31,21.92A112.86,112.86,0,0,1,443,924.32l-5.38,1.85-5.44,1.53-2.7.75-2.71.6-5.33,1.16a55.14,55.14,0,0,1-10.71.91l-4.78,0h-2.23l-2.26,0c1.52-.28,2.72-.49,4.1-.67s2.73-.32,4.12-.46c2.78-.28,5.63-.52,8.5-1,1.44-.22,2.88-.55,4.24-.88l4.16-.93c2.8-.53,5.55-1.34,8.36-2,11.12-2.8,22.33-6.52,32.33-12.22a97.27,97.27,0,0,0,29-25.78,118.44,118.44,0,0,0,17.06-33.54,150.49,150.49,0,0,0,7.3-33.35,113,113,0,0,0-13.89-66.94c-1.42-2.48-2.74-5-4.34-7.34s-3-4.78-4.75-7-3.28-4.54-5.09-6.63l-5.11-6.14a56.21,56.21,0,0,1-7.72-14.18c-.52-1.29-1-2.61-1.46-3.94l-.67-2c-.22-.68-.44-1.36-.61-2a45.17,45.17,0,0,1-1.46-7.93c-.3-2.77-.45-5.64-.64-8.59a88.58,88.58,0,0,0-.91-9.18,25.61,25.61,0,0,0-1.4-5,15.16,15.16,0,0,0-3.05-4.86,12.28,12.28,0,0,0-5.22-3.22,16.5,16.5,0,0,0-5.62-.59,16.06,16.06,0,0,0-5.47,1.26,12.1,12.1,0,0,0-4.8,3.72A14.32,14.32,0,0,0,446,675.1a21.65,21.65,0,0,0-.62,5.18c0,.84,0,1.67.06,2.48l.17,2.25c.1,1.5.23,3,.38,4.51s.29,3,.49,4.51.36,3,.61,4.51c1.76,12,5.12,24.09,11.1,35a85.1,85.1,0,0,0,10.62,15.18l3.07,3.4c1,1.08,2,2.13,2.89,3.27l1.4,1.68,1.32,1.74c.9,1.15,1.71,2.36,2.54,3.56a82,82,0,0,1,8.16,15.48A85.7,85.7,0,0,1,493,794.68a91.79,91.79,0,0,1,1.49,17.49,95.47,95.47,0,0,1-1.85,17.44,91.4,91.4,0,0,1-13.2,32.11,96.94,96.94,0,0,1-47.71,37.86,92.1,92.1,0,0,1-59.88,1.16c-1.34-.4-2.63-.94-3.93-1.41s-2.6-.93-3.83-1.54a76.23,76.23,0,0,1-7.27-3.66,88.13,88.13,0,0,1-13.11-9.06,107.34,107.34,0,0,1-20.83-24c-1.5-2.18-2.78-4.51-4.17-6.81-.68-1.16-1.26-2.37-1.9-3.56l-1-1.8c-.3-.61-.57-1.23-.86-1.85a95.59,95.59,0,0,1-5.86-15.53l-1.06-4.1c-.3-1.38-.54-2.78-.81-4.18-.12-.7-.28-1.4-.37-2.11l-.25-2.13c-.14-1.42-.39-2.84-.43-4.28a75.46,75.46,0,0,1,.85-17.3,12,12,0,0,0,.15,3.83,63.44,63.44,0,0,1,4.08-25.18l.62-1.75c.23-.58.49-1.15.74-1.72l1.55-3.49c.51-1.18,1.19-2.29,1.79-3.46s1.22-2.33,1.93-3.46l2.17-3.38,1.11-1.7,1.22-1.63,2.47-3.28c.85-1.08,1.79-2.09,2.69-3.15l5.35-6.09,2.47-3.15c.82-1.05,1.53-2.18,2.31-3.27a80,80,0,0,0,7.49-14c4.06-9.68,5.93-19.76,6.9-28.72.22-2.42.45-4.84.59-7.29q.13-1.83.21-3.68l.09-1.85c0-.29,0-.65,0-.9a2.65,2.65,0,0,0-.09-.66,7.33,7.33,0,0,0-1.64-2.76,31.63,31.63,0,0,0-2.56-2.58c-1.83-1.69-3.81-3.3-5.61-5.3l1.65.06c-2.8,2.79-5.79,5.31-8.36,8.12-.64.7-1.26,1.42-1.84,2.16-.29.37-.56.75-.84,1.13a2.51,2.51,0,0,0-.34.87,10,10,0,0,0,0,2.57c.09.94.22,1.93.28,3a12.65,12.65,0,0,1,0,1.65l-.14,1.49-.3,2.94c-.21,2-.44,3.93-.73,5.89a96.53,96.53,0,0,1-2.35,11.71,58.58,58.58,0,0,1-10.61,21.44l-7.22,8.89L309,745.34c-1.07,1.51-2.16,3-3.08,4.6a125.26,125.26,0,0,0-13.25,27.15A107.58,107.58,0,0,0,287.08,806a113.72,113.72,0,0,0,2.32,29.36l.81,3.64.4,1.82c.15.6.34,1.2.51,1.8.72,2.39,1.39,4.8,2.14,7.19l2.6,7.08c.4,1.2,1,2.33,1.46,3.49l1.54,3.48a100.11,100.11,0,0,0,17.64,26.41,97.05,97.05,0,0,0,25.3,19.38,120.61,120.61,0,0,0,29.44,10.86,218.15,218.15,0,0,0,30.16,4.59" transform="translate(-110.45 -18.67)"/><path class="cls-2" d="M402.79,609.78c15.63,0,31.27.08,46.9,0,6,0,11.36,1.68,9.73,8.45-.74,3.06-6.27,7-9.69,7.08q-46.32.82-92.67,0c-3.56-.06-7-4.54-10.55-7,3.5-2.84,6.86-7.9,10.52-8.13C372.24,609.25,387.53,609.78,402.79,609.78Z" transform="translate(-110.45 -18.67)"/><path class="cls-3" d="M403.83,612.86c6.31-.47,13.09-2.58,19.34-2,7.66.71,15,3.52,22.78,2.78l3-.28,1.4-.13c.44-.05.86-.06,1.29-.09a10.11,10.11,0,0,1,4.3.6,2.33,2.33,0,0,1,1.1.92,3.51,3.51,0,0,1,.46,1.81,9.51,9.51,0,0,1,0,1.19c0,.16,0,.24-.06.39s-.08.3-.16.46a8.15,8.15,0,0,1-1.37,2,14.19,14.19,0,0,1-4.29,3.26,8.52,8.52,0,0,1-1.22.46c-.2.05-.4.08-.61.13l-.74.08-3,.31q-5.93.61-11.87,1.14c-15.83,1.4-31.71,2.28-47.56,2.13-7-.07-14.05.22-21.15.52l-5.32.22-2.66.1a9.17,9.17,0,0,1-2-.13,10,10,0,0,1-2-.59,15.72,15.72,0,0,1-3.05-1.69c-.86-.6-1.65-1.2-2.36-1.78-1.43-1.16-2.72-2.24-3.84-3l-4.5-3,4.24-3.66c1.2-1,2.53-2.5,4.08-4a28.76,28.76,0,0,1,2.66-2.34,12.59,12.59,0,0,1,3.93-2.11,8,8,0,0,1,1.35-.3l.72-.08h2c1,0,2.07,0,3.1.09q3.09.14,6.14.51a69.21,69.21,0,0,0,20-.32,64.12,64.12,0,0,1,14.94.24c-4,3.23-8.25,0-12.3-.89-4.69-1.08-9.17,0-13.65.73a56,56,0,0,1-12.45.25c-2.1-.13-4.19-.27-6.27-.33l-.78,0a6.14,6.14,0,0,0-1,0,7.12,7.12,0,0,0-1.34.21,7.26,7.26,0,0,0-1.19.38,12.61,12.61,0,0,0-3.47,2.13,39.59,39.59,0,0,0-3.38,3.35c-1,1.07-1.91,2.08-2.79,2.88l-3.72,3.41,3.95,2.44c1.19.74,2.52,1.82,4,3a22.15,22.15,0,0,0,5.43,3.36l.94.3c.33.08.69.15,1,.21s.75.06,1.12.07l.71,0,2.73-.11,5.47-.19a213.28,213.28,0,0,1,21.85.23c8.15.59,15.3-.79,23.05-1.5,4.14-.37,7.9,1.54,12,1.37s8.15-2.87,12.41-2.59a1.19,1.19,0,0,0-.69.65c2.54-2.52,6.32-3,10.29-2.85,1,0,2,.11,3,.2l1.5.15.65.06a2.35,2.35,0,0,0,.55,0,9.2,9.2,0,0,0,4.58-1.72A12,12,0,0,0,457,620.2a5.75,5.75,0,0,0,1.24-2,7.78,7.78,0,0,0,.2-1.18,8.44,8.44,0,0,0,0-1.22,3.94,3.94,0,0,0-.71-2,5.22,5.22,0,0,0-3.89-1.68,13.72,13.72,0,0,0-2.48,0c-.84.07-1.64.23-2.58.37-7.71,1.28-14.91-.37-22.42-1.42-7.78-1.08-16.06,3.67-23.57,1.7" transform="translate(-110.45 -18.67)"/><path class="cls-2" d="M402.79,652.5c-15.26,0-30.55.46-45.76-.33-3.63-.19-7-4.56-10.54-7,3.52-2.84,7-8.06,10.58-8.14,30.88-.65,61.78-.33,92.67-.41,6.06,0,11.3,1.87,9.68,8.55-.74,3.05-6.24,6.84-9.74,7C434.07,652.93,418.42,652.5,402.79,652.5Z" transform="translate(-110.45 -18.67)"/><path class="cls-3" d="M401.74,649.42c-6.34.47-13.09,2.66-19.35,2.1-7.67-.68-14.87-3.53-22.58-3.13-1.17.06-2.93.14-3,.16a6.35,6.35,0,0,1-2.44-1c-1.94-1.16-4-2.9-6.48-4.4L348,647a42.77,42.77,0,0,0,3.47-4,32,32,0,0,1,3.14-3.52,6.92,6.92,0,0,1,1.68-1.15,3.44,3.44,0,0,1,.88-.26l1.24-.14,5-.53q9.93-1,19.89-1.79c13.27-1,26.55-1.55,39.82-1.5,5.52,0,11.09-.19,16.67-.49l8.39-.48,1-.06.52,0,.59,0a23.3,23.3,0,0,1,2.43,0,15.79,15.79,0,0,1,5.31,1.17,10.32,10.32,0,0,1,2.81,1.79,8.82,8.82,0,0,1,2.15,3.07,9.81,9.81,0,0,1,.76,3.45,13.32,13.32,0,0,1-.25,3,8.42,8.42,0,0,1-.53,1.82q-.2.43-.41.85c-.14.27-.29.48-.44.72a13.26,13.26,0,0,1-1.91,2.29,18.7,18.7,0,0,1-4.28,3.09,17,17,0,0,1-2.48,1.08,12.06,12.06,0,0,1-3,.65,11,11,0,0,1-1.29,0h-1.05c-.7,0-1.4,0-2.1-.05-2.8-.09-5.59-.32-8.35-.67a67.19,67.19,0,0,0-19.94.3,63.72,63.72,0,0,1-14.95-.21c4-3.24,8.26-.06,12.31.87,4.69,1.07,9.16,0,13.64-.74a54,54,0,0,1,12.43-.19c2.09.14,4.18.31,6.25.41l1.54.06.77,0c.09,0,.34,0,.54,0l.61,0a12.48,12.48,0,0,0,3.9-1.17,19.07,19.07,0,0,0,3.35-2.07,16.51,16.51,0,0,0,3-2.88,10.65,10.65,0,0,0,1.3-2.08c.1-.22.19-.4.28-.64s.16-.5.23-.75a3.81,3.81,0,0,0,.13-.61l.08-.53a13.64,13.64,0,0,0,.15-2.24,10.5,10.5,0,0,0-.4-2.49,8.36,8.36,0,0,0-3-4.35,11.12,11.12,0,0,0-4.14-1.84,18.86,18.86,0,0,0-3.86-.44c-.62,0-1.23,0-1.84,0l-1.67.09a214.23,214.23,0,0,1-26.35.22c-8.15-.55-15.29.84-23,1.53-4.14.37-7.89-1.55-12-1.39s-8.16,2.86-12.42,2.57a1.19,1.19,0,0,0,.69-.65c-2.55,2.52-6.32,3-10.29,2.84-2-.08-4-.3-6-.5l-1.45-.14-.36,0h-.24a1.5,1.5,0,0,0-.5,0,4.94,4.94,0,0,0-2,.89,24.77,24.77,0,0,0-3.45,3.24c-1.12,1.21-2.24,2.49-3.56,3.72l-.07-2.16c2,1.22,3.65,2.62,5.36,3.73a13.75,13.75,0,0,0,2.49,1.34,3.36,3.36,0,0,0,2,.27s.4,0,.61-.07l.72-.06q.71-.05,1.42-.08,1.41-.05,2.8,0c1.86.05,3.69.22,5.53.45,3.67.46,7.32,1.15,11.07,1.67,7.78,1.08,16-3.79,23.57-1.81" transform="translate(-110.45 -18.67)"/><path class="cls-2" d="M402.84,598.69c-11.93,0-23.9.58-35.76-.36-3.53-.28-6.73-4.81-10.07-7.39,3.28-2.68,6.5-7.59,9.86-7.68q36.31-1,72.67,0c3.32.09,6.52,4.87,9.77,7.48-3.19,2.65-6.22,7.34-9.59,7.6C427.48,599.26,415.14,598.7,402.84,598.69Z" transform="translate(-110.45 -18.67)"/><path class="cls-3" d="M402,595.61c-5.19.47-10.68,2.69-15.78,2.14-6.27-.68-12.07-3.55-18.25-3.27a5.46,5.46,0,0,0-.61,0l-.09,0h-.14a2.34,2.34,0,0,1-.81-.16A11.09,11.09,0,0,1,364,593.1c-1.68-1.16-3.41-2.68-5.55-4l.05,3.69c2.13-2.19,3.52-4.47,5.21-6.34a7.52,7.52,0,0,1,2.7-2.12,11.41,11.41,0,0,1,1.82-.32l2-.27c5.34-.7,10.69-1.33,16-1.84a292,292,0,0,1,32.19-1.43c5.55.08,11.16-.16,16.8-.42l4.23-.19h.39l.51,0a5.27,5.27,0,0,1,1,.16,9.17,9.17,0,0,1,1.67.55,14.7,14.7,0,0,1,2.49,1.47,41.61,41.61,0,0,1,3.55,3c1,.95,2,1.82,2.82,2.45l3.87,2.89-3.81,3.48c-1,.89-2.08,2.13-3.36,3.45a28.86,28.86,0,0,1-2.16,2,14.34,14.34,0,0,1-3,2c-.33.15-.67.29-1,.42s-.77.22-1.15.31-.88.12-1.25.15h-.67c-.89,0-1.79,0-2.67-.07-1.78-.08-3.54-.26-5.29-.52A46.79,46.79,0,0,0,415,602a42.76,42.76,0,0,1-12.17-.25c3.24-3.23,6.72,0,10,.9,3.82,1.09,7.49,0,11.16-.72a38,38,0,0,1,10.2-.26c1.72.12,3.45.26,5.16.32l.66,0c.39,0,.79-.07,1.18-.13s.71-.17,1.06-.27.63-.24.94-.37a12,12,0,0,0,2.81-1.83,34.16,34.16,0,0,0,3.1-3.18c.89-1,1.72-2,2.49-2.71l3.31-3.23-3.36-2.35a34.8,34.8,0,0,1-3-2.45,41.54,41.54,0,0,0-3.62-3,12.92,12.92,0,0,0-2.48-1.39l-.76-.28-.86-.2a7.69,7.69,0,0,0-1.6-.1l-4.35.16a143.13,143.13,0,0,1-17.35-.33c-6.66-.61-12.5.76-18.82,1.47-3.38.37-6.45-1.53-9.8-1.36s-6.64,2.89-10.12,2.62a1.07,1.07,0,0,0,.55-.65c-2.05,2.53-5.12,3-8.37,2.88-.81,0-1.63-.1-2.45-.19s-1.77-.22-2.11-.24a3.83,3.83,0,0,0-1.75.51,7.59,7.59,0,0,0-1.63,1.14c-1.75,1.57-3.26,3.56-5.22,5.43l0-2c1.65,1.12,3.11,2.36,4.57,3.41a9.65,9.65,0,0,0,4.13,2,2.6,2.6,0,0,0,.61,0,.87.87,0,0,1,.23,0l.57,0c.76,0,1.51,0,2.26,0a41.82,41.82,0,0,1,4.45.51c3,.48,5.92,1.19,9,1.71,6.34,1.08,13-3.84,19.22-1.85" transform="translate(-110.45 -18.67)"/><path class="cls-2" d="M429.87,571.48H378.11c4.55-11.23,14.07-14.29,23.79-14.91C412.87,555.87,422.71,559.67,429.87,571.48Z" transform="translate(-110.45 -18.67)"/><path class="cls-3" d="M426.7,569.95a17,17,0,0,0-3.38.57,11.3,11.3,0,0,1-4.08.26,51.55,51.55,0,0,1-6.7-1.49c-2.21-.58-4.21-1.11-5.73-.92-4.19.54-8.62,1.4-13.43,2.29s-10,1.78-15.28,2.37l-2.13.24.69-2.37a22.7,22.7,0,0,1,3.42-7.08,19.72,19.72,0,0,1,6-5.39,45,45,0,0,1,16.47-5.71,24.84,24.84,0,0,1,9,.32,17.24,17.24,0,0,1,8,4.21,38.56,38.56,0,0,0,4,3.43c.66.46,1.3.95,2.05,1.39s1.49,1,2.38,1.5a11,11,0,0,1,2.74,2.79c.21.29.41.59.59.89l.21.34c.09.16.18.32.27.5a8.3,8.3,0,0,1,.46,1.08,7.48,7.48,0,0,1,.39,2.2,8.59,8.59,0,0,1-.11,1.61c-.71-1.25-1.31-2.16-1.78-2.95a12.64,12.64,0,0,1-.61-1.14c-.08-.18-.18-.4-.23-.54a3.55,3.55,0,0,1-.1-.41c-.22-1.12,0-2.63-.42-3.73-.81-2.63-3.46-3.63-5.76-4.48a27.09,27.09,0,0,1-5.66-3.39,16.43,16.43,0,0,0-6-2.94c-4.54-.94-9.29-.25-13.56.78a66.89,66.89,0,0,0-12.91,4.48,11.09,11.09,0,0,0-4.59,4.2,24.75,24.75,0,0,0-2.37,5.47,6.88,6.88,0,0,1-2,2.54l-1.19,1.08,2.72,1.18a6.34,6.34,0,0,0,2.87.75c2-.14,3.8-2.8,5.84-2.47-.12.08-.2.29-.23.63.87-2.47,2.46-2.86,4.34-2.63s4.07,1,5.66,1.08a30.13,30.13,0,0,0,9.61-1.27,10.7,10.7,0,0,1,5.05.09c1.95.36,4.14.9,6.3,1.29a8.23,8.23,0,0,0,4.65-.56,8.42,8.42,0,0,1,5,0" transform="translate(-110.45 -18.67)"/><path class="cls-2" d="M435.51,773.9a58.64,58.64,0,0,0-.05,16.85,116,116,0,0,0,4.2,16.32c3.4,10.78,7.3,21.38,11,32.17l1.35,4.1.64,2.12a19,19,0,0,1,.56,2.47l.05.42c0,.24,0,.48,0,.73v.18a2.58,2.58,0,0,1-.11.51,3.73,3.73,0,0,1-.75,1.38,3,3,0,0,1-1.24.86,3.75,3.75,0,0,1-.77.21,2.89,2.89,0,0,1-.61,0,5,5,0,0,1-1.26-.24l-.56-.25a7.16,7.16,0,0,1-.81-.46,22.81,22.81,0,0,1-2-1.51c-1.18-1-2.26-1.92-3.33-2.87-2.14-1.89-4.22-3.75-6.34-5.5a44.64,44.64,0,0,0-6.31-4.54,9.1,9.1,0,0,0-1.39-.65,4.56,4.56,0,0,0-.52-.16H427s0,0,0,0l0-.27c.18-1.52-.44-2.15,0-1.61a1.55,1.55,0,0,0,.46.4,3.32,3.32,0,0,0,.85.52c.52.25.33.18.36.22s0,.09,0,.14a12.76,12.76,0,0,0,0,2.87c.09,1.19.27,2.47.49,3.77.44,2.62,1,5.3,1.63,8.17.14.73.29,1.45.42,2.26a17.78,17.78,0,0,1,.28,2.94,7.44,7.44,0,0,1-.15,1.5l-.12.51a6.22,6.22,0,0,1-.38,1,6.82,6.82,0,0,1-.6,1,6,6,0,0,1-1.83,1.56,5.17,5.17,0,0,1-2.27.67,6,6,0,0,1-2.38-.32,7,7,0,0,1-1.87-1.09,8.81,8.81,0,0,1-1.16-1.22,19.72,19.72,0,0,1-1.67-2.64c-1.36-2.91-2.34-5.44-3.46-8a57.54,57.54,0,0,0-3.45-6.92,10.91,10.91,0,0,0-1.59-2.11c0-.06-.06-.06-.06-.06-.12.22.33-.64.42-.75a4.15,4.15,0,0,0,.37-.87,1.64,1.64,0,0,0,.15-.58.65.65,0,0,0,0-.23s0,.1,0,.1a1.52,1.52,0,0,0,.18.45,3.28,3.28,0,0,0,.44.7,5.43,5.43,0,0,0,.71.85l-.05,0a3.71,3.71,0,0,0-.27.32,8.92,8.92,0,0,0-.73,1.21,32.42,32.42,0,0,0-1.47,3.39L408.89,848a30.82,30.82,0,0,1-2,4.71,7.81,7.81,0,0,1-1.61,2,5.54,5.54,0,0,1-2.7,1.32,5.09,5.09,0,0,1-2.15-.07,5.16,5.16,0,0,1-1.76-.79,6.7,6.7,0,0,1-.61-.49l-.28-.27-.17-.19a6.56,6.56,0,0,1-1.16-1.95,11.49,11.49,0,0,1-.51-1.65,35.82,35.82,0,0,1-.68-4.83c-.25-2.93-.39-5.74-.72-8.26-.09-.61-.18-1.21-.29-1.7-.06-.23-.11-.46-.16-.6l0-.15v0s.23-.1.33-.16a5.91,5.91,0,0,0,.81-.49,3.36,3.36,0,0,0,1.37-1.32c0-.12,0,.08,0,.1s0,0,.05.23a1.54,1.54,0,0,0,.17.49,1.44,1.44,0,0,0,.14.2l.2.38a9.7,9.7,0,0,0,1,1.31l-.08.06c-.12.15-.23.23-.39.46A42.48,42.48,0,0,0,394,843c-1.16,2.49-2.28,5.07-3.41,7.67s-2.21,5.19-3.73,8c-.21.38-.41.73-.72,1.19a7.09,7.09,0,0,1-.57.76l-.41.45a5.56,5.56,0,0,1-1,.75,2.54,2.54,0,0,1-.34.17,4.21,4.21,0,0,1-2.43.22,3.94,3.94,0,0,1-1.61-.82,4.39,4.39,0,0,1-.48-.49,3.15,3.15,0,0,1-.32-.45,4.58,4.58,0,0,1-.63-1.85,9.76,9.76,0,0,1-.06-1.65,45.53,45.53,0,0,1,.51-4.6c.87-5.69,1.93-11.2,2.31-16.57a29.54,29.54,0,0,0,0-3.83,10.1,10.1,0,0,0-.22-1.6,4.22,4.22,0,0,0-.16-.52c0-.18-.25,0,.34-.46a1.54,1.54,0,0,0,.2-.22.71.71,0,0,0,.11-.15l0-.06.05-.12v.07l0,.13a1,1,0,0,0,0,.24,2.06,2.06,0,0,0,0,.44c0,.14.07.31,0,.26a3.09,3.09,0,0,0-.94.46,22.32,22.32,0,0,0-2.9,2.39l-3.06,2.93a22.3,22.3,0,0,1-3.79,3.06,6.34,6.34,0,0,1-1.69.7,3.71,3.71,0,0,1-4.15-1.78,4.91,4.91,0,0,1-.42-1.08,6.49,6.49,0,0,1-.2-1.66,22.11,22.11,0,0,1,.68-4.76c.65-2.86,1.5-5.59,2-8.16a10.56,10.56,0,0,0,.2-1.71c0-.08,0-.22,0-.25v-.07s0,0,0,0l.17,0,.33-.11c.85-.29.72-.71.65-.16a2,2,0,0,0,0,.53,2.35,2.35,0,0,0,.05.34l0,.16h0l-.16.05a4.85,4.85,0,0,0-.64.34,15.31,15.31,0,0,0-1.49,1.11,125.27,125.27,0,0,0-11.48,12.09c-1.86,2.13-3.68,4.29-5.62,6.43-.5.54-1,1.06-1.57,1.62a5.66,5.66,0,0,1-.58.48,1.83,1.83,0,0,1-1.07.38,1.55,1.55,0,0,1-1.59-1.53,1.84,1.84,0,0,1,.05-.48l.06-.2a6,6,0,0,1,.74-1.24l2.59-3.42c6.79-8.9,12.61-18.73,15.48-29.6a49.26,49.26,0,0,0,1.57-16.68,47.83,47.83,0,0,0-4.43-16.26,48.18,48.18,0,0,1,5.11,16.19,50.3,50.3,0,0,1-.91,17.07c-2.48,11.24-8,21.56-14.59,30.9l-2.41,3.46c-.16.23-.4.66-.35.58l0-.07a1.24,1.24,0,0,0,0-.34,1.5,1.5,0,0,0-.37-.9,1.41,1.41,0,0,0-1.07-.46c-.71.09-.56.19-.6.15l.23-.22c.42-.43.88-1,1.32-1.49,1.78-2.14,3.53-4.38,5.31-6.59a127.35,127.35,0,0,1,11.42-13,19.28,19.28,0,0,1,1.86-1.5,9,9,0,0,1,1.21-.71,4.21,4.21,0,0,1,2.07-.45,3,3,0,0,1,1.69.68,2.5,2.5,0,0,1,.59.64,2.85,2.85,0,0,1,.34.63,5.26,5.26,0,0,1,.36,1.81,14.33,14.33,0,0,1-.17,2.52c-.45,3-1.19,5.75-1.69,8.44a18.05,18.05,0,0,0-.41,3.65,1.48,1.48,0,0,0,.06.45c0,.06,0-.06,0-.09a1.16,1.16,0,0,0-.38-.44,1.37,1.37,0,0,0-1-.26s.06,0,.24-.16a19,19,0,0,0,2.68-2.42l3-3.07a27.37,27.37,0,0,1,3.55-3.14,8.53,8.53,0,0,1,2.86-1.38,6,6,0,0,1,1.1-.15,4.92,4.92,0,0,1,1.33.16,4.71,4.71,0,0,1,2.25,1.31,7.28,7.28,0,0,1,1.7,3.13,15.68,15.68,0,0,1,.48,2.59,35.25,35.25,0,0,1,.15,4.66c-.18,6-1.06,11.64-1.67,17.18-.15,1.35-.29,2.77-.29,3.86a2.49,2.49,0,0,0,0,.47c0-.08.08-.06-.33-.84,0-.05-.11-.17-.24-.34a2.83,2.83,0,0,0-.39-.4,3.35,3.35,0,0,0-1.38-.71,3,3,0,0,0-2,.16l-.23.1a2.06,2.06,0,0,0-.6.43l-.07,0c-.07.1,0-.06.05-.1s.22-.4.35-.65c1.06-2.19,2.09-4.92,3.1-7.52s2-5.31,3.17-8c.56-1.35,1.16-2.7,1.82-4.07a31.27,31.27,0,0,1,2.41-4.27,9.25,9.25,0,0,1,2.61-2.64l.28-.18.44-.21a7.77,7.77,0,0,1,.92-.34,5.51,5.51,0,0,1,2.61,0,6,6,0,0,1,1.28.51,7.22,7.22,0,0,1,.91.65,5,5,0,0,1,.61.63,5.26,5.26,0,0,1,.45.59,11.11,11.11,0,0,1,1.38,3.24c.24.88.39,1.68.54,2.47.53,3.09.77,5.93,1.12,8.64a28.08,28.08,0,0,0,.63,3.56,2.88,2.88,0,0,0,.13.37.74.74,0,0,0-.1-.2,1.86,1.86,0,0,0-.27-.37l-.26-.27a2.92,2.92,0,0,0-.4-.32,4.19,4.19,0,0,0-1.29-.57,4.14,4.14,0,0,0-1.63-.05,3.77,3.77,0,0,0-1.78.82c-.47.45-.38.43-.35.33a27.55,27.55,0,0,0,1.14-3.17l1.31-4.12a41.84,41.84,0,0,1,1.74-4.48,18.84,18.84,0,0,1,1.37-2.48,10.73,10.73,0,0,1,2.59-2.81,11.26,11.26,0,0,1,1.11-.69,10.13,10.13,0,0,1,1.39-.55,7.94,7.94,0,0,1,3.18-.21,9.15,9.15,0,0,1,4.29,2,19.25,19.25,0,0,1,3.86,4.37,66.55,66.55,0,0,1,4.49,8.1c1.27,2.61,2.47,5.31,3.61,7.49.21.51.54,1.09.46,1a4.92,4.92,0,0,0-.46-.43,4,4,0,0,0-1.42-.81,4.8,4.8,0,0,0-2.11-.3,5.6,5.6,0,0,0-2,.6,4.86,4.86,0,0,0-1.62,1.4,4.07,4.07,0,0,0-.48.76,4.65,4.65,0,0,0-.28.74,2.31,2.31,0,0,0-.07.25c-.07.47,0,.37,0,.44a7,7,0,0,0,0-1.3c0-.6-.12-1.27-.2-1.94-.33-2.72-.74-5.62-1-8.62-.13-1.51-.23-3.05-.22-4.69a19.45,19.45,0,0,1,.7-5.57,8.29,8.29,0,0,1,2.32-3.85,9.56,9.56,0,0,1,1.27-.9,9.72,9.72,0,0,1,1.44-.57,7.29,7.29,0,0,1,2.55-.19,10,10,0,0,1,3.4,1,17.54,17.54,0,0,1,2.35,1.35,51.9,51.9,0,0,1,7,5.94c2.1,2,4.08,4.13,6,6.16,1,1,1.95,2,2.89,2.93.46.45.95.88,1.28,1.15,0,0,.2.16.1.09h-.09a1.74,1.74,0,0,0-.74-.13,3.07,3.07,0,0,0-.49,0,2.59,2.59,0,0,0-.64.17,3.32,3.32,0,0,0-1,.73,2.6,2.6,0,0,0-.65,1.14l-.08.43a.56.56,0,0,0,0,.19s0-.07,0-.11a13.37,13.37,0,0,0-.25-1.7l-.42-2-1-4.07c-2.78-10.93-5.84-21.91-8.38-33a117.64,117.64,0,0,1-2.91-16.89A59.34,59.34,0,0,1,435.51,773.9Z" transform="translate(-110.45 -18.67)"/><path class="cls-3" d="M433.88,777.77a55.88,55.88,0,0,0,1.66,18.38c.77,3,1.7,6,2.65,8.91s2,5.88,3,8.8c2,5.84,4.19,11.64,6.26,17.39,1,2.88,2.06,5.74,3,8.59.46,1.43,1,2.85,1.38,4.28a23,23,0,0,1,1,4.27v0c0,.28,0,.54,0,.82v0l.73.32c.1.21-.82.11-.72-.17v-.13h0v.09l0,.14c0,.09,0,.18-.08.27a3.22,3.22,0,0,1-.23.51,3.1,3.1,0,0,1-.68.86,2.74,2.74,0,0,1-1,.5l-.53.14a1.65,1.65,0,0,0-.4.05l-.11,0a4.46,4.46,0,0,1-1.13-.23l0,0c-.24-.11-.52-.23-.72-.34l-.32-.19c-.11-.08-.25-.15-.34-.23l-1.27-1c-.86-.62-1.64-1.42-2.47-2.12l-4.88-4.37c-1.63-1.46-3.22-2.95-5-4.31-.86-.69-1.74-1.36-2.67-2-.46-.31-.94-.62-1.42-.9s-1.07-.53-1.6-.79l.08,0a2.28,2.28,0,0,0-.44-.16l-.13,0-.27-.06h0l-.16,0h.13l-1.15,1.17a1,1,0,0,0,.09.25.94.94,0,0,0,.35.37,1,1,0,0,0,.75.11l.19-.07.1-.06.16-.13a1,1,0,0,0,.18-.25l0-.11,0-.1v0l0-.1a5.64,5.64,0,0,0,0-1.76,4.24,4.24,0,0,0-.1-.47l-.07-.24v0a1,1,0,0,1,0,.24,1,1,0,0,1-.06.4,1,1,0,0,1-.18.32,1,1,0,0,1-1.36.18,1,1,0,0,1-.21-.2h0l0,.05a2.61,2.61,0,0,0,.86.8l-.17-.11a4.42,4.42,0,0,0,.77.54l.35.17.13.07,0,0-.06,0-.09-.08a1,1,0,0,1-.14-.17l-.06-.1a1.05,1.05,0,0,1-.1-.29,1,1,0,0,1,.07-.63,1.06,1.06,0,0,1,.21-.32,1.1,1.1,0,0,1,.2-.16l.14-.07,0,0,0,0a1.08,1.08,0,0,0-.26.19,1,1,0,0,0-.3.69,1.07,1.07,0,0,0,.38.88l1.51-1.48c-3.39,0-1.22.66-1.88.48v.15s0,0,0,0l0,.21c0,.14,0,.25,0,.37s0,.45,0,.67c0,.43,0,.86,0,1.28,0,.86.16,1.65.23,2.48s.16,1.65.3,2.45l.43,2.38.87,4.77.41,2.34c.07.38.13.78.18,1.18s.09.74.11,1.11,0,.77,0,1.05a5.26,5.26,0,0,1-.11,1c0,.13-.08.35-.12.53a2.93,2.93,0,0,1-.17.41c-.06.13-.09.25-.16.39l-.25.4a4.09,4.09,0,0,1-2.9,1.89,4.57,4.57,0,0,1-1.82-.14,5,5,0,0,1-1.6-.87,12.13,12.13,0,0,1-2.53-3.5l.06.11c-1.4-3.22-2.78-6.42-4.28-9.71-.6-1.29-1.24-2.59-2-3.86-.37-.65-.72-1.24-1.15-1.9-.22-.32-.44-.64-.68-.94a7.94,7.94,0,0,0-.89-1l.16.16a1.63,1.63,0,0,0-1.15-.57h-.87l-.39.74v0h0l0,0,.05-.08a1.27,1.27,0,0,1,.21-.25l1.65-.2.72,1.43a1.28,1.28,0,0,1-.08.31l0,.06,0,0v0h0v0l0,0,.05-.1.1-.2.1-.18,0-.07-.05.06.1-.14a5.32,5.32,0,0,0,.51-1.19l-.07.18a3,3,0,0,0,.28-1.07l0,.15a3.5,3.5,0,0,0,0-.62v-.06l0-.1v0l0-.16a1.33,1.33,0,0,0-.14-.28l-.55-.49-1.94.8-.07.47h0v.21l0,.09,0,.12,0,.13a1.3,1.3,0,0,0,.07.17l.09.15a1.44,1.44,0,0,0,.63.51l-.84-1a6.24,6.24,0,0,0,.34.85l-.07-.15a4.49,4.49,0,0,0,.68,1.07l.76.9-.15-1.73a1.2,1.2,0,0,1,.64-.49l-.62.43a10.46,10.46,0,0,0-1,1.56c-.29.52-.46,1-.69,1.55-.42,1-.92,2.07-1.24,3.08l-1.07,3c-.38,1-.7,2-1.11,2.94a13.29,13.29,0,0,1-1.39,2.56,5,5,0,0,1-2,1.63,4,4,0,0,1-1.21.31,3.71,3.71,0,0,1-1.22-.05,4.7,4.7,0,0,1-1.21-.45l-.22-.14-.27-.21a4.66,4.66,0,0,1-.55-.47l.07.08c-.28-.3-.43-.56-.66-.84l-.47-.93a18.55,18.55,0,0,1-.65-2.21,46.38,46.38,0,0,1-.64-4.84l-.48-5-.24-2.49a19.83,19.83,0,0,0-.56-2.6l0,.11v0l-1-.75a.93.93,0,0,1,.86,1.42.9.9,0,0,1-.21.23h0l-.11.07h0l.07,0,.19-.09.34-.2.64-.39-.08.05a5,5,0,0,0,1-.71A4.68,4.68,0,0,0,397,834l.19-.25.1-.15.06-.1,0-.09,0-.11v0h0a.93.93,0,0,0,0-.11.92.92,0,0,0-.3-.77.9.9,0,0,0-.65-.23l.93,1.07V833l-.32-.69-1.37.25c-.07.15,0,.1-.05.12v.06l0,.07,0,.1v.22a.93.93,0,0,0,0,.13.8.8,0,0,0,0,.13.93.93,0,0,0,.13.27l-.16-.47v.13a1,1,0,0,0,.11.31s0-.06,0-.09l0-.07v.06a2.44,2.44,0,0,0,.11.39,2.49,2.49,0,0,0,.4.7l-.1-.15.26.48a3.8,3.8,0,0,0,.39.55c.26.32.52.56.65.74l0-1.06a.5.5,0,0,1,.23-.18l-.33.26a18.19,18.19,0,0,0-2,3.08c-.58,1.07-1.1,2.14-1.61,3.22-1,2.16-1.9,4.36-2.86,6.53l-2.81,6.53c-.48,1.08-1,2.14-1.51,3.18a12.28,12.28,0,0,1-1.87,2.83l0,0a5,5,0,0,1-.8.62l-.23.13a.9.9,0,0,1-.2.08l-.47.14a3.28,3.28,0,0,1-1.92-.05,3.63,3.63,0,0,1-2.3-3.08v.05c0-.57-.07-1.15-.07-1.72s.07-1.18.13-1.78c.13-1.18.29-2.38.47-3.57l1.08-7.17c.35-2.4.66-4.8.85-7.22a21.45,21.45,0,0,0-.31-7.33l0,.09a.36.36,0,0,0-.06-.19.33.33,0,0,0-.08-.08h0a.25.25,0,0,1,.07.17.21.21,0,0,1,0,.11v0h0l0,0,.17-.15a3.11,3.11,0,0,0,.37-.37l0,0,.15-.2,0,0,.07-.12,0-.06,0-.06v0h0v0l-.44-.19h0v0h0v.13l.45.07h0l-.45-.18v0h0v.06a1.67,1.67,0,0,0,0,.45v0l0,.41a.93.93,0,0,0,0,.2l0,.09v0s0,0,0,0v0s0,0,0-.07a.23.23,0,0,1,.19-.12.23.23,0,0,1,.16.05l0,0,0,0-.17-.11a.61.61,0,0,0-.26.06l-.16.07-.3.15c-.2.11-.38.24-.56.36-.36.25-.7.52-1,.8-.66.56-1.3,1.14-1.92,1.74-1.24,1.19-2.45,2.42-3.7,3.58a19.22,19.22,0,0,1-2,1.64,7.54,7.54,0,0,1-2.23,1.19,3.86,3.86,0,0,1-2.48,0A3.64,3.64,0,0,1,365,837.7h0a4.9,4.9,0,0,1-.42-1.07h0a10.59,10.59,0,0,1,0-4.11c.22-1.37.53-2.72.85-4.06l1-4c.16-.67.31-1.35.44-2s.17-1.36.26-2h0V820l.08.09s0,0,0-.09h0a3.23,3.23,0,0,0,.47-.15h0a2,2,0,0,0,.46-.23,1,1,0,0,0,.18-.16l0,0,0,0s0,0,.09,0a.11.11,0,0,1,.07.11h0v.11l0,.13a3.33,3.33,0,0,0,.12,1l0,.1-.1,0h0l0-.1a34.08,34.08,0,0,0-5.79,5c-1.79,1.85-3.5,3.78-5.2,5.73l-5.06,5.87a61.72,61.72,0,0,1-5.28,5.76H347c.06,0-.06.08-.17.17a1.58,1.58,0,0,1-.34.15,3.76,3.76,0,0,1-.62.13h-.05a1.94,1.94,0,0,1-1.35-.53,2,2,0,0,1-.42-.61,2.1,2.1,0,0,1-.12-.35c0-.06,0-.12,0-.19v-.1a.51.51,0,0,1,0-.23l0,.15A3.14,3.14,0,0,1,344,841v0a6.45,6.45,0,0,1,.76-1.29l0,0c1.78-2.4,3.6-4.77,5.3-7.21s3.31-4.94,4.8-7.51a74.8,74.8,0,0,0,7.13-16.25,50.1,50.1,0,0,0,2.09-17.47,47.14,47.14,0,0,0-4.51-17l1.39-.68a48.69,48.69,0,0,1,5.41,17.78,52.57,52.57,0,0,1-1.64,18.52,78.29,78.29,0,0,1-6.93,17.21c-1.47,2.72-3.06,5.37-4.74,8-.85,1.29-1.72,2.57-2.6,3.83l-1.31,1.89-.66.94-.31.45-.13.22-.07.11,0,.05v0l-.36-.19a8.15,8.15,0,0,1-.9-.51l-.45,0,0-.07.88.25c-.16-.06-.52-.14-.74-.19l-.15,0h0v-.06h.08a3.48,3.48,0,0,0,.59,0l-.67,0a1,1,0,0,0-.05-.17.36.36,0,0,0-.09-.13.46.46,0,0,0-.35-.15h.1l-.24,0h-.06l0-.07a4.21,4.21,0,0,0-.2-.52,1,1,0,0,0-.1-.17l0,0h0l.8.37h0v0l0,0a.93.93,0,0,1-.77.47H345a.94.94,0,0,1-.33-.15l0,0h0l-.79-.66.74-.73c.53-.52,1-1.11,1.51-1.67L354.24,828a90.26,90.26,0,0,1,8.86-9.76,16.56,16.56,0,0,1,2.86-2.06,4.7,4.7,0,0,1,3.91-.4,3.64,3.64,0,0,1,1,.55,4.07,4.07,0,0,1,.76.75,7.54,7.54,0,0,1,.53.93,4.68,4.68,0,0,1,.31.91,10.87,10.87,0,0,1,0,3.61c-.3,2.24-.79,4.39-1.24,6.52-.23,1.06-.44,2.12-.61,3.17-.08.52-.16,1-.2,1.55,0,.25,0,.5,0,.74V835l-.51.11a1.53,1.53,0,0,0-.5.17l.69-.07c-.23,0-.5.05-.68.09l-.28,0h0a.36.36,0,0,0,.17-.1l-.67.25c.12,0,.08-.06-.1.09l-.13.11h0l0,0c-.11-.1,0,0-.09-.07l-.12,0h-.06s0,.09,0-.24a2.62,2.62,0,0,0-.15-.79l-.47.94-.16-.09a1.07,1.07,0,0,1-.36-1.34,1,1,0,0,1,.23-.32,1,1,0,0,1,.24-.17l.06,0h0l0,0,.2-.14.37-.29c.25-.21.5-.43.75-.67.5-.47,1-1,1.48-1.49l3-3.13a26.4,26.4,0,0,1,3.38-3,10.8,10.8,0,0,1,2.09-1.19,9.22,9.22,0,0,1,1.16-.39,7.38,7.38,0,0,1,1.27-.19h.14a6.79,6.79,0,0,1,1.35.13,6.27,6.27,0,0,1,1.32.45,6,6,0,0,1,1.19.76,6.3,6.3,0,0,1,1,1,8,8,0,0,1,1.29,2.32,13.55,13.55,0,0,1,.63,2.41,42.23,42.23,0,0,1,.2,9.39c-.2,3.08-.54,6.13-.89,9.15l-.51,4.52-.16,2.2-.08,1.1,0,.55a1.32,1.32,0,0,0,0,.22v.13h0l-.55.07c-.35,0-.75.11-.81.13l-1.2.62a1.46,1.46,0,0,1-.14-.44l0-.15v0l.84,0h.08a6,6,0,0,0-.8.21l-.09,0h0v0l0-.06-.16-.32.08.13a3.19,3.19,0,0,0-.21-.28,1.28,1.28,0,0,1-.17-.17l.12-.27-.2.21h0l0,0-.08-.06-.22-.12-.22-.1-.09,0h0s0,0,0-.07l-.15,0a1.41,1.41,0,0,0-.79,0,4.69,4.69,0,0,0-.5.19l-.08.05-.06,0,0,0h0l-.11-.11-.8-.63,0,0,1,.65-.06.08c-.92.06,1.9.08-2.11.17-.85-2.22,0-1.41-.28-1.61l0-.08.05-.09.07-.13L379,855l.19-.36.39-.84c.26-.57.5-1.16.74-1.75.48-1.18.94-2.38,1.41-3.59l2.84-7.27.71-1.82.79-1.81c.54-1.2,1-2.43,1.65-3.61a26.67,26.67,0,0,1,2.11-3.56,11.72,11.72,0,0,1,1.4-1.69,11.2,11.2,0,0,1,1.77-1.37l.07,0,.09,0a7.28,7.28,0,0,1,.88-.38,6.9,6.9,0,0,1,1.05-.34,7.35,7.35,0,0,1,2.15-.12,5.8,5.8,0,0,1,1.12.22,7.94,7.94,0,0,1,1,.36,5.78,5.78,0,0,1,.53.27l.43.3c.29.21.56.38.85.64a5,5,0,0,1,.42.43c.11.13.16.17.3.36l.35.46.17.23.11.18a11.55,11.55,0,0,1,.88,1.73,18.39,18.39,0,0,1,.57,1.75l.39,1.76c.5,2.34.72,4.58,1,6.83.13,1.12.26,2.22.41,3.31.08.54.16,1.08.25,1.6,0,.26.1.51.15.75l.09.34a1.2,1.2,0,0,1,.06.17l0,.16-.8.27-1.25.41L404,849l-.11,0,.22-.1a2.46,2.46,0,0,0,.54-.33l-1.27.64s0,0,0,0a2.33,2.33,0,0,0-.2-.22,2.89,2.89,0,0,0-.31-.22,2.93,2.93,0,0,0-.46-.22l-.15,0-.29,0a2.22,2.22,0,0,0-1.76.49l.09-.08-.17.17-.06.06h0l-.15-.13-.64-.53,0,0,0,0h0l.87.69h0l-.05.06-2.61-1.87h0l1.22.71h0l-1.26-.7c.14-.29.36-.87.52-1.35s.34-1,.51-1.55l1-3.21a41.66,41.66,0,0,1,2.54-6.47,17.9,17.9,0,0,1,2-3.08,10.5,10.5,0,0,1,3-2.51l.43-.25.46-.19.93-.37a7.49,7.49,0,0,1,2-.41,9.05,9.05,0,0,1,3.93.53,14,14,0,0,1,5.88,4.53,40.47,40.47,0,0,1,3.75,5.82c1.08,2,2.05,4,3,6l2.82,6,0,.1h0l.2.45.12.25.07.15.05.11.06.15,0,.08v.06a1.63,1.63,0,0,1,0,.27,1.4,1.4,0,0,1-.22.77,1.36,1.36,0,0,1-.51.47,1.39,1.39,0,0,1-1.53-.15l2.08-1.73a1.46,1.46,0,0,1,.13.32v0a1.38,1.38,0,0,1,0,.31,1.36,1.36,0,0,1-.49,1.07,1.39,1.39,0,0,1-.79.32,1.38,1.38,0,0,1-.86-.23l0,0-.1-.08-.11-.1,0,0,0-.05,0-.06-.07-.08,0,0,.21-.27a3.81,3.81,0,0,0,.25-.37l-.61.53a2.68,2.68,0,0,0-.72-.46l-.49-.18a3.33,3.33,0,0,0-.46-.11,3.27,3.27,0,0,0-.92,0,4.21,4.21,0,0,0-1,.22l-.48.2a2.58,2.58,0,0,0-.38.22,3.83,3.83,0,0,0-.71.65,4.22,4.22,0,0,0-.28.42l-.14.21,0,.05,0,0h0l-.1,0h0l-.15.06-.31.15-.16.09-.08,0h0l.65.19h0v0a.78.78,0,0,0,0,.17l0,.13v0l-.73-.06c-.24,0-.48,0-.37,0l1.09-.2h0v.22l-1.27,0a3.75,3.75,0,0,0-1-.15h-.19v-.44l0-.63-.12-1.31-.27-2.67-.55-5.36-.12-1.18,0-1.19-.08-2.35a20.13,20.13,0,0,1,0-2.3,22.32,22.32,0,0,1,.2-2.31,13.91,13.91,0,0,1,1.37-4.43,8.56,8.56,0,0,1,1.4-1.9c.13-.14.28-.28.43-.42l.47-.33.94-.65,0,0h0l1.15-.45a4.67,4.67,0,0,1,1.21-.32,8,8,0,0,1,2.44,0,10.24,10.24,0,0,1,2.3.58,16.41,16.41,0,0,1,2.06,1,39.26,39.26,0,0,1,6.89,5.29c2.1,1.91,4,4,6,6l3,3,1.51,1.51c.25.26.51.46.77.7l.38.34.19.17.11.09.08.06,0,0,0,0c-.38.62,1-1.19-.73,1.6a1,1,0,0,1-.37-.11l-.05,0,0,0,.15.08a.41.41,0,0,0,.16,0l-.27-.07a.81.81,0,0,0-.33-.05h-.08c-.12,0-.23,0-.35,0l-.35.1a1.64,1.64,0,0,0-.61.4l-.16.15-.09.11a1.71,1.71,0,0,0-.18.3,1.17,1.17,0,0,0-.1.3l0,.24v.06h0l-.42-.07h0l-1.5.17c-.11-.79-.19-1.31-.35-2.06s-.31-1.45-.51-2.19c-.38-1.47-.74-3-1.16-4.49l-2.61-9.49c-2-7.41-4.78-17.37-6.9-27.6a72.51,72.51,0,0,1-1.88-15.49,58.39,58.39,0,0,1,.49-7.28c.15-1.16.34-2.28.54-3.36l.32-1.59.08-.39,0-.11.05-.21a2.83,2.83,0,0,1,.18-.46,2.33,2.33,0,0,1,.7-.85,6.58,6.58,0,0,1,.66-.41c-.15.1-.36.21-.6.4a2.3,2.3,0,0,0-.64.77,2.78,2.78,0,0,0-.26.8l0,.36-.18,1.45c-.12,1-.22,1.95-.3,2.93q-.26,2.94-.33,5.92a72,72,0,0,0,.78,12c1.2,7.94,2.75,15.81,4.51,23.43,1.13,4.85,2.34,9.6,3.56,14.28l1.81,7,.86,3.45.38,1.71.12.73.07.37,0,.18,0,.09v.19l2.07-.21h0l1,.17h0v-.06l0-.22a.57.57,0,0,1,.05-.18,1.15,1.15,0,0,1,.11-.2.85.85,0,0,1,.18-.19,1.18,1.18,0,0,1,.44-.31l.25-.07c.08,0,.16,0,.24,0h.22l.42.11a.92.92,0,0,1-.31-.08l-.24-.12.05,0,.08,0,.16.07c.41,0-.22.2,1.07,0,1.47-4.24.32-1.31.6-2.31l-.11-.12-.06-.06,0,0-.09-.07-.11-.09-.19-.17-.38-.33c-.26-.23-.51-.42-.78-.7l-1.58-1.54L445.42,839c-2.14-2.09-4.2-4.22-6.48-6.2-1-.91-2.12-1.8-3.25-2.63a25.35,25.35,0,0,0-3.62-2.3,11.81,11.81,0,0,0-4.27-1.32,8,8,0,0,0-2.36.1l-.6.13-.54.21-1.08.43,0,0,0,0a19.48,19.48,0,0,0-1.6,1.19,8.8,8.8,0,0,0-1.27,1.54,11.44,11.44,0,0,0-1.43,3.59,18.7,18.7,0,0,0-.46,3.7c-.08,1.19,0,2.41.07,3.62,0,2.44.39,4.77.63,7.14l.39,3.55.17,1.74c0,.29.06.58.07.85V855h.08l.45,0a1.64,1.64,0,0,1,.57.11l1.14,0v-.2h0l-1,.17c-.09,0,.14,0,.39,0l.48,0H422v0l0-.14a.93.93,0,0,1,0-.19v0h0l-.53-.16h0l.08,0,.16-.09.31-.15c.32-.21.39-.55.64-.82a4,4,0,0,1,.74-.67,2.68,2.68,0,0,1,.4-.24,5.21,5.21,0,0,1,.49-.21,4.33,4.33,0,0,1,1-.23,3.41,3.41,0,0,1,1,0,3.45,3.45,0,0,1,.47.12l.5.19a2.81,2.81,0,0,1,.75.49l.52-.42a3.82,3.82,0,0,1-.26.37l-.08.1,0,.06h0l0,0,.08.08,0,.06,0,.05,0,0,.1.09.09.07,0,0a1.21,1.21,0,0,0,.38.17,1.23,1.23,0,0,0,.51,0,1.25,1.25,0,0,0,.69-.38,1.24,1.24,0,0,0,.3-1.14v0a1.33,1.33,0,0,0-.12-.28l-1.87,1.56a1.25,1.25,0,0,0,1.39.13,1.22,1.22,0,0,0,.46-.43,1.26,1.26,0,0,0,.19-.7.82.82,0,0,0,0-.24v0l0-.08-.05-.14,0-.11-.07-.15-.12-.25L430,851h0l0-.09-4-8.49a55.63,55.63,0,0,0-4.72-8.29,18.8,18.8,0,0,0-3.37-3.67,10.67,10.67,0,0,0-4.72-2.28,9.2,9.2,0,0,0-2.71-.1,8.84,8.84,0,0,0-1.35.26c-.45.15-.85.32-1.27.49a10.43,10.43,0,0,0-4,3.22,26.62,26.62,0,0,0-3.8,7.77c-.45,1.34-.84,2.63-1.26,4l-.62,1.94c-.2.6-.45,1.32-.65,1.73l1.13.63h0l-1.1-.64h0l2.23,1.86.19-.21h0l-.76-.6h0l0,0,0,0,.63.53c.09.07,0,0,0,0L400,849l.18-.17-.08.07a2.37,2.37,0,0,1,1.87-.53l.3,0,.17,0a3,3,0,0,1,.48.23,3,3,0,0,1,.34.25,2.58,2.58,0,0,1,.21.23.08.08,0,0,0,0,.06l1.13-.57a2.45,2.45,0,0,1-.54.33l-.22.1.11,0,.34-.12,1.25-.41.66-.22,0-.15a1.74,1.74,0,0,0-.07-.19l-.09-.35c-.06-.24-.11-.49-.16-.75-.1-.52-.18-1.05-.26-1.6-.16-1.09-.29-2.19-.42-3.3-.28-2.24-.51-4.47-1-6.79l-.39-1.74a17.75,17.75,0,0,0-.56-1.73,11.28,11.28,0,0,0-.86-1.71,8.6,8.6,0,0,0-.61-.85c-.06-.07-.12-.15-.17-.21l-.13-.15a5,5,0,0,0-.4-.41,9.67,9.67,0,0,0-.83-.63l-.42-.29a4.56,4.56,0,0,0-.5-.26,7.67,7.67,0,0,0-1-.36,5.61,5.61,0,0,0-1.08-.21,7.15,7.15,0,0,0-2.09.11,6.63,6.63,0,0,0-1,.33,7.09,7.09,0,0,0-.87.38l-.08,0-.06,0a11,11,0,0,0-1.72,1.34,11.37,11.37,0,0,0-1.37,1.65A26.27,26.27,0,0,0,388,834c-.61,1.17-1.1,2.39-1.64,3.59l-.79,1.81-.71,1.82L382,848.51c-.46,1.21-.92,2.42-1.41,3.61-.24.59-.49,1.18-.75,1.76l-.39.86-.2.37-.1.18-.07.12,0,.08,0,.07c.1.06-.21-.24,0,1,3.76.63,1.11.1,2,.21l0-.07-.8-.51,0,0,0,1.48.76-.9a.94.94,0,0,1,.24-.18,4.89,4.89,0,0,1,.54-.2,1.66,1.66,0,0,1,.93,0l.1,0h0a4.14,4.14,0,0,1,.83.38l0,.08.2.2a3.38,3.38,0,0,1,.22.3l-.06-.11.17.34,0,.11.3-.09.34-.08h-.07l-.42,0h-.17v.16a1.21,1.21,0,0,0,.12.36l1-.5c.06,0,.46-.09.81-.13l.28,0h0v-.15a1.42,1.42,0,0,1,0-.23l0-.55.08-1.1.16-2.21.51-4.51c.35-3,.7-6.06.9-9.13a42.29,42.29,0,0,0-.18-9.34,13.3,13.3,0,0,0-.62-2.37,7.75,7.75,0,0,0-1.25-2.26,5.93,5.93,0,0,0-2.08-1.69,6,6,0,0,0-1.28-.44,6.6,6.6,0,0,0-1.31-.12h-.11a7.2,7.2,0,0,0-1.23.18,9,9,0,0,0-1.13.38,10.57,10.57,0,0,0-2,1.16,26.2,26.2,0,0,0-3.35,2.95l-3,3.12c-.5.52-1,1-1.49,1.5-.25.24-.51.47-.76.68l-.38.3-.21.14,0,0h0l-.06,0a.8.8,0,0,0-.2.14.81.81,0,0,0-.19.26.87.87,0,0,0,.29,1.09l.13.08.38-.76a2.62,2.62,0,0,1,.14.78c0,.08,0,0,0,0h.09l.17.05a.43.43,0,0,1,.14.1l.06.06c.14-.12.21-.13.08-.08l.67-.25a.36.36,0,0,1-.17.1h0l.28,0c.18,0,.46-.07.68-.09l-.69.07c0-.09,1.11-.29.82-.24v-.22c0-.11,0-.24,0-.37s0-.52,0-.79c.05-.54.13-1.08.22-1.63.19-1.1.42-2.21.66-3.32a68.41,68.41,0,0,0,1.27-6.82,11.43,11.43,0,0,0,0-1.86,5.82,5.82,0,0,0-.39-1.89,9.65,9.65,0,0,0-.52-.94,3.74,3.74,0,0,0-.76-.78,3.8,3.8,0,0,0-2-.79,4.73,4.73,0,0,0-2,.32,11.06,11.06,0,0,0-1.66.89c-.51.34-.95.74-1.42,1.11l-.7.56-.63.6a112.44,112.44,0,0,0-9.12,10.27l-4.29,5.27c-1.43,1.73-2.83,3.59-4.31,5.09l-.74.75.79.67h0l.06,0a1,1,0,0,0,.35.15,1,1,0,0,0,1-.5h0v0h0l-.82-.38h0l0,0a1,1,0,0,1,.1.17,4.24,4.24,0,0,1,.2.53l0,.08h.05l.24,0h-.1a.41.41,0,0,1,.19,0,.46.46,0,0,1,.26.38H347a3.67,3.67,0,0,1-.62,0h-.08v0c.11.05-.44-.1.93.25l-.92-.27,0,.07h.49c1.87,1.06,1.16.64,1.31.7l0-.06.07-.12.14-.22.33-.47.7-1,1.38-2c.92-1.32,1.83-2.64,2.7-4,1.74-2.68,3.36-5.4,4.82-8.17A75.2,75.2,0,0,0,365,809.25a52,52,0,0,0,1.32-18.2,48.78,48.78,0,0,0-5.49-17.38l-.91.45a48.31,48.31,0,0,1,4.1,12.64,45.68,45.68,0,0,1-2.11,22.5,87.07,87.07,0,0,1-10.24,20.15c-2.19,3.36-4.62,6.63-7.05,10l0,0h0c-.09.16-.25.36-.4.62a6.07,6.07,0,0,0-.35.73l0,.07a3.63,3.63,0,0,0-.13.92l0-.27a.79.79,0,0,0,0,.2V842a2.17,2.17,0,0,0,0,.21,2.37,2.37,0,0,0,.14.39,2.25,2.25,0,0,0,.49.69,2.18,2.18,0,0,0,1.53.58h.09a4.07,4.07,0,0,0,.66-.15,1.82,1.82,0,0,0,.38-.17l.17-.12,0,0h0l0-.06-.08-.13v0l.21.16a55,55,0,0,0,4.9-5.57l4.71-5.69c1.59-1.89,3.2-3.78,4.91-5.59.85-.91,1.73-1.79,2.64-2.65a23.83,23.83,0,0,1,2.87-2.41c-.42.34-.8.65-1.12,1a10.3,10.3,0,0,0-.78.91,14.28,14.28,0,0,1,1.38-1.39,6,6,0,0,1,1.73-1.25h0l-.07.14a3.49,3.49,0,0,1-.19-1.11v-.23a.19.19,0,0,0,.14.2.18.18,0,0,0,.17,0h0a1.24,1.24,0,0,1-.22.22,2.26,2.26,0,0,1-.53.3h0a3.69,3.69,0,0,1-.53.2h-.15a.25.25,0,0,1-.12-.07.3.3,0,0,1-.08-.16.29.29,0,0,1,.14-.29.28.28,0,0,1,.36.07.27.27,0,0,1,0,.25l0,.06,0-.15v0l0,.29v0h0c0,.63-.07,1.29-.15,1.95s-.21,1.29-.34,1.94c-.26,1.3-.57,2.63-.88,4s-.6,2.73-.83,4.13a10.65,10.65,0,0,0,0,4.08h0v.05a4.62,4.62,0,0,0,.36.87l0-.07a3.42,3.42,0,0,0,.63.78,2.79,2.79,0,0,0,.81.5,3.14,3.14,0,0,0,1.94.09,6.37,6.37,0,0,0,2-1,17.93,17.93,0,0,0,1.92-1.54c1.26-1.14,2.51-2.37,3.79-3.56.64-.61,1.3-1.21,2-1.78.35-.29.72-.57,1.11-.83.19-.12.4-.26.63-.39l.35-.17.2-.08.12,0,.09,0,.08,0a.94.94,0,0,1,.22,0l.58.36-.06-.09-.08-.08a.78.78,0,0,0-.56-.19.8.8,0,0,0-.64.4.77.77,0,0,0-.07.18v.09a.78.78,0,0,0,0,.14v.07h0l0-.08a1.33,1.33,0,0,1,0-.24l0-.51v.12a2.19,2.19,0,0,1,0-.61v0l0-.07v-.14l1.43.57h0v0l0,0-1.12.25-.27-.89v0h0v0h0v0l1.46.42-.05.2h0v0l0,.06,0,.05a1.28,1.28,0,0,1-.15.26l.08-.12a2.83,2.83,0,0,1-.23.31l.05-.06a3.54,3.54,0,0,1-.45.44l-.17.14h0l0,0,.06-.08,0-.09a.8.8,0,0,0,.06-.28.76.76,0,0,0-.08-.34.77.77,0,0,0-.15-.2l-.06-.05,0,0a.85.85,0,0,1,.19.21.84.84,0,0,1,.12.28,1,1,0,0,1,0,.19l-.05-.27a13.65,13.65,0,0,1,.43,4c0,1.28-.13,2.55-.26,3.8-.26,2.5-.64,5-1,7.37l-1.22,7.1c-.19,1.16-.37,2.31-.51,3.43-.06.56-.11,1.13-.15,1.68l0,1.62v0a7.16,7.16,0,0,0,.16.8,4.65,4.65,0,0,0,.29.71,4.15,4.15,0,0,0,.39.62c.17.17.35.38.52.53a3.66,3.66,0,0,0,1.26.64,3.79,3.79,0,0,0,1.41.05,4.52,4.52,0,0,0,.56-.15,1.69,1.69,0,0,0,.53-.2,5.07,5.07,0,0,0,1-.71l0,0a12.35,12.35,0,0,0,1.9-2.82c.54-1,1-2.09,1.53-3.16l2.86-6.5c1-2.17,1.89-4.37,2.91-6.53.51-1.08,1-2.16,1.62-3.22a18,18,0,0,1,2-3l.18-.14a.15.15,0,0,0-.09.07l0,.59c-.17-.23-.42-.47-.66-.77a3.43,3.43,0,0,1-.35-.5l-.25-.47.06.08a2.48,2.48,0,0,1-.48-1.21l.09.26a.59.59,0,0,1-.09-.23v-.36h0l0-.06.67-.21.27.44v.13l-.52-.59a.5.5,0,0,1,.36.13.51.51,0,0,1,.16.43c0,.12,0,0,0,.08v0l0,.07,0,.06,0,.08-.08.13-.17.22a4.29,4.29,0,0,1-.37.4,4.62,4.62,0,0,1-.87.65l0,0-.61.37-.32.19-.17.08-.07,0h0l.06,0s0,.07.12-.14a.52.52,0,0,0,.06-.41.52.52,0,0,0-.54-.38l.55.42v0l0-.06a19.52,19.52,0,0,1,.54,2.55l.24,2.5.48,5a45.47,45.47,0,0,0,.64,4.87,18.3,18.3,0,0,0,.67,2.26l.51,1c.24.29.42.58.69.89l0,0a5.28,5.28,0,0,0,.59.51l.29.23.28.17a5.2,5.2,0,0,0,1.36.49,4.3,4.3,0,0,0,1.4,0,4.47,4.47,0,0,0,1.35-.39,4.82,4.82,0,0,0,1.17-.77,7.36,7.36,0,0,0,1-1.08,15.09,15.09,0,0,0,1.41-2.69c1.6-3.91,2.43-8,4.93-11.94l.46-.32a.84.84,0,0,0-.46.35l.11,1.28-.75-.87a4.17,4.17,0,0,1-.63-1l.06.11a6.49,6.49,0,0,1-.31-.75l.64.76a1.11,1.11,0,0,1-.49-.39l-.07-.12a1.05,1.05,0,0,1-.05-.12l0-.1,0-.09v-.3l.2-.58,1.55-.18.22.27v0a1.08,1.08,0,0,1,.08.18l0,.12,0,.07v.06a3.33,3.33,0,0,1,0,.52l0-.12,0,.23a2.66,2.66,0,0,1-.22.72l.05-.14a5,5,0,0,1-.47,1.12l-.08.11c.07-.08,0,0,0,0l0,.08-.1.19-.1.2-.05.1,0,0h0v0l0,0,0-.09,0-.16-.39-1-1.42,0-.14.15-.06.09,0,0v0h0v0l.3-.59h.67a1.3,1.3,0,0,1,.91.46l-.12-.12a18,18,0,0,1,3,4.28c.78,1.45,1.48,2.91,2.14,4.37l3.79,8.65,0-.09a12.36,12.36,0,0,0,2.6,3.57,5.33,5.33,0,0,0,1.7.92,4.86,4.86,0,0,0,1.93.14,4.36,4.36,0,0,0,3.1-2,3.74,3.74,0,0,0,.44-.84c.05-.14.12-.26.18-.43s.1-.4.13-.54a8.24,8.24,0,0,0,.09-2.12c0-.37-.06-.73-.12-1.12s-.11-.8-.18-1.18l-.42-2.35-.89-4.77-.44-2.39c-.15-.79-.21-1.63-.32-2.44s-.23-1.62-.25-2.47c0-.42,0-.84,0-1.27,0-.22,0-.43,0-.66s0-.23,0-.36l0-.2v-.11c.56.15-1.29-.37,1.6-.41L428.12,836a.91.91,0,0,1-.33-.74.88.88,0,0,1,.25-.59.91.91,0,0,1,.23-.17l0,0,0,0-.12.06a.92.92,0,0,0-.16.13.9.9,0,0,0-.18.27.88.88,0,0,0-.07.53.94.94,0,0,0,.14.34.85.85,0,0,0,.12.14l.08.07,0,0,0,0L428,836l-.35-.17a4.26,4.26,0,0,1-.75-.51l.14.1a2.47,2.47,0,0,1-.81-.75l0-.06h0a.76.76,0,0,0,.34.26.88.88,0,0,0,.7,0,.85.85,0,0,0,.38-.36.88.88,0,0,0,.1-.26.81.81,0,0,0,0-.17.88.88,0,0,0,0-.26v0l.07.23a4.09,4.09,0,0,1,.1.46,5.5,5.5,0,0,1,0,1.72v.1l0,.09a.79.79,0,0,1-.19.3l-.14.11-.08,0-.16.06a.84.84,0,0,1-.65-.09.81.81,0,0,1-.31-.32.83.83,0,0,1-.08-.21l1-1h-.1l.14,0h0l.58,0-.35.09.15,0a2.14,2.14,0,0,1,.42.15l-.07,0a22,22,0,0,1,4.51,2.74c1.37,1,2.7,2.12,4,3.25l7.64,6.81a26.25,26.25,0,0,0,2.2,1.83c.38.28.75.58,1.13.85a5.76,5.76,0,0,0,.59.35l.65.29h0a4.48,4.48,0,0,0,1.14.23l.11,0a2,2,0,0,1,.42-.06l.53-.15a2.73,2.73,0,0,0,1-.51,3.11,3.11,0,0,0,.66-.86,3.19,3.19,0,0,0,.22-.51c0-.09.05-.18.07-.27l0-.14v-.09h0v.07l0,.08c-.1.31.88.4.77.18l-.79-.34c0-.3,0-.57,0-.86v0a25.85,25.85,0,0,0-1.17-4.63L450,839.17,446.68,830c-2.28-6.13-4.59-12.26-6.73-18.42-1.08-3.08-2.09-6.17-3.05-9.26a87.38,87.38,0,0,1-2.45-9.44,51.49,51.49,0,0,1-.9-9.66q0-2.41.21-4.78c.07-.79.15-1.58.25-2.36l.16-1.17c0-.15,0-.07,0,0a.61.61,0,0,0,.21.22.8.8,0,0,0,.87,0" transform="translate(-110.45 -18.67)"/></svg>