<svg id="Layer_1" data-name="Layer 1" xmlns="http://www.w3.org/2000/svg" viewBox="0 0 519.61 778.8"><defs><style>.cls-1{fill:#f2f2f2;}</style></defs><title>profileIcon</title><path class="cls-1" d="M670.53,169.34a133,133,0,0,1-1.31,17.44,68,68,0,0,0-7.26,2.9c-2.9,1.34-4.83,2.7-5.83,4.23a7.84,7.84,0,0,0-1.2,5c.25,3.67,2,8.08,2.37,12.6.18,2,.16,3.88.2,5.85,0,1,0,2-.09,2.92s-.13,1.94-.22,2.92a116.84,116.84,0,0,1-42.34,44.95c-2.24-1.11-4.62-2.72-6.75-4s-4.06-2.19-5.45-1.89a3.13,3.13,0,0,0-2.07,1.75,13.48,13.48,0,0,0-1.2,3.17c-.34,1.2-.65,2.49-1.07,3.69a8.23,8.23,0,0,1-1.71,3c-3.94,4.14-9.06,5.39-14.15,5.16a31.61,31.61,0,0,1-7.66-1.47c-1.26-.4-2.5-.79-3.73-1.29l-3.63-1.56-1.76-.78-1.74-.85c-1.15-.56-2.27-1.09-3.38-1.56s-2.2-1-3.28-1.46-2.14-.74-3.19-1.1a19.15,19.15,0,0,0-6.33-.86,14.92,14.92,0,0,0-3.27.56A16.53,16.53,0,0,0,541,270c-11.58,5.55-23.7,7.44-35.52,3-2-.83-4-1.72-6-2.7l-3-1.54c-.49-.26-1-.5-1.49-.77l-1.46-.82a115.29,115.29,0,0,1-21-16.89A119.11,119.11,0,0,1,456,229l-.28-5.72,0-5.47c.12-6.31-2.47-10.73-5.71-15.22-.82-1.11-1.6-2.24-2.46-3.35l-1.29-1.68c-.41-.57-.79-1.15-1.19-1.72-.78-1.16-1.56-2.32-2.26-3.52a35.29,35.29,0,0,1-1.71-3.68c-.11-.63-.24-1.26-.33-1.89l-.24-1.91-.48-3.82a15.08,15.08,0,0,1,1.77-5.07c1-1.81,3.23-4.11,5-6.29s3.43-4.27,3.32-6c0-2.48-3.86-5.44-4.77-8.21a31,31,0,0,0,1.54-3.19,14.59,14.59,0,0,0,1-3.11,17.43,17.43,0,0,1,1.65-1.42c.58-.42,1.19-.81,1.77-1.17a26.83,26.83,0,0,0,3.17-2.18,6.87,6.87,0,0,0,2.06-2.78,9.48,9.48,0,0,0,.17-4.5c-3.71-1.38-5.59-3-8.27-4.51,0-.48,0-.95,0-1.42,2-.53,3.93-1.07,5.85-1.55a32.26,32.26,0,0,1,6.17-1c-1.21-1.68-2.75-3.5-4.27-5.36a34.4,34.4,0,0,0,8.12-.93,11.62,11.62,0,0,0,5.23-2.7,6.42,6.42,0,0,0,1.77-4.76,18.17,18.17,0,0,0-2.22-7.3,10.25,10.25,0,0,0,4-3.58,7.35,7.35,0,0,0,.71-1.65,9.45,9.45,0,0,0,.42-1.81,21.41,21.41,0,0,0,.07-4.18c-.1-2.9-.55-6.18-.45-9.23l1.37-1.3c3.13-.91,5.91-1.67,9.21-1.32a18,18,0,0,1,5.62,1.75,37.48,37.48,0,0,1,7.18,4.66c-.36-1.9-.66-3.72-.85-5.44a8.4,8.4,0,0,0,2.88.51,6.5,6.5,0,0,0,2.64-.52,9.34,9.34,0,0,0,4.2-3.92,19.37,19.37,0,0,0,1.46-3.23,21.32,21.32,0,0,0,.91-4,30.9,30.9,0,0,0-.34-10.06,2.07,2.07,0,0,0,.52-.08,32,32,0,0,1,5.36.32c1.15,1,2.21,1.84,3.19,2.56A32.42,32.42,0,0,0,520,68.88a9.87,9.87,0,0,0,4.38,1.58c2.58.3,4.47-1.34,6.44-3.87a29.58,29.58,0,0,0,3.88-.15,16.08,16.08,0,0,0,3.92-.86,94.39,94.39,0,0,1,40.69-4,28.08,28.08,0,0,1,3.78.84c1.27,1.38,2.49,2.8,3.77,3.94A9.86,9.86,0,0,0,590.94,69a9.36,9.36,0,0,0,5.85-.36c.95.48,1.85,1.07,2.79,1.56s1.89.95,2.83,1.42,1.89.92,2.87,1.31q.73.29,1.49.55c.5.18,1,.37,1.49.54a34.5,34.5,0,0,0,6.44,1.37,29.06,29.06,0,0,0,3.61.16,32.52,32.52,0,0,0,3.89-.16l.35.25,1,1.62.92,1.66,1.83,3.25c-.94,1.49-2.36,2.74-3.15,4.23,1.14.27,2.32.56,3.51.88a18.92,18.92,0,0,1,3.48,1.2,13.79,13.79,0,0,1,3,1.88,8.14,8.14,0,0,1,2.11,2.87c.1.67-3,2.77-3.48,3.36,3.57-.42,5,.65,4.27,2.58s-3.55,4.77-8.33,8.37c3.13-1.26,6.18-.2,9.42-1-4.37,5.47-2.69,9.7,1.27,13.17a21.72,21.72,0,0,0,3.34,2.5,35.19,35.19,0,0,0,3.82,2.25c1.38.67,2.68,1.34,4,1.89a31.88,31.88,0,0,0,3.9,1.36c-.28,5.87-.77,11.33-.18,16.37a28.5,28.5,0,0,0,.92,5.71,6.74,6.74,0,0,0,2.29,3.68c2.18,1.82,6.12,2.46,13.14,1.9.35,2.26.43,4.55.63,6.82.12,1.14.11,2.28.14,3.43l.09,3.43,13.18,0-.14.32c.78-.14,1.6-.2,2.38-.32l23.63-.06,0-1.2c1.66.06,3.27.11,4.94.23a62.12,62.12,0,0,0-1.48-7.9c-.69-2.5-1.39-4.89-2.1-7.2s-1.47-4.56-2-6.82a37.15,37.15,0,0,1-1.24-6.86,30.12,30.12,0,0,0,2.92-9.32,33,33,0,0,0-.22-9.23,44.13,44.13,0,0,0-1.12-4.47,33,33,0,0,0-1.61-4.37,54.59,54.59,0,0,0-4.57-8.32c-.83-1.73-1.61-3.52-2.56-5.32l-2.95-5.64a137.75,137.75,0,0,0-12.67-19c-4.75-6-9.66-11.76-14.64-17.57-1.28-1.57-2.59-3.23-3.85-5-.64-.88-1.27-1.8-1.94-2.67s-1.39-1.72-2.12-2.54c-2.87-3.34-6.43-6-10.87-6.52a13.54,13.54,0,0,0-3.54.36A98.33,98.33,0,0,0,607.66,24l-4.37-1.48-2.19-.74-2.22-.64c-.6-1.19-1.24-2.38-1.8-3.6C593,8.37,588.44,2.9,582.79-.37a22.18,22.18,0,0,0-4.51-2,37.42,37.42,0,0,0-5.07-1.28,50,50,0,0,0-5.76-.53q-1.53-.07-3.17-.07c-1.09,0-2.22.08-3.39.15-10.62.58-21.39.74-32.45,1.61a161.6,161.6,0,0,0-33.16,5.71c-10.84,3.21-21.24,8.05-30,14.9A59.53,59.53,0,0,0,445.7,44.35l-1.15,3.1-1,3.06c-.67,2-1.34,4-2,5.88-1.14,3.93-2.29,7.6-3.11,11.44a154.46,154.46,0,0,0-30,52.35c-3.51,2.12-5.7,5-4.29,9-6.94-1.42-12.26-.1-16.32,3.14a17.49,17.49,0,0,0-2.78,2.75,23.94,23.94,0,0,0-2.2,3.35,31.09,31.09,0,0,0-1.75,3.8,34.11,34.11,0,0,0-1.17,4.15c-.32,1.42-.57,2.88-.75,4.35a42.72,42.72,0,0,0-.23,4.43c0,1.48,0,2.95.12,4.39s.33,2.86.55,4.22a41.08,41.08,0,0,0,4.35,13.2c1.77.45,3.41-.21,5.28.14.15,1.61.52,3.44.88,5.43l.6,3.09c.21,1.06.51,2.15.78,3.26l.83,3.39c.27,1.15.55,2.31.89,3.47.66,2.32,1.25,4.68,1.84,7,2.38,9.28,4.58,17.9,1.95,23.56,6.59,2.3,10.9,6,17.25,7,.53,1.15,1,2.31,1.58,3.45l1.73,3.38c.59,1.12,1.14,2.26,1.75,3.36l1.89,3.29c-1.13,2.08-2.5,4.25-3.88,6.45s-2.75,4.42-4,6.67a45.07,45.07,0,0,0-3.17,6.78,18.49,18.49,0,0,0-1.13,6.57,31.63,31.63,0,0,1,12.69-2.7,22.66,22.66,0,0,1,9.59,2.22,24.68,24.68,0,0,1,3.88,2.22c1.19.83,2.28,1.73,3.35,2.61s2,1.82,2.9,2.73c.44.45.86.91,1.27,1.35l1.2,1.23a60.6,60.6,0,0,1,4.49,5.93,53.06,53.06,0,0,0,5.77,7,9.28,9.28,0,0,1-1.73,3.17,14.34,14.34,0,0,0,2.5,3.3,17.33,17.33,0,0,0,3.16,2.36c1.12.68,2.3,1.29,3.48,1.9s2.43,1.13,3.62,1.77a10.43,10.43,0,0,1-1.93,1.37,13.07,13.07,0,0,0,4.36,3.66,9.42,9.42,0,0,0,5.1.77,12.23,12.23,0,0,0,5.41-2.2,26.11,26.11,0,0,0,5.52-5.42l3.88,2c1.14,2.1,2.18,4.25,3.2,6.45.51,1.09,1,2.19,1.56,3.26s1.11,2.08,1.71,3.08a27.45,27.45,0,0,0,4.11,5.48,17.24,17.24,0,0,0,5.67,3.69c4.67,1.7,10.18,1.32,15.59.3,2.69-.43,5.4-1.17,8-1.69,1.31-.28,2.59-.48,3.86-.71a33,33,0,0,1,3.73-.48,37.54,37.54,0,0,0,3.92-.48,31.18,31.18,0,0,0,3.37-.93,26.54,26.54,0,0,0,5.64-2.65c3.69.09,7.38.25,11.06.08s7.37-.36,11.05-.64c1.84-.16,3.67-.44,5.5-.66l2.75-.35c.91-.14,1.82-.31,2.73-.47,1.82-.33,3.64-.64,5.46-1l5.41-1.24a40.53,40.53,0,0,0,24.65-1.9c7.54-2.91,14.54-7.31,22.23-12,1.88-1.21,4.06-2.35,6.26-3.63a60.87,60.87,0,0,0,6.43-4.39,25.25,25.25,0,0,0,5.14-5.75,16.29,16.29,0,0,0,2.3-7.45,2,2,0,0,0,0-.45A154.62,154.62,0,0,0,709.6,169.34ZM641.66,93l2.61,3,2.46,3.14-1,1-2-3.64C643.11,95.35,642.38,94.18,641.66,93Zm11.61,25.2.19-.17c0,.25,0,.52,0,.77Z" transform="translate(-293.25 4.27)"/><path class="cls-1" d="M596.2,758.8a218,218,0,0,0,34.92-3,46.36,46.36,0,0,0,9.66,4.95c9.13,3.46,17.35,1.93,24.65-1.88,1.83-1,3.63-2,5.4-3.16s3.46-2.49,5.17-3.8,3.42-2.62,5.11-4,3.38-2.82,5.12-4.18c6.06-4.73,11.73-9.69,17.2-14.63a223.89,223.89,0,0,0,25.57-18,228.68,228.68,0,0,0,22.61-21.6,220.8,220.8,0,0,0,19.17-24.7l4.23-6.59c1.34-2.24,2.63-4.51,3.93-6.77s2.5-4.58,3.7-6.9,2.42-4.63,3.46-7c3-1.56,6.44-2.89,9.52-4.59s5.68-3.81,7.21-6.69c2-3.95,1.63-8,1-12s-2-8-1.77-12.18c.05-2.4.2-4.73.45-7,.12-1.14.28-2.27.43-3.4s.26-2.25.43-3.37q.49-3.34,1.22-6.59c.41-2.18.85-4.35,1.38-6.5,1.13-4.3,2.11-8.58,3.37-12.87.66-2.14,1.15-4.29,1.75-6.45l1.8-6.5-1.57-9.41c-.77-11.35-1.75-22.88-4.8-33.78s-8.15-21.18-16.83-29.47c-9.21-8.83-18.11-16.55-26.64-24.36s-16.94-15.53-25.5-24.23c-6-6-12.1-12.11-18.58-17.78a323.44,323.44,0,0,0-86.12-57.51c-5.31-4.39-10.85-8.52-16.3-12.36A60.39,60.39,0,0,0,611,337c-1.85-1-3.71-1.82-5.5-2.56l-3-1.23-6.33-.32c-17.09-.88-32.85,5.21-48.24,6.88H534.13a42,42,0,0,1-8.92-2.15c-3.12-1.15-7.13-3.25-11.41-5.07l-8.6,1.3c-4.8-.47-9.9-.43-13.53,1.06a22.6,22.6,0,0,0-7,5.1c-1.07,1.05-2.13,2.13-3.19,3.15a30.45,30.45,0,0,1-3.22,2.83q-1.77.36-3.49.78c-1.14.29-2.26.62-3.36,1a49.23,49.23,0,0,0-6.34,2.39,73.59,73.59,0,0,1-7.43.41,55,55,0,0,0-6.76.55,22.41,22.41,0,0,0-7,2.32,31.76,31.76,0,0,0-3.86,2.36,41.4,41.4,0,0,0-4.16,3.52c1.69,3.6,1.17,6.57,1.77,9.73-.67.62-1.4,1.16-2.07,1.78-5.72-.42-11.67,0-17.66-.72A57.4,57.4,0,0,0,415.8,379a32.27,32.27,0,0,0-22.91,4.76,30.09,30.09,0,0,0-8.34,8.42,27.19,27.19,0,0,0-3.92,11.7,32.55,32.55,0,0,0-4.7,3.29,37.32,37.32,0,0,0-4.24,4.09c-6.9,7.87-7.84,18-10,27.16-.78.94-1.59,1.85-2.32,2.82-4.65,3.46-8.78,6.71-13.48,9.18a32.33,32.33,0,0,1-8,2.84,44.37,44.37,0,0,1-10.39,1c.36,2.66.65,5.15.93,7.57a22.91,22.91,0,0,0-8.19,7.51,39.73,39.73,0,0,0-3.15,5.69c-.46,1-.89,2.06-1.28,3.13s-.69,2.18-1,3.29a41.21,41.21,0,0,0-1.12,6.73,32.1,32.1,0,0,0,.24,6.65,24.22,24.22,0,0,0,1.65,6.11,19.9,19.9,0,0,0,3.25,5.22,7.22,7.22,0,0,0-.54.83c-2,2.7-4,5.23-6,7.82-12.94,5.88-17.47,14.51-17.61,24.71l-1.48,9.74c.34,1.06.73,2.17,1.17,3.29a80.79,80.79,0,0,0-.41,8.86,85.44,85.44,0,0,0,.87,9.29,223.22,223.22,0,0,0,11.91,43.51,236.85,236.85,0,0,0,20.58,40.89c.75,1.15,1.45,2.34,2.14,3.55l1,1.82,1.12,1.77,1.54,5.1a46.22,46.22,0,0,0,1.81,5,53,53,0,0,0,2.31,4.81q.64,1.17,1.36,2.31a25.83,25.83,0,0,0,1.61,2.16,29.31,29.31,0,0,0,9.38,7.69c1.43,1.84,2.87,3.68,4.37,5.46s3.12,3.45,4.73,5.13c.81.83,1.6,1.68,2.44,2.47s1.71,1.56,2.58,2.32c1.74,1.52,3.49,3,5.3,4.39s3.75,2.61,5.68,3.81c1,.6,1.93,1.18,2.91,1.73s2,1,3,1.5c2,1,4.12,1.82,6.22,2.58a61.46,61.46,0,0,0,6.54,1.74l.71.5c.81.89,1.62,1.79,2.45,2.66l2.56,2.54c1.73,1.68,3.45,3.4,5.25,5-.5,1.74-2,3-2.25,4.78l14.22,4.36c4.71,1.66,9.43,3.34,13.67,6.19.94.85-1.75,3.71-1.82,4.48,5.64-.76,9.13.16,10.61,2.68s1,6.48-1.9,11.81c3.77-2,10.84-1.44,14.73-3.59a10.6,10.6,0,0,0,3,5.13,16.85,16.85,0,0,0,2.67,2.13,26.52,26.52,0,0,0,3.34,1.71,40.59,40.59,0,0,0,8.19,2.51,77.74,77.74,0,0,0,9.52,1.06,91.13,91.13,0,0,0,10-.34c.82-.07,1.64-.14,2.46-.24l2.43-.39c1.6-.27,3.17-.58,4.69-.9s3-.68,4.39-1.05,2.75-.88,4-1.34a53.41,53.41,0,0,0,6.55-2.82l4,.94,3.86.88c2.57.57,5.14,1.1,7.72,1.58a138.85,138.85,0,0,0,15.47,2c18.45,1.32,26.08,0,27.07-14.06h24.63V745.62l.51.15c-.23-.78-.33-1.61-.51-2.39V719.74h-1.62c.11-1.66.19-3.27.36-4.93-14.51,1.13-26.2,4.89-38.74,3.91a55.15,55.15,0,0,0-22.57-7.18,82.66,82.66,0,0,0-11.78-.32c-2,.08-4,.21-6,.39l-2.82.26-2.63.29c-4.27,0-8.69-.27-13.62-.71a204.62,204.62,0,0,1-25.15-4.28,100.84,100.84,0,0,1-24-8.93,38.56,38.56,0,0,1-5.89-3.82l-2.89-2.18-1.46-1.07-1.43-1.11c-1-.72-1.94-1.4-2.94-2s-2-1.16-3.06-1.71a18.4,18.4,0,0,0-6.73-2,16,16,0,0,0-3.77.19l-2.61-1.74-1.31-.86-1.27-.91q-2.55-1.83-5.15-3.61c-3.33-2.54-6.8-5-10.09-7.62-6.67-5.22-13.31-10.72-19.7-16.75-.57-.74-1.18-1.46-1.73-2.22l-1.63-2.3c-1.08-1.54-2.21-3-3.25-4.6.21-1.48.41-3,.73-4.38,2.4-10.35,3.81-17.31,3.1-23.69a34.23,34.23,0,0,0-.72-4.78c-.36-1.59-.9-3.15-1.4-4.84a52.4,52.4,0,0,0-2-5.18c-.68-1.84-1.49-3.77-2.42-5.83a81.14,81.14,0,0,1-5.59-22.34,131.9,131.9,0,0,1,0-23.52l-1.7,11.22c2.75-6.75,5.75-13.35,8.78-19.9s6.16-13,9-19.58c5.83-13.08,10.69-26.41,13.69-41.66,1-4.77,2.06-9.49,3.45-13.91l2-6.71c.75-2.19,1.54-4.37,2.33-6.59A264.08,264.08,0,0,1,460.82,404a17.18,17.18,0,0,0,6.5-.75,9.13,9.13,0,0,0,5-4A21,21,0,0,0,484,408.49a24.72,24.72,0,0,0,6.8,1,27.68,27.68,0,0,0,3.52-.22,35.85,35.85,0,0,0,3.59-.55,65.12,65.12,0,0,0,14.24-5,100.14,100.14,0,0,0,12.57-7l-10.86,1.65a58,58,0,0,0,8.63-2.77c.65-1.76-.08-3.42.47-5.27,16.19-.83,51.2-6.74,62.12,2,3.66-3.6,7.82-6,11.19-8.75l-7.08-1.18a23.54,23.54,0,0,0,6.37-2.6c6,2.18,12,4.6,17.83,7.18a60.21,60.21,0,0,1,1.28,7.79c.28,2.7.46,5.42.71,8,.5,5.23,1.14,10.25,3.23,13.93a25.32,25.32,0,0,1,10.55-7.77,21.5,21.5,0,0,1,10.76-.94,30,30,0,0,1,5.06,1.35,31.88,31.88,0,0,1,4.68,2.06,56.58,56.58,0,0,1,7.71,5,50.11,50.11,0,0,1,6.48,6.15c1.17,1.26,2.38,2.57,3.64,3.86s2.49,2.65,3.8,3.88a7.93,7.93,0,0,1-1.66,3.23,20.08,20.08,0,0,0,2.87,3.66,25.73,25.73,0,0,0,3.34,2.93c1.18.89,2.44,1.7,3.69,2.54s2.47,1.74,3.68,2.69a10.36,10.36,0,0,1-2.2,1A16.86,16.86,0,0,0,685,451a11.38,11.38,0,0,0,5.11,2.4c3.79.72,8.37-.32,13.49-3.33l3.77,4c.33,1.37.59,2.73.82,4.08s.34,2.75.47,4.11c.26,2.71.45,5.34.76,7.87a43.72,43.72,0,0,0,1.32,7.41,23,23,0,0,0,1.29,3.44,22.07,22.07,0,0,0,4.44,6.52c1,1,2,2,3.1,2.94,2.15,1.93,4.66,3.69,7.13,5.52s5,3.67,7.4,5.64a50,50,0,0,1,6.44,6.33,59.34,59.34,0,0,0,6.07,6.54,47.11,47.11,0,0,0,5.84,4.67,294.13,294.13,0,0,1,15.09,35.78l-.94-5.61-.21,8.34c-.18,2.77-.42,5.54-.62,8.32a125.89,125.89,0,0,0-10.91,26.64q-.52,1.63-1,3.29c-.32,1.1-.59,2.22-1,3.31-.71,2.2-1.37,4.45-2.07,6.73l-2.43,6.85c-.9,2.3-1.94,4.6-3,7s-2.6,4.69-4,7.2-3.18,5-4.54,7.6a38.19,38.19,0,0,0-3.63,8,23.06,23.06,0,0,0-1.23,8.78,2.24,2.24,0,0,0,0,.5,178.32,178.32,0,0,1-27.15,28.42A173.8,173.8,0,0,1,672,701.77a164.59,164.59,0,0,1-36.86,13.39,172,172,0,0,1-39,4.58ZM439.9,745.24l1.86.73,1.89.65,3.79,1.29,3.79,1.28c1.27.41,2.56.75,3.84,1.12l.07,1.49-3.88-1.49-3.81-1.66-3.8-1.67-1.89-.84ZM494,762.59c0-.1-.06-.15-.1-.25l1.42.46Z" transform="translate(-293.25 4.27)"/></svg>